<svg xmlns="http://www.w3.org/2000/svg" viewBox="0 0 960 32"><defs><style>.a,.c,.d,.e,.f{fill:#039be5;}.b{fill:#606060;}.c{opacity:0.4;}.d{opacity:0.65;}.e{opacity:0.85;}.f{opacity:0.95;}</style></defs><path class="a" d="M851.6,17.8a2.6867,2.6867,0,0,0-1.87.7586l-4.4629-2.2314A2.6739,2.6739,0,0,0,845.3,16a2.6739,2.6739,0,0,0-.033-.3272l4.4629-2.2314A2.6957,2.6957,0,1,0,848.9,11.5a2.6739,2.6739,0,0,0,.033.3272L844.47,14.0586a2.7,2.7,0,1,0,0,3.8828l4.4629,2.2314A2.6931,2.6931,0,1,0,851.6,17.8Z"/><path class="a" d="M819.6,17.8a2.6867,2.6867,0,0,0-1.87.7586l-4.4629-2.2314A2.6739,2.6739,0,0,0,813.3,16a2.6739,2.6739,0,0,0-.033-.3272l4.4629-2.2314A2.6957,2.6957,0,1,0,816.9,11.5a2.6739,2.6739,0,0,0,.033.3272L812.47,14.0586a2.7,2.7,0,1,0,0,3.8828l4.4629,2.2314A2.6931,2.6931,0,1,0,819.6,17.8Z"/><path class="a" d="M883.6,17.8a2.6867,2.6867,0,0,0-1.87.7586l-4.4629-2.2314A2.6739,2.6739,0,0,0,877.3,16a2.6739,2.6739,0,0,0-.033-.3272l4.4629-2.2314A2.6957,2.6957,0,1,0,880.9,11.5a2.6739,2.6739,0,0,0,.033.3272L876.47,14.0586a2.7,2.7,0,1,0,0,3.8828l4.4629,2.2314A2.6931,2.6931,0,1,0,883.6,17.8Z"/><path class="a" d="M915.6,17.8a2.6867,2.6867,0,0,0-1.87.7586l-4.4629-2.2314A2.6739,2.6739,0,0,0,909.3,16a2.6739,2.6739,0,0,0-.033-.3272l4.4629-2.2314A2.6957,2.6957,0,1,0,912.9,11.5a2.6739,2.6739,0,0,0,.033.3272L908.47,14.0586a2.7,2.7,0,1,0,0,3.8828l4.4629,2.2314A2.6931,2.6931,0,1,0,915.6,17.8Z"/><path class="a" d="M947.6,17.8a2.6867,2.6867,0,0,0-1.87.7586l-4.4629-2.2314A2.6739,2.6739,0,0,0,941.3,16a2.6739,2.6739,0,0,0-.033-.3272l4.4629-2.2314A2.6957,2.6957,0,1,0,944.9,11.5a2.6739,2.6739,0,0,0,.033.3272L940.47,14.0586a2.7,2.7,0,1,0,0,3.8828l4.4629,2.2314A2.6931,2.6931,0,1,0,947.6,17.8Z"/><path class="b" d="M339.6,17.8a2.6867,2.6867,0,0,0-1.87.7586L332.6127,16l5.1172-2.5586A2.6957,2.6957,0,1,0,336.9,11.5a2.6739,2.6739,0,0,0,.033.3272l-6.7355,3.3677L330.6,16l-.4025.8051,6.7355,3.3677A2.6931,2.6931,0,1,0,339.6,17.8Z"/><path class="b" d="M371.6,17.8a2.6867,2.6867,0,0,0-1.87.7586L364.6127,16l5.1172-2.5586A2.6957,2.6957,0,1,0,368.9,11.5a2.6739,2.6739,0,0,0,.033.3272l-6.7355,3.3677L362.6,16l-.4025.8051,6.7355,3.3677A2.6931,2.6931,0,1,0,371.6,17.8Z"/><path class="b" d="M19.6,17.8a2.6867,2.6867,0,0,0-1.87.7586L13.267,16.3272A2.6739,2.6739,0,0,0,13.3,16a2.6739,2.6739,0,0,0-.033-.3272L17.73,13.4414A2.6957,2.6957,0,1,0,16.9,11.5a2.6739,2.6739,0,0,0,.033.3272L12.47,14.0586a2.7,2.7,0,1,0,0,3.8828l4.4629,2.2314A2.6931,2.6931,0,1,0,19.6,17.8Z"/><path class="b" d="M51.6,17.8a2.6867,2.6867,0,0,0-1.87.7586L45.267,16.3272A2.6739,2.6739,0,0,0,45.3,16a2.6739,2.6739,0,0,0-.033-.3272L49.73,13.4414A2.6957,2.6957,0,1,0,48.9,11.5a2.6739,2.6739,0,0,0,.033.3272L44.47,14.0586a2.7,2.7,0,1,0,0,3.8828l4.4629,2.2314A2.6931,2.6931,0,1,0,51.6,17.8Z"/><path class="b" d="M83.6,17.8a2.6867,2.6867,0,0,0-1.87.7586l-4-2a2.7983,2.7983,0,0,0,0-1.117l4-2A2.6957,2.6957,0,1,0,80.9,11.5a2.6739,2.6739,0,0,0,.033.3272l-4.01,2.005a3.1861,3.1861,0,1,0,0,4.3356l4.01,2.005A2.6931,2.6931,0,1,0,83.6,17.8Z"/><path class="b" d="M115.6,17.8a2.6867,2.6867,0,0,0-1.87.7586l-3.6927-1.8464a3.52,3.52,0,0,0,0-1.4244l3.6927-1.8464A2.6957,2.6957,0,1,0,112.9,11.5a2.6739,2.6739,0,0,0,.033.3272l-3.714,1.8569a3.51,3.51,0,1,0,0,4.6318l3.714,1.8569A2.6931,2.6931,0,1,0,115.6,17.8Z"/><path class="b" d="M147.6,17.8a2.6867,2.6867,0,0,0-1.87.7586l-3.5465-1.7732a3.5254,3.5254,0,0,0,0-1.5708l3.5465-1.7732A2.6957,2.6957,0,1,0,144.9,11.5a2.6739,2.6739,0,0,0,.033.3272L141.367,13.61a3.6721,3.6721,0,1,0,0,4.78l3.566,1.7829A2.6931,2.6931,0,1,0,147.6,17.8Z"/><path class="b" d="M211.6,17.8a2.6867,2.6867,0,0,0-1.87.7586L204.6127,16l5.1172-2.5586A2.6957,2.6957,0,1,0,208.9,11.5a2.6739,2.6739,0,0,0,.033.3272l-6.7355,3.3677L202.6,16l-.4025.8051,6.7355,3.3677A2.6931,2.6931,0,1,0,211.6,17.8Z"/><circle class="a" cx="202.6" cy="16" r="3.51"/><path class="b" d="M179.6,17.8a2.6867,2.6867,0,0,0-1.87.7586L172.6127,16l5.1172-2.5586A2.6957,2.6957,0,1,0,176.9,11.5a2.6739,2.6739,0,0,0,.033.3272l-6.7355,3.3677L170.6,16l-.4025.8051,6.7355,3.3677A2.6931,2.6931,0,1,0,179.6,17.8Z"/><path class="b" d="M243.6,17.8a2.6867,2.6867,0,0,0-1.87.7586L236.6127,16l5.1172-2.5586A2.6957,2.6957,0,1,0,240.9,11.5a2.6739,2.6739,0,0,0,.033.3272l-6.7355,3.3677L234.6,16l-.4025.8051,6.7355,3.3677A2.6931,2.6931,0,1,0,243.6,17.8Z"/><path class="b" d="M275.6,17.8a2.6865,2.6865,0,0,0-1.87.7586L268.6127,16l5.1172-2.5586A2.6957,2.6957,0,1,0,272.9,11.5a2.6722,2.6722,0,0,0,.033.3271l-6.7356,3.3678L266.6,16l-.4026.8051,6.7356,3.3678a2.6722,2.6722,0,0,0-.033.3271,2.7,2.7,0,1,0,2.7-2.7Z"/><path class="b" d="M307.6,17.8a2.6867,2.6867,0,0,0-1.87.7586L300.6127,16l5.1172-2.5586A2.6957,2.6957,0,1,0,304.9,11.5a2.6739,2.6739,0,0,0,.033.3272l-6.7355,3.3677L298.6,16l-.4025.8051,6.7355,3.3677A2.6931,2.6931,0,1,0,307.6,17.8Z"/><circle class="c" cx="42.6" cy="16" r="2.7"/><circle class="d" cx="74.6" cy="16" r="3.186"/><circle class="e" cx="106.6" cy="16" r="3.51"/><circle class="f" cx="138.6" cy="16" r="3.672"/><circle class="a" cx="170.6" cy="16" r="3.672"/><circle class="a" cx="234.6" cy="16" r="3.186"/><path class="a" d="M781.3,16a2.6739,2.6739,0,0,0-.033-.3272l6.7355-3.3677-.805-1.61L780.47,14.0586a2.7,2.7,0,1,0,0,3.8828l6.7274,3.3637.805-1.61-6.7355-3.3677A2.6739,2.6739,0,0,0,781.3,16Z"/><circle class="a" cx="787.6" cy="20.5" r="2.7"/><circle class="a" cx="787.6" cy="11.5" r="2.7"/><path class="a" d="M749.3,16a2.6739,2.6739,0,0,0-.033-.3272l6.7355-3.3677-.805-1.61L748.47,14.0586a2.7,2.7,0,1,0,0,3.8828l6.7274,3.3637.805-1.61-6.7355-3.3677A2.6739,2.6739,0,0,0,749.3,16Z"/><circle class="a" cx="755.6" cy="20.5" r="2.592"/><circle class="a" cx="755.6" cy="11.5" r="2.592"/><path class="a" d="M717.3,16a2.6739,2.6739,0,0,0-.033-.3272l6.7355-3.3677-.805-1.61L716.47,14.0586a2.7,2.7,0,1,0,0,3.8828l6.7274,3.3637.805-1.61-6.7355-3.3677A2.6739,2.6739,0,0,0,717.3,16Z"/><circle class="a" cx="723.6" cy="20.5" r="2.484"/><circle class="a" cx="723.6" cy="11.5" r="2.484"/><path class="a" d="M685.3,16a2.6739,2.6739,0,0,0-.033-.3272l6.7355-3.3677-.805-1.61L684.47,14.0586a2.7,2.7,0,1,0,0,3.8828l6.7274,3.3637.805-1.61-6.7355-3.3677A2.6739,2.6739,0,0,0,685.3,16Z"/><circle class="a" cx="691.6" cy="20.5" r="2.484"/><circle class="a" cx="691.6" cy="11.5" r="2.484"/><path class="a" d="M653.3,16a2.6739,2.6739,0,0,0-.033-.3272l6.7355-3.3677-.805-1.61L652.47,14.0586a2.7,2.7,0,1,0,0,3.8828l6.7274,3.3637.805-1.61-6.7355-3.3677A2.6739,2.6739,0,0,0,653.3,16Z"/><circle class="a" cx="659.6" cy="20.5" r="2.592"/><circle class="a" cx="659.6" cy="11.5" r="2.592"/><path class="a" d="M621.3,16a2.6739,2.6739,0,0,0-.033-.3272l6.7355-3.3677-.805-1.61L620.47,14.0586a2.7,2.7,0,1,0,0,3.8828l6.7274,3.3637.805-1.61-6.7355-3.3677A2.6739,2.6739,0,0,0,621.3,16Z"/><circle class="a" cx="627.6" cy="20.5" r="2.808"/><circle class="a" cx="627.6" cy="11.5" r="2.808"/><path class="a" d="M589.3,16a2.6739,2.6739,0,0,0-.033-.3272l6.7355-3.3677-.805-1.61L588.47,14.0586a2.7,2.7,0,1,0,0,3.8828l6.7274,3.3637.805-1.61-6.7355-3.3677A2.6739,2.6739,0,0,0,589.3,16Z"/><circle class="a" cx="595.6" cy="20.5" r="3.024"/><circle class="a" cx="595.6" cy="11.5" r="3.024"/><path class="a" d="M557.3,16a2.6739,2.6739,0,0,0-.033-.3272l6.7355-3.3677-.805-1.61L556.47,14.0586a2.7,2.7,0,1,0,0,3.8828l6.7274,3.3637.805-1.61-6.7355-3.3677A2.6739,2.6739,0,0,0,557.3,16Z"/><circle class="a" cx="563.6" cy="20.5" r="3.24"/><circle class="a" cx="563.6" cy="11.5" r="3.24"/><path class="a" d="M525.3,16a2.6739,2.6739,0,0,0-.033-.3272l6.7355-3.3677-.805-1.61L524.47,14.0586a2.7,2.7,0,1,0,0,3.8828l6.7274,3.3637.805-1.61-6.7355-3.3677A2.6739,2.6739,0,0,0,525.3,16Z"/><circle class="a" cx="531.6" cy="20.5" r="3.348"/><circle class="a" cx="531.6" cy="11.5" r="3.348"/><path class="a" d="M493.3,16a2.6739,2.6739,0,0,0-.033-.3272l6.7355-3.3677-.805-1.61L492.47,14.0586a2.7,2.7,0,1,0,0,3.8828l6.7274,3.3637.805-1.61-6.7355-3.3677A2.6739,2.6739,0,0,0,493.3,16Z"/><circle class="b" cx="499.6" cy="20.5" r="3.348"/><circle class="b" cx="499.6" cy="11.5" r="3.348"/><circle class="f" cx="499.6" cy="20.5" r="3.348"/><circle class="f" cx="499.6" cy="11.5" r="3.348"/><path class="a" d="M461.3,16a2.6739,2.6739,0,0,0-.033-.3272l6.7355-3.3677-.805-1.61L460.47,14.0586a2.7,2.7,0,1,0,0,3.8828l6.7274,3.3637.805-1.61-6.7355-3.3677A2.6739,2.6739,0,0,0,461.3,16Z"/><path class="a" d="M429.3,16a2.6739,2.6739,0,0,0-.033-.3272l6.7355-3.3677-.805-1.61L428.47,14.0586a2.7,2.7,0,1,0,0,3.8828l6.7274,3.3637.805-1.61-6.7355-3.3677A2.6739,2.6739,0,0,0,429.3,16Z"/><path class="a" d="M301.3012,13.643l-.8311.4156a2.7,2.7,0,1,0,0,3.8828l.8311.4156a3.5729,3.5729,0,0,0,.8172-1.6041l-.8514-.4257A2.6739,2.6739,0,0,0,301.3,16a2.6739,2.6739,0,0,0-.033-.3272l.8514-.4257A3.5729,3.5729,0,0,0,301.3012,13.643Z"/><path class="a" d="M334.9547,12.8163,332.47,14.0586a2.7,2.7,0,1,0,0,3.8828l2.4846,1.2423a5.3735,5.3735,0,0,0,.81-1.6076l-2.4978-1.2489A2.6739,2.6739,0,0,0,333.3,16a2.6739,2.6739,0,0,0-.033-.3272l2.4978-1.2489A5.3735,5.3735,0,0,0,334.9547,12.8163Z"/><path class="a" d="M368.5862,12.0005,364.47,14.0586a2.7,2.7,0,1,0,0,3.8828L368.5862,20a7.1707,7.1707,0,0,0,.8-1.6127l-4.1194-2.06A2.6739,2.6739,0,0,0,365.3,16a2.6739,2.6739,0,0,0-.033-.3272l4.1194-2.06A7.1707,7.1707,0,0,0,368.5862,12.0005Z"/><path class="a" d="M402.2,11.1936l-5.73,2.865a2.7,2.7,0,1,0,0,3.8828l5.73,2.865a8.96,8.96,0,0,0,.8051-1.61l-5.7381-2.869A2.6739,2.6739,0,0,0,397.3,16a2.6739,2.6739,0,0,0-.033-.3272l5.7381-2.869A8.96,8.96,0,0,0,402.2,11.1936Z"/><circle class="b" cx="435.6" cy="20.5" r="3.024"/><circle class="b" cx="435.6" cy="11.5" r="3.024"/><circle class="b" cx="403.6" cy="20.5" r="2.808"/><circle class="b" cx="403.6" cy="11.5" r="2.808"/><circle class="b" cx="467.6" cy="20.5" r="3.24"/><circle class="b" cx="467.6" cy="11.5" r="3.24"/><circle class="a" cx="266.6" cy="16" r="2.7"/><circle class="d" cx="435.6" cy="20.5" r="3.024"/><circle class="d" cx="435.6" cy="11.5" r="3.024"/><circle class="c" cx="403.6" cy="20.5" r="2.808"/><circle class="c" cx="403.6" cy="11.5" r="2.808"/><circle class="e" cx="467.6" cy="20.5" r="3.24"/><circle class="e" cx="467.6" cy="11.5" r="3.24"/></svg>