<svg xmlns="http://www.w3.org/2000/svg" viewBox="0 0 960 32" width="960" height="32"><defs><style>.a{fill:#e0245e;}.b{opacity:0;}.c{fill:#8de6c2;}.d{fill:#d697c8;}.e{opacity:0.1;}.f{opacity:0.2;}.g{opacity:0.3;}.h{opacity:0.4;}.i{opacity:0.5;}.j{opacity:0.6;}.k{opacity:0.7;}.l{opacity:0.8;}.m{opacity:0.9;}.n{fill:#9677aa;}.o{fill:#7f6d8b;}.p{fill:#9772a3;}.q{fill:#986896;}.r{fill:#d55eb0;}.s{fill:#d94b95;}.t{fill:#dc3779;}.u{fill:#df255e;}.v{fill:#606060;}</style></defs><title>heart</title><path class="a" d="M564.9739,12.1233a2.93,2.93,0,0,0-4.1874,0L560,12.918l-.7866-.7975a2.93,2.93,0,0,0-4.1874,0,3.4136,3.4136,0,0,0,0,4.78L560,21.95l4.9739-5.0472A3.4136,3.4136,0,0,0,564.9739,12.1233Z"/><path class="a" d="M949.8517,11.4391a3.4465,3.4465,0,0,0-4.9263,0l-.9254.935-.9254-.9383a3.4465,3.4465,0,0,0-4.9263,0,4.0159,4.0159,0,0,0,0,5.623L944,23l5.8517-5.9379A4.0159,4.0159,0,0,0,949.8517,11.4391Z"/><path class="a" d="M917.8517,11.4391a3.4465,3.4465,0,0,0-4.9263,0l-.9254.935-.9254-.9383a3.4465,3.4465,0,0,0-4.9263,0,4.0159,4.0159,0,0,0,0,5.623L912,23l5.8517-5.9379A4.0159,4.0159,0,0,0,917.8517,11.4391Z"/><path class="a" d="M885.8517,11.4391a3.4465,3.4465,0,0,0-4.9263,0l-.9254.935-.9254-.9383a3.4465,3.4465,0,0,0-4.9263,0,4.0159,4.0159,0,0,0,0,5.623L880,23l5.8517-5.9379A4.0159,4.0159,0,0,0,885.8517,11.4391Z"/><path class="a" d="M853.8517,11.4391a3.4465,3.4465,0,0,0-4.9263,0l-.9254.935-.9254-.9383a3.4465,3.4465,0,0,0-4.9263,0,4.0159,4.0159,0,0,0,0,5.623L848,23l5.8517-5.9379A4.0159,4.0159,0,0,0,853.8517,11.4391Z"/><path class="a" d="M821.8517,11.4391a3.4465,3.4465,0,0,0-4.9263,0l-.9254.935-.9254-.9383a3.4465,3.4465,0,0,0-4.9263,0,4.0159,4.0159,0,0,0,0,5.623L816,23l5.8517-5.9379A4.0159,4.0159,0,0,0,821.8517,11.4391Z"/><path class="a" d="M789.8517,11.4391a3.4465,3.4465,0,0,0-4.9263,0l-.9254.935-.9254-.9383a3.4465,3.4465,0,0,0-4.9263,0,4.0159,4.0159,0,0,0,0,5.623L784,23l5.8517-5.9379A4.0159,4.0159,0,0,0,789.8517,11.4391Z"/><g class="b"><circle class="c" cx="798.7712" cy="14.3435" r="1.14" transform="translate(-0.014 27.8855) rotate(-2)"/><circle class="c" cx="773.0235" cy="26.0224" r="1.14" transform="translate(147.8445 481.4274) rotate(-37.9991)"/><circle class="c" cx="790.14" cy="29.5363" r="1.14" transform="translate(37.5507 272.0295) rotate(-20.0003)"/><circle class="c" cx="771.0762" cy="8.6578" r="1.14" transform="translate(332.7126 643.0637) rotate(-55.9995)"/><circle class="c" cx="786.9891" cy="1.4398" r="1.14" transform="matrix(0.2756, -0.9613, 0.9613, 0.2756, 568.677, 757.5442)"/></g><g class="b"><circle class="d" cx="797.6376" cy="18.8974" r="1.5675" transform="matrix(0.9998, -0.0175, 0.0175, 0.9998, -0.2083, 13.9236)"/><path class="d" d="M772.5154,20.7281a1.1224,1.1224,0,1,0,.0005,0Z"/><path class="d" d="M784.948,28.3835a1.5678,1.5678,0,1,0,1.993.9716A1.57,1.57,0,0,0,784.948,28.3835Z"/><path class="d" d="M775.5687,4.3554a1.5679,1.5679,0,1,0,.6449,1.0125A1.57,1.57,0,0,0,775.5687,4.3554Z"/><path class="d" d="M791.4282,2.4262a1.5675,1.5675,0,1,0-.9168,2.9979,1.5828,1.5828,0,0,0,.4876.0691,1.5679,1.5679,0,0,0,.4292-3.0669Z"/></g><path class="a" d="M757.8517,11.4391a3.4465,3.4465,0,0,0-4.9263,0l-.9254.935-.9254-.9383a3.4465,3.4465,0,0,0-4.9263,0,4.0159,4.0159,0,0,0,0,5.623L752,23l5.8517-5.9379A4.0159,4.0159,0,0,0,757.8517,11.4391Z"/><g class="e"><circle class="c" cx="766.3639" cy="13.8793" r="1.1136" transform="translate(0.8987 53.4926) rotate(-4)"/><circle class="c" cx="741.6259" cy="26.1586" r="1.1136" transform="translate(156.6859 482.8186) rotate(-39.9991)"/><circle class="c" cx="758.4556" cy="29.0055" r="1.1136" transform="translate(44.3637 286.2387) rotate(-22.0003)"/><circle class="c" cx="739.1329" cy="9.2728" r="1.1136" transform="translate(339.5828 631.1757) rotate(-57.9995)"/><circle class="c" cx="754.4217" cy="1.6838" r="1.1136" transform="translate(570.2725 733.2875) rotate(-75.9997)"/></g><g class="e"><circle class="d" cx="765.453" cy="18.6137" r="1.5408" transform="translate(-0.1833 26.7253) rotate(-2)"/><path class="d" d="M740.7938,20.8439a1.1033,1.1033,0,1,0,.0005,0Z"/><path class="d" d="M753.1441,28.1544a1.5411,1.5411,0,1,0,1.9754.9207A1.5433,1.5433,0,0,0,753.1441,28.1544Z"/><path class="d" d="M743.5138,4.7a1.5412,1.5412,0,1,0,.6512.984A1.543,1.543,0,0,0,743.5138,4.7Z"/><path class="d" d="M759.0677,2.532a1.5408,1.5408,0,1,0-.85,2.9621,1.5558,1.5558,0,0,0,.48.06,1.5412,1.5412,0,0,0,.3693-3.0216Z"/></g><path class="a" d="M725.8517,11.4391a3.4465,3.4465,0,0,0-4.9263,0l-.9254.935-.9254-.9383a3.4465,3.4465,0,0,0-4.9263,0,4.0159,4.0159,0,0,0,0,5.623L720,23l5.8517-5.9379A4.0159,4.0159,0,0,0,725.8517,11.4391Z"/><g class="f"><circle class="c" cx="733.9323" cy="13.4433" r="1.0864" transform="translate(2.6154 76.7905) rotate(-6)"/><circle class="c" cx="710.2314" cy="26.2576" r="1.0864" transform="translate(164.8496 481.9733) rotate(-41.9991)"/><circle class="c" cx="726.7369" cy="28.4603" r="1.0864" transform="translate(51.2555 298.055) rotate(-24.0003)"/><circle class="c" cx="707.2258" cy="9.8792" r="1.0864" transform="translate(345.0519 617.4119) rotate(-59.9995)"/><circle class="c" cx="721.8737" cy="1.9595" r="1.0864" transform="translate(569.8669 707.6502) rotate(-77.9997)"/></g><g class="f"><circle class="d" cx="733.2548" cy="18.3359" r="1.5132" transform="translate(0.0453 38.4007) rotate(-3)"/><path class="d" d="M709.0792,20.9485a1.5138,1.5138,0,1,0-.2229,2.1287,1.5026,1.5026,0,0,0,.2229-2.1287Z"/><path class="d" d="M721.3318,27.9153a1.5135,1.5135,0,1,0,1.9555.87A1.5156,1.5156,0,0,0,721.3318,27.9153Z"/><path class="d" d="M711.4734,5.05a1.5136,1.5136,0,1,0,.6563.9551A1.5153,1.5153,0,0,0,711.4734,5.05Z"/><path class="d" d="M726.7092,2.6541a1.5132,1.5132,0,1,0-.7835,2.9231,1.528,1.528,0,0,0,.4727.05,1.5136,1.5136,0,0,0,.3108-2.9733Z"/></g><path class="a" d="M693.8517,11.4391a3.4465,3.4465,0,0,0-4.9263,0l-.9254.935-.9254-.9383a3.4465,3.4465,0,0,0-4.9263,0,4.0159,4.0159,0,0,0,0,5.623L688,23l5.8517-5.9379A4.0159,4.0159,0,0,0,693.8517,11.4391Z"/><g class="g"><circle class="c" cx="701.478" cy="13.037" r="1.0584" transform="translate(5.0123 97.7537) rotate(-8)"/><circle class="c" cx="678.8377" cy="26.3193" r="1.0584" transform="translate(172.2326 478.939) rotate(-43.9991)"/><circle class="c" cx="694.9829" cy="27.9027" r="1.0584" transform="translate(58.1063 307.4881) rotate(-26.0003)"/><circle class="c" cx="675.3545" cy="10.4749" r="1.0584" transform="translate(349.0407 601.857) rotate(-61.9995)"/><circle class="c" cx="689.3469" cy="2.266" r="1.0584" transform="translate(567.4075 680.746) rotate(-79.9997)"/></g><g class="g"><circle class="d" cx="701.0432" cy="18.0646" r="1.4847" transform="translate(0.4476 48.9463) rotate(-4)"/><path class="d" d="M677.3713,21.0415a1.4853,1.4853,0,1,0-.1822,2.0921,1.4743,1.4743,0,0,0,.1822-2.0921Z"/><path class="d" d="M689.5105,27.6663a1.485,1.485,0,1,0,1.9333.82A1.4871,1.4871,0,0,0,689.5105,27.6663Z"/><path class="d" d="M679.4477,5.4036a1.4851,1.4851,0,1,0,.66.9257A1.4868,1.4868,0,0,0,679.4477,5.4036Z"/><path class="d" d="M694.3534,2.7926a1.4847,1.4847,0,1,0-.7186,2.8811,1.4992,1.4992,0,0,0,.4646.0412,1.485,1.485,0,0,0,.254-2.9222Z"/></g><path class="a" d="M661.8517,11.4391a3.4465,3.4465,0,0,0-4.9263,0l-.9254.935-.9254-.9383a3.4465,3.4465,0,0,0-4.9263,0,4.0159,4.0159,0,0,0,0,5.623L656,23l5.8517-5.9379A4.0159,4.0159,0,0,0,661.8517,11.4391Z"/><g class="h"><circle class="c" cx="669.0027" cy="12.6618" r="1.0296" transform="translate(7.965 116.3635) rotate(-10)"/><circle class="c" cx="647.4428" cy="26.3434" r="1.0296" transform="translate(178.7343 473.7677) rotate(-45.9991)"/><circle class="c" cx="663.1928" cy="27.3347" r="1.0296" transform="translate(64.7972 314.5533) rotate(-28.0003)"/><circle class="c" cx="643.5185" cy="11.0579" r="1.0296" transform="translate(351.4747 584.5984) rotate(-63.9995)"/><circle class="c" cx="656.8432" cy="2.6021" r="1.0296" transform="translate(562.8477 652.6903) rotate(-81.9997)"/></g><g class="h"><circle class="d" cx="668.8183" cy="17.8003" r="1.4553" transform="translate(0.9937 58.3591) rotate(-5)"/><path class="d" d="M645.67,21.1228a1.4558,1.4558,0,1,0-.1428,2.0535,1.4451,1.4451,0,0,0,.1428-2.0535Z"/><path class="d" d="M657.68,27.4077a1.4556,1.4556,0,1,0,1.9087.7708A1.4576,1.4576,0,0,0,657.68,27.4077Z"/><path class="d" d="M647.4371,5.7613a1.4557,1.4557,0,1,0,.6628.8959A1.4574,1.4574,0,0,0,647.4371,5.7613Z"/><path class="d" d="M662.0007,2.9474a1.4553,1.4553,0,1,0-.6549,2.8359,1.47,1.47,0,0,0,.456.0324,1.4556,1.4556,0,0,0,.1989-2.8683Z"/></g><path class="a" d="M629.8517,11.4391a3.4465,3.4465,0,0,0-4.9263,0l-.9254.935-.9254-.9383a3.4465,3.4465,0,0,0-4.9263,0,4.0159,4.0159,0,0,0,0,5.623L624,23l5.8517-5.9379A4.0159,4.0159,0,0,0,629.8517,11.4391Z"/><circle class="c" cx="631.366" cy="26.7583" r="1" transform="translate(71.2075 319.2673) rotate(-29.9999)"/><circle class="c" cx="636.508" cy="12.319" r="1" transform="translate(11.3485 132.6092) rotate(-12.0002)"/><circle class="c" cx="616.0444" cy="26.33" r="1" transform="translate(184.2517 466.5106) rotate(-47.9985)"/><circle class="c" cx="611.7172" cy="11.6259" r="1" transform="translate(352.2873 565.7281) rotate(-65.9999)"/><circle class="c" cx="624.3643" cy="2.9666" r="1" transform="translate(556.1527 623.6008) rotate(-84.0002)"/><g class="i"><path class="d" d="M613.8682,21.2465a1.4406,1.4406,0,1,0-.1058,2.0341,1.43,1.43,0,0,0,.1058-2.0341Z"/><path class="d" d="M625.8591,27.257a1.44,1.44,0,1,0,1.9017.73A1.4423,1.4423,0,0,0,625.8591,27.257Z"/><path class="d" d="M636.5621,16.1274a1.4394,1.4394,0,1,0,1.5832,1.2816A1.4419,1.4419,0,0,0,636.5621,16.1274Z"/><path class="d" d="M615.3516,6.0184a1.44,1.44,0,1,0,.6712.8749A1.442,1.442,0,0,0,615.3516,6.0184Z"/><path class="d" d="M629.7112,2.9829a1.44,1.44,0,1,0-.599,2.817,1.4546,1.4546,0,0,0,.4517.0242,1.44,1.44,0,0,0,.1473-2.8411Z"/></g><path class="a" d="M597.5591,11.6672a3.2742,3.2742,0,0,0-4.68,0L592,12.5554l-.8791-.8913a3.2742,3.2742,0,0,0-4.68,0,3.8152,3.8152,0,0,0,0,5.3418L592,22.65l5.5591-5.641A3.8152,3.8152,0,0,0,597.5591,11.6672Z"/><g class="j"><circle class="c" cx="603.877" cy="12.0493" r="0.96" transform="translate(15.0227 146.449) rotate(-14)"/><circle class="c" cx="584.7134" cy="26.1773" r="0.96" transform="translate(188.8071 457.261) rotate(-49.9991)"/><circle class="c" cx="599.4275" cy="26.0749" r="0.96" transform="translate(77.2683 321.6134) rotate(-32.0003)"/><circle class="c" cx="580.0691" cy="12.215" r="0.96" transform="translate(351.4412 545.4679) rotate(-67.9995)"/><circle class="c" cx="591.9129" cy="3.4834" r="0.96" transform="translate(547.1447 593.7112) rotate(-85.9997)"/></g><g class="j"><circle class="d" cx="604.3399" cy="17.2958" r="1.395" transform="translate(2.3968 73.7794) rotate(-7)"/><path class="d" d="M582.275,21.2531a1.3955,1.3955,0,1,0-.0681,1.972,1.3852,1.3852,0,0,0,.0681-1.972Z"/><path class="d" d="M593.991,26.8722a1.3953,1.3953,0,1,0,1.8543.6745A1.3972,1.3972,0,0,0,593.991,26.8722Z"/><path class="d" d="M583.4544,6.478a1.3954,1.3954,0,1,0,.6649.8361A1.397,1.397,0,0,0,583.4544,6.478Z"/><path class="d" d="M597.3119,3.2951a1.395,1.395,0,1,0-.5326,2.7386,1.4086,1.4086,0,0,0,.4379.0158,1.3953,1.3953,0,0,0,.0946-2.7544Z"/></g><g class="k"><circle class="c" cx="571.2431" cy="11.819" r="0.92" transform="translate(18.8712 157.9138) rotate(-16)"/><circle class="c" cx="553.3616" cy="25.991" r="0.92" transform="translate(192.1903 446.0385) rotate(-51.9991)"/><circle class="c" cx="567.4506" cy="25.4008" r="0.92" transform="translate(82.8105 321.6598) rotate(-34.0003)"/><circle class="c" cx="548.4466" cy="12.7739" r="0.92" transform="translate(348.8587 523.7745) rotate(-69.9995)"/><circle class="c" cx="559.4979" cy="4.0151" r="0.92" transform="translate(535.9558 563.032) rotate(-87.9997)"/></g><g class="k"><circle class="d" cx="571.9619" cy="17.0454" r="1.35" transform="translate(3.194 79.7676) rotate(-8)"/><path class="d" d="M550.6789,21.2471a1.3505,1.3505,0,1,0-.0326,1.9092,1.34,1.34,0,0,0,.0326-1.9092Z"/><path class="d" d="M562.11,26.4862a1.35,1.35,0,1,0,1.8056.6214A1.3522,1.3522,0,0,0,562.11,26.4862Z"/><path class="d" d="M551.57,6.9309a1.35,1.35,0,1,0,.6575.7978A1.3519,1.3519,0,0,0,551.57,6.9309Z"/><path class="d" d="M564.9251,3.6171a1.35,1.35,0,1,0-.469,2.6589,1.3632,1.3632,0,0,0,.424.0079,1.35,1.35,0,0,0,.045-2.6667Z"/></g><path class="a" d="M532.6814,12.3513a2.7572,2.7572,0,0,0-3.9411,0l-.74.748-.74-.7506a2.7572,2.7572,0,0,0-3.9411,0,3.2128,3.2128,0,0,0,0,4.4984L528,21.6l4.6814-4.75A3.2128,3.2128,0,0,0,532.6814,12.3513Z"/><g class="l"><circle class="c" cx="538.6082" cy="11.6279" r="0.88" transform="translate(22.7681 167.0082) rotate(-18)"/><circle class="c" cx="521.9877" cy="25.7724" r="0.88" transform="translate(194.3142 432.9155) rotate(-53.9991)"/><circle class="c" cx="535.4362" cy="24.7379" r="0.88" transform="translate(87.7204 319.4486) rotate(-36.0003)"/><circle class="c" cx="516.848" cy="13.3018" r="0.88" transform="translate(344.4781 500.7414) rotate(-71.9995)"/><circle class="c" cx="527.12" cy="4.56" r="0.88"/></g><g class="l"><circle class="d" cx="539.579" cy="16.8086" r="1.305" transform="translate(4.0137 84.6157) rotate(-9)"/><path class="d" d="M519.08,21.2287a1.3055,1.3055,0,1,0,.0007,1.8459,1.2958,1.2958,0,0,0-.0007-1.8459Z"/><path class="d" d="M530.2164,26.1a1.3052,1.3052,0,1,0,1.7556.57A1.3071,1.3071,0,0,0,530.2164,26.1Z"/><path class="d" d="M519.7,7.3767a1.3054,1.3054,0,1,0,.649.76A1.3068,1.3068,0,0,0,519.7,7.3767Z"/><path class="d" d="M532.5513,3.9486a1.305,1.305,0,1,0-.4085,2.5778,1.3177,1.3177,0,0,0,.41,0,1.3053,1.3053,0,0,0-.0015-2.5782Z"/></g><path class="a" d="M501.2665,11.8952a3.1019,3.1019,0,0,0-4.4337,0L496,12.7367l-.8328-.8444a3.1019,3.1019,0,0,0-4.4337,0,3.6144,3.6144,0,0,0,0,5.0607L496,22.3l5.2665-5.3441A3.6144,3.6144,0,0,0,501.2665,11.8952Z"/><g class="m"><circle class="c" cx="505.9741" cy="11.4758" r="0.84" transform="translate(26.589 173.7454) rotate(-20)"/><circle class="c" cx="490.59" cy="25.5228" r="0.84" transform="matrix(0.5592, -0.829, 0.829, 0.5592, 195.09, 417.9635)"/><circle class="c" cx="503.3849" cy="24.0879" r="0.84" transform="translate(91.8839 315.0235) rotate(-38.0003)"/><circle class="c" cx="485.2715" cy="13.7975" r="0.84" transform="translate(338.2455 476.466) rotate(-73.9995)"/><circle class="c" cx="494.7794" cy="5.1159" r="0.84" transform="translate(0.1228 17.2678) rotate(-1.9997)"/></g><g class="m"><circle class="d" cx="507.1917" cy="16.5855" r="1.26" transform="translate(4.8253 88.3249) rotate(-10)"/><path class="d" d="M487.4765,21.198a1.26,1.26,0,1,0,.0318,1.7819,1.2511,1.2511,0,0,0-.0318-1.7819Z"/><path class="d" d="M498.31,25.7124a1.26,1.26,0,1,0,1.7044.5208A1.262,1.262,0,0,0,498.31,25.7124Z"/><path class="d" d="M487.8418,7.8152a1.26,1.26,0,1,0,.6393.7227A1.2618,1.2618,0,0,0,487.8418,7.8152Z"/><path class="d" d="M500.1907,4.2892a1.26,1.26,0,1,0-.3509,2.4954,1.2723,1.2723,0,0,0,.3958-.0065,1.26,1.26,0,0,0-.0449-2.4889Z"/></g><path class="a" d="M470.1443,11.2111a3.6188,3.6188,0,0,0-5.1726,0L464,12.1928l-.9716-.9852a3.6188,3.6188,0,0,0-5.1726,0,4.2167,4.2167,0,0,0,0,5.9041L464,23.35l6.1443-6.2348A4.2167,4.2167,0,0,0,470.1443,11.2111Z"/><circle class="c" cx="473.343" cy="11.3623" r="0.8" transform="translate(30.2091 178.1407) rotate(-21.9995)"/><circle class="c" cx="459.1673" cy="25.2436" r="0.8" transform="translate(194.4436 401.2665) rotate(-58.0009)"/><circle class="c" cx="471.2978" cy="23.4526" r="0.8" transform="translate(95.188 308.4317) rotate(-40.0001)"/><circle class="c" cx="462.4765" cy="5.6811" r="0.8" transform="matrix(0.9976, -0.0698, 0.0698, 0.9976, 0.7306, 32.2806)"/><circle class="c" cx="453.7154" cy="14.2602" r="0.8" transform="translate(330.1136 451.048) rotate(-75.9998)"/><circle class="d" cx="474.8002" cy="16.3761" r="1.215" transform="translate(5.5987 90.897) rotate(-11)"/><path class="d" d="M455.87,21.155a1.2155,1.2155,0,1,0,.0607,1.7175,1.2064,1.2064,0,0,0-.0607-1.7175Z"/><path class="d" d="M466.39,25.3253a1.2152,1.2152,0,1,0,1.6521.4734A1.2169,1.2169,0,0,0,466.39,25.3253Z"/><path class="d" d="M455.9967,8.246a1.2153,1.2153,0,1,0,.6285.6861A1.2167,1.2167,0,0,0,455.9967,8.246Z"/><path class="d" d="M467.8433,4.6387A1.215,1.215,0,1,0,467.547,7.05a1.2269,1.2269,0,0,0,.3815-.0129,1.2153,1.2153,0,0,0-.0851-2.3989Z"/><path class="a" d="M438.7295,10.755a3.9635,3.9635,0,0,0-5.6653,0L432,11.83l-1.0642-1.079a3.9635,3.9635,0,0,0-5.6653,0,4.6183,4.6183,0,0,0,0,6.4664L432,24.05l6.7295-6.8286A4.6183,4.6183,0,0,0,438.7295,10.755Z"/><circle class="c" cx="440.7167" cy="11.2871" r="0.76" transform="translate(33.5111 180.2315) rotate(-24)"/><circle class="c" cx="427.7182" cy="24.9363" r="0.76" transform="translate(192.2579 382.8792) rotate(-59.9991)"/><circle class="c" cx="439.1758" cy="22.8337" r="0.76" transform="translate(97.5275 299.7329) rotate(-42.0003)"/><circle class="c" cx="422.1779" cy="14.6892" r="0.76" transform="translate(320.0303 424.5865) rotate(-77.9995)"/><circle class="c" cx="430.2114" cy="6.2535" r="0.76" transform="translate(1.7028 45.0011) rotate(-5.9997)"/><circle class="d" cx="442.4049" cy="16.1806" r="1.17" transform="translate(6.3035 92.3347) rotate(-12)"/><path class="d" d="M424.2586,21.1a1.17,1.17,0,1,0,.0873,1.6526,1.1618,1.1618,0,0,0-.0873-1.6526Z"/><path class="d" d="M434.4583,24.9383a1.17,1.17,0,1,0,1.5986.428A1.1719,1.1719,0,0,0,434.4583,24.9383Z"/><path class="d" d="M424.1639,8.6689a1.17,1.17,0,1,0,.6167.65A1.1717,1.1717,0,0,0,424.1639,8.6689Z"/><path class="d" d="M435.5094,4.9965a1.17,1.17,0,1,0-.2448,2.3271,1.1814,1.1814,0,0,0,.3671-.0188,1.17,1.17,0,0,0-.1223-2.3083Z"/><path class="a" d="M407.022,10.527a4.1358,4.1358,0,0,0-5.9116,0L400,11.6489l-1.11-1.1259a4.1358,4.1358,0,0,0-5.9116,0,4.8191,4.8191,0,0,0,0,6.7476L400,24.4l7.022-7.1255A4.8191,4.8191,0,0,0,407.022,10.527Z"/><circle class="c" cx="408.0971" cy="11.2497" r="0.72" transform="translate(36.3703 180.0365) rotate(-26)"/><circle class="c" cx="396.2415" cy="24.6024" r="0.72" transform="translate(188.4887 362.909) rotate(-61.999)"/><circle class="c" cx="407.0199" cy="22.2329" r="0.72" transform="translate(98.7842 288.9729) rotate(-43.9987)"/><circle class="c" cx="390.6572" cy="15.0837" r="0.72" transform="translate(307.9594 397.1853) rotate(-79.9991)"/><circle class="c" cx="397.9843" cy="6.8313" r="0.72" transform="translate(2.9235 55.4639) rotate(-8.0013)"/><circle class="d" cx="410.0062" cy="15.9991" r="1.125" transform="translate(6.9094 92.6414) rotate(-13)"/><path class="d" d="M392.6431,21.033a1.1254,1.1254,0,1,0,.1116,1.5873,1.1171,1.1171,0,0,0-.1116-1.5873Z"/><path class="d" d="M402.5133,24.552a1.1252,1.1252,0,1,0,1.5441.3847A1.1268,1.1268,0,0,0,402.5133,24.552Z"/><path class="d" d="M392.3434,9.0834a1.1253,1.1253,0,1,0,.6038.6145A1.1266,1.1266,0,0,0,392.3434,9.0834Z"/><path class="d" d="M403.1893,5.3625a1.125,1.125,0,1,0-.1963,2.2414,1.136,1.136,0,0,0,.3526-.0243,1.1253,1.1253,0,0,0-.1563-2.2171Z"/><path class="a" d="M374.4369,10.983a3.7912,3.7912,0,0,0-5.419,0L368,12.0115l-1.0179-1.0321a3.7912,3.7912,0,0,0-5.419,0,4.4175,4.4175,0,0,0,0,6.1853L368,23.7l6.4369-6.5317A4.4175,4.4175,0,0,0,374.4369,10.983Z"/><circle class="c" cx="375.486" cy="11.2495" r="0.68" transform="translate(38.6702 177.5968) rotate(-28)"/><circle class="c" cx="364.736" cy="24.2434" r="0.68" transform="translate(183.0514 341.4354) rotate(-63.9991)"/><circle class="c" cx="374.8313" cy="21.6516" r="0.68" transform="translate(98.8782 276.2438) rotate(-46.0003)"/><circle class="c" cx="359.1514" cy="15.4431" r="0.68" transform="translate(293.8713 368.9494) rotate(-81.9995)"/><circle class="c" cx="365.7953" cy="7.4124" r="0.68" transform="translate(4.2698 63.6302) rotate(-9.9997)"/><circle class="d" cx="377.6045" cy="15.8314" r="1.08" transform="translate(7.3865 91.8211) rotate(-14)"/><path class="d" d="M361.0228,20.9542a1.08,1.08,0,1,0,.1338,1.5217,1.0724,1.0724,0,0,0-.1338-1.5217Z"/><path class="d" d="M370.5557,24.1666a1.08,1.08,0,1,0,1.4885.3434A1.0817,1.0817,0,0,0,370.5557,24.1666Z"/><path class="d" d="M360.5349,9.4894a1.08,1.08,0,1,0,.59.58A1.0815,1.0815,0,0,0,360.5349,9.4894Z"/><path class="d" d="M370.883,5.7361a1.08,1.08,0,1,0-.1508,2.1547,1.0905,1.0905,0,0,0,.338-.0292,1.08,1.08,0,0,0-.1872-2.1255Z"/><path class="n" d="M336,7.6a8.4,8.4,0,1,0,8.4,8.4A8.4,8.4,0,0,0,336,7.6Zm0,16.56A8.16,8.16,0,1,1,344.16,16,8.16,8.16,0,0,1,336,24.16Z"/><path class="a" d="M341.2665,11.8952a3.1019,3.1019,0,0,0-4.4337,0L336,12.7367l-.8328-.8444a3.1019,3.1019,0,0,0-4.4337,0,3.6144,3.6144,0,0,0,0,5.0607L336,22.3l5.2665-5.3441A3.6144,3.6144,0,0,0,341.2665,11.8952Z"/><circle class="c" cx="342.8853" cy="11.2857" r="0.64" transform="translate(40.2951 172.9547) rotate(-30)"/><circle class="c" cx="333.2006" cy="23.861" r="0.64" transform="translate(175.8729 318.5473) rotate(-65.9991)"/><circle class="c" cx="342.6112" cy="21.0915" r="0.64" transform="translate(97.6869 261.5897) rotate(-48.0003)"/><circle class="c" cx="327.6587" cy="15.7668" r="0.64" transform="translate(277.7257 339.982) rotate(-83.9995)"/><circle class="c" cx="333.6441" cy="7.9949" r="0.64" transform="translate(5.6283 69.5413) rotate(-11.9997)"/><circle class="d" cx="345.2001" cy="15.6779" r="1.035" transform="matrix(0.9659, -0.2588, 0.2588, 0.9659, 7.7047, 89.8786)"/><path class="d" d="M329.3973,20.8637a1.0354,1.0354,0,1,0,.1536,1.4559,1.0277,1.0277,0,0,0-.1536-1.4559Z"/><path class="d" d="M338.5855,23.7824a1.0352,1.0352,0,1,0,1.432.3041A1.0366,1.0366,0,0,0,338.5855,23.7824Z"/><path class="d" d="M328.7382,9.8864a1.0353,1.0353,0,1,0,.5749.5457A1.0365,1.0365,0,0,0,328.7382,9.8864Z"/><path class="d" d="M338.5908,6.117a1.035,1.035,0,1,0-.1085,2.0671,1.0451,1.0451,0,0,0,.3234-.0336,1.0352,1.0352,0,0,0-.2149-2.0335Z"/><path class="o" d="M304,7.6a8.4,8.4,0,1,0,8.4,8.4A8.4,8.4,0,0,0,304,7.6Zm0,16.2a7.8,7.8,0,1,1,7.8-7.8A7.8,7.8,0,0,1,304,23.8Z"/><path class="a" d="M307.511,13.2635a2.0679,2.0679,0,0,0-2.9558,0l-.5552.561-.5552-.563a2.0679,2.0679,0,0,0-2.9558,0,2.41,2.41,0,0,0,0,3.3738L304,20.2l3.511-3.5627A2.41,2.41,0,0,0,307.511,13.2635Z"/><circle class="c" cx="310.455" cy="11.5804" r="0.6" transform="translate(35.8029 156.779) rotate(-30)"/><circle class="c" cx="301.3756" cy="23.3697" r="0.6" transform="translate(157.4416 289.1824) rotate(-65.9991)"/><circle class="c" cx="310.198" cy="20.7733" r="0.6" transform="translate(87.1987 237.3966) rotate(-48.0003)"/><circle class="c" cx="296.18" cy="15.7814" r="0.6" transform="translate(249.5233 308.6889) rotate(-83.9995)"/><circle class="c" cx="301.7914" cy="8.4952" r="0.6" transform="translate(4.8283 62.9299) rotate(-11.9997)"/><circle class="d" cx="312.7934" cy="15.5383" r="0.99" transform="matrix(0.9613, -0.2756, 0.2756, 0.9613, 7.8341, 86.8195)"/><path class="d" d="M297.7666,20.7618a.99.99,0,1,0,.1712,1.39.983.983,0,0,0-.1712-1.39Z"/><path class="d" d="M306.6026,23.4a.99.99,0,1,0,1.3746.2669A.9916.9916,0,0,0,306.6026,23.4Z"/><path class="d" d="M296.9529,10.2744a.99.99,0,1,0,.5589.5123A.9914.9914,0,0,0,296.9529,10.2744Z"/><path class="d" d="M306.3128,6.5049a.99.99,0,1,0-.0693,1.9787,1,1,0,0,0,.3087-.0376.99.99,0,0,0-.2395-1.9412Z"/><path class="n" d="M272,7.6a8.4,8.4,0,1,0,8.4,8.4A8.4,8.4,0,0,0,272,7.6Zm0,15.6a7.2,7.2,0,1,1,7.2-7.2A7.2,7.2,0,0,1,272,23.2Z"/><path class="a" d="M273.17,15.0878a.6893.6893,0,0,0-.9853,0l-.1851.187-.1851-.1877a.6893.6893,0,0,0-.9853,0,.8032.8032,0,0,0,0,1.1246L272,17.4l1.17-1.1876A.8032.8032,0,0,0,273.17,15.0878Z"/><circle class="c" cx="277.877" cy="11.6673" r="0.56" transform="translate(36.0412 149.0253) rotate(-32)"/><circle class="c" cx="269.7921" cy="22.9597" r="0.56" transform="translate(147.4345 264.5037) rotate(-67.9991)"/><circle class="c" cx="277.9367" cy="20.2505" r="0.56" transform="translate(83.7708 220.1468) rotate(-50.0003)"/><circle class="c" cx="264.6987" cy="16.0508" r="0.56" transform="translate(230.2202 278.9847) rotate(-85.9995)"/><circle class="c" cx="269.6954" cy="9.0717" r="0.56" transform="translate(5.8161 65.5131) rotate(-13.9997)"/><circle class="d" cx="280.3847" cy="15.4129" r="0.945" transform="translate(7.7452 82.65) rotate(-17)"/><path class="d" d="M266.13,20.6485a.9454.9454,0,1,0,.1866,1.3236.9383.9383,0,0,0-.1866-1.3236Z"/><path class="d" d="M274.6072,23.0189a.9452.9452,0,1,0,1.3164.2319A.9465.9465,0,0,0,274.6072,23.0189Z"/><path class="d" d="M265.1789,10.6529a.9453.9453,0,1,0,.542.48A.9463.9463,0,0,0,265.1789,10.6529Z"/><path class="d" d="M274.0492,6.8994a.945.945,0,1,0-.0331,1.89.9542.9542,0,0,0,.294-.041.9452.9452,0,0,0-.2609-1.8487Z"/><path class="p" d="M240,7.6a8.4,8.4,0,1,0,8.4,8.4A8.4,8.4,0,0,0,240,7.6ZM240,22a6,6,0,1,1,6-6A6,6,0,0,1,240,22Z"/><circle class="c" cx="245.3135" cy="11.7888" r="0.52" transform="translate(35.3472 139.193) rotate(-34)"/><circle class="c" cx="238.1766" cy="22.5302" r="0.52" transform="translate(135.5405 238.6355) rotate(-69.9991)"/><circle class="c" cx="245.6471" cy="19.7521" r="0.52" transform="translate(78.8478 201.165) rotate(-52.0003)"/><circle class="c" cx="233.226" cy="16.2837" r="0.52" transform="matrix(0.0349, -0.9994, 0.9994, 0.0349, 208.8106, 248.7991)"/><circle class="c" cx="237.6368" cy="9.6452" r="0.52" transform="translate(6.5467 65.8739) rotate(-15.9997)"/><circle class="d" cx="247.9745" cy="15.3016" r="0.9" transform="translate(7.4083 77.3772) rotate(-18)"/><path class="d" d="M234.4878,20.524a.9.9,0,1,0,.2,1.2573.8937.8937,0,0,0-.2-1.2573Z"/><path class="d" d="M242.5993,22.64a.9.9,0,1,0,1.2574.1989A.9014.9014,0,0,0,242.5993,22.64Z"/><path class="d" d="M233.4158,11.0216a.9.9,0,1,0,.524.4477A.9013.9013,0,0,0,233.4158,11.0216Z"/><path class="d" d="M241.8,7.3a.9.9,0,1,0,0,1.8.9088.9088,0,0,0,.2793-.0439A.9.9,0,0,0,241.8,7.3Z"/><path class="q" d="M208,7.6a8.4,8.4,0,1,0,8.4,8.4A8.4,8.4,0,0,0,208,7.6ZM208,19a3,3,0,1,1,3-3A3,3,0,0,1,208,19Z"/><circle class="r" cx="176" cy="16" r="8.4"/><circle class="s" cx="144" cy="16" r="6.72"/><circle class="t" cx="112" cy="16" r="5.04"/><circle class="u" cx="80" cy="16" r="1.68"/><path class="v" d="M21.8517,11.4391a3.4465,3.4465,0,0,0-4.9263,0L16,12.3741l-.9254-.9383a3.4465,3.4465,0,0,0-4.9263,0,4.0159,4.0159,0,0,0,0,5.623L16,23l5.8517-5.9379A4.0159,4.0159,0,0,0,21.8517,11.4391Z"/></svg>