<svg xmlns="http://www.w3.org/2000/svg" viewBox="0 0 960 32"><defs><style>.a,.c,.d,.e{fill:#606060;}.b,.n,.o,.p,.q,.r{fill:#3f51b5;}.c{opacity:0.7;}.d{opacity:0.45;}.e{opacity:0.2;}.f,.j,.q{opacity:0.75;}.g,.i,.p{opacity:0.9;}.h,.i,.j,.k,.l,.m{fill:#283593;}.k,.r{opacity:0.55;}.l{opacity:0.3;}.m,.o{opacity:0.05;}.n{opacity:0.3;}</style></defs><title>thumbup</title><path class="a" d="M11.1667,14.0742H9.4333a.4369.4369,0,0,0-.4333.44V21.56a.4369.4369,0,0,0,.4333.44h1.7333a.4369.4369,0,0,0,.4333-.44V14.5145A.4369.4369,0,0,0,11.1667,14.0742Z"/><path class="a" d="M21.6683,16.2758a1.3321,1.3321,0,0,0,.3231-1.0344A1.3692,1.3692,0,0,0,20.61,14.0742H17.2321a7.7129,7.7129,0,0,0,.4344-2.6035,1.8184,1.8184,0,0,0-1.8088-1.8H15.5a.4367.4367,0,0,0-.4333.44,6.2153,6.2153,0,0,1-1.126,3.6038,4.7912,4.7912,0,0,1-1.474.9676V21.29a9.9846,9.9846,0,0,0,3.5745.71h2.8347a1.3352,1.3352,0,0,0,1.2995-1.8077,1.32,1.32,0,0,0,.9581-1.2745,1.3379,1.3379,0,0,0-.0914-.4868A1.3294,1.3294,0,0,0,21.6683,16.2758Z"/><path class="b" d="M939.1667,14.0742h-1.7334a.4369.4369,0,0,0-.4333.44V21.56a.4369.4369,0,0,0,.4333.44h1.7333a.4369.4369,0,0,0,.4333-.44V14.5145A.4368.4368,0,0,0,939.1667,14.0742Z"/><path class="b" d="M949.9914,15.2414a1.3692,1.3692,0,0,0-1.3809-1.1672h-3.3784a7.7131,7.7131,0,0,0,.4344-2.6035,1.8184,1.8184,0,0,0-1.8088-1.8H943.5a.4366.4366,0,0,0-.4333.44,6.2149,6.2149,0,0,1-1.1261,3.6038,4.7921,4.7921,0,0,1-1.4739.9676V21.29a9.9842,9.9842,0,0,0,3.5744.71h2.8346a1.3352,1.3352,0,0,0,1.3-1.8077,1.32,1.32,0,0,0,.9581-1.2745,1.3382,1.3382,0,0,0-.0914-.4868,1.33,1.33,0,0,0,.6263-2.1552A1.332,1.332,0,0,0,949.9914,15.2414Z"/><path class="a" d="M43.1667,14.0742H41.4333a.4369.4369,0,0,0-.4333.44V21.56a.4369.4369,0,0,0,.4333.44h1.7333a.4369.4369,0,0,0,.4333-.44V14.5145A.4369.4369,0,0,0,43.1667,14.0742Z"/><path class="a" d="M53.6683,16.2758a1.3321,1.3321,0,0,0,.3231-1.0344A1.3692,1.3692,0,0,0,52.61,14.0742H49.2321a7.7129,7.7129,0,0,0,.4344-2.6035,1.8184,1.8184,0,0,0-1.8088-1.8H47.5a.4367.4367,0,0,0-.4333.44,6.2153,6.2153,0,0,1-1.126,3.6038,4.7912,4.7912,0,0,1-1.474.9676V21.29a9.9846,9.9846,0,0,0,3.5745.71h2.8347a1.3352,1.3352,0,0,0,1.2995-1.8077,1.32,1.32,0,0,0,.9581-1.2745,1.3379,1.3379,0,0,0-.0914-.4868A1.3294,1.3294,0,0,0,53.6683,16.2758Z"/><path class="a" d="M75.1667,14.0742H73.4333a.4369.4369,0,0,0-.4333.44V21.56a.4369.4369,0,0,0,.4333.44h1.7333a.4369.4369,0,0,0,.4333-.44V14.5145A.4369.4369,0,0,0,75.1667,14.0742Z"/><path class="a" d="M85.6683,16.2758a1.3321,1.3321,0,0,0,.3231-1.0344A1.3692,1.3692,0,0,0,84.61,14.0742H81.375A7.0425,7.0425,0,0,0,82,11.625a1.6663,1.6663,0,0,0-1.6213-1.8h-.3575a.4366.4366,0,0,0-.4333.44,6.3855,6.3855,0,0,1-1.6471,3.45,4.7912,4.7912,0,0,1-1.474.9676V21.29a9.9846,9.9846,0,0,0,3.5745.71h2.8347a1.3352,1.3352,0,0,0,1.2995-1.8077,1.32,1.32,0,0,0,.9581-1.2745,1.3379,1.3379,0,0,0-.0914-.4868A1.3294,1.3294,0,0,0,85.6683,16.2758Z"/><path class="a" d="M139.1667,14.0742h-1.7333a.4369.4369,0,0,0-.4333.44V21.56a.4369.4369,0,0,0,.4333.44h1.7333a.4369.4369,0,0,0,.4333-.44V14.5145A.4369.4369,0,0,0,139.1667,14.0742Z"/><path class="a" d="M149.6683,16.2758a1.3321,1.3321,0,0,0,.3231-1.0344,1.3692,1.3692,0,0,0-1.3809-1.1672h-2.1886a3.0612,3.0612,0,0,0,.9781-.63c.3594-.3281.8666-1.2883.3656-1.882l-.2529-.2529a.9152.9152,0,0,0-1.0372-.0187c-.8036.9122-3.554,1.8894-4.401,2.54a4.9725,4.9725,0,0,1-1.6078.8514V21.29a9.9846,9.9846,0,0,0,3.5745.71h2.8347a1.3352,1.3352,0,0,0,1.2995-1.8077,1.32,1.32,0,0,0,.9581-1.2745,1.3379,1.3379,0,0,0-.0914-.4868A1.3294,1.3294,0,0,0,149.6683,16.2758Z"/><path class="a" d="M171.1667,14.0742h-1.7333a.4369.4369,0,0,0-.4333.44V21.56a.4369.4369,0,0,0,.4333.44h1.7333a.4369.4369,0,0,0,.4333-.44V14.5145A.4369.4369,0,0,0,171.1667,14.0742Z"/><path class="a" d="M181.6683,16.2758a1.3321,1.3321,0,0,0,.3231-1.0344,1.3692,1.3692,0,0,0-1.3809-1.1672,1.7309,1.7309,0,0,0-.5193-.689,2.5965,2.5965,0,0,0-1.7736-.5343,12.6742,12.6742,0,0,0-4.0706,1.02,13.8722,13.8722,0,0,1-1.78.8123V21.29a9.9846,9.9846,0,0,0,3.5745.71h2.8347a1.3352,1.3352,0,0,0,1.2995-1.8077,1.32,1.32,0,0,0,.9581-1.2745,1.3379,1.3379,0,0,0-.0914-.4868A1.3294,1.3294,0,0,0,181.6683,16.2758Z"/><path class="a" d="M273.5831,16.8021a1.1385,1.1385,0,0,0,.3231-.9393,1.3373,1.3373,0,0,0-1.3809-1.06,1.5809,1.5809,0,0,0-.5193-.6256,2.7581,2.7581,0,0,0-1.7736-.4852,15.0994,15.0994,0,0,0-3.6482.7432.4294.4294,0,0,0-.4176-.3611h-1.7333a.4369.4369,0,0,0-.4333.44V21.56a.4369.4369,0,0,0,.4333.44h1.7333a.4271.4271,0,0,0,.2993-.1241,9.3237,9.3237,0,0,0,1.49.1241h2.8347a1.2364,1.2364,0,0,0,1.2995-1.6415,1.2218,1.2218,0,0,0,.9581-1.1573,1.1172,1.1172,0,0,0-.0914-.442A1.1685,1.1685,0,0,0,273.5831,16.8021Z"/><path class="a" d="M243.6683,16.2758a1.3321,1.3321,0,0,0,.3231-1.0344,1.3692,1.3692,0,0,0-1.3809-1.1672,1.7309,1.7309,0,0,0-.5193-.689,2.5965,2.5965,0,0,0-1.7736-.5343,12.6742,12.6742,0,0,0-4.0706,1.02,5.6522,5.6522,0,0,1-1.1964.5634.4294.4294,0,0,0-.4174-.36H232.9a.4369.4369,0,0,0-.4333.44V21.56A.4369.4369,0,0,0,232.9,22h1.7333a.4369.4369,0,0,0,.4333-.44v-.0665A8.9793,8.9793,0,0,0,238.0411,22h2.8347a1.3352,1.3352,0,0,0,1.2995-1.8077,1.32,1.32,0,0,0,.9581-1.2745,1.3379,1.3379,0,0,0-.0914-.4868A1.3294,1.3294,0,0,0,243.6683,16.2758Z"/><path class="a" d="M203.1667,14.0742h-1.7333a.4369.4369,0,0,0-.4333.44V21.56a.4369.4369,0,0,0,.4333.44h1.7333a.4369.4369,0,0,0,.4333-.44V14.5145A.4369.4369,0,0,0,203.1667,14.0742Z"/><path class="a" d="M213.2016,16.2758a1.3321,1.3321,0,0,0,.3231-1.0344,1.3692,1.3692,0,0,0-1.3809-1.1672,1.7309,1.7309,0,0,0-.5193-.689,2.5965,2.5965,0,0,0-1.7736-.5343,12.6742,12.6742,0,0,0-4.0706,1.02,13.8722,13.8722,0,0,1-1.78.8123V21.29a9.9846,9.9846,0,0,0,3.5745.71h2.8347a1.3352,1.3352,0,0,0,1.2995-1.8077,1.32,1.32,0,0,0,.9581-1.2745,1.3379,1.3379,0,0,0-.0914-.4868A1.3294,1.3294,0,0,0,213.2016,16.2758Z"/><path class="a" d="M107.1667,14.0742h-1.7333a.4369.4369,0,0,0-.4333.44V21.56a.4369.4369,0,0,0,.4333.44h1.7333a.4369.4369,0,0,0,.4333-.44V14.5145A.4369.4369,0,0,0,107.1667,14.0742Z"/><path class="a" d="M117.6683,16.2758a1.3321,1.3321,0,0,0,.3231-1.0344,1.3692,1.3692,0,0,0-1.3809-1.1672h-2.923a7.2191,7.2191,0,0,0,.6719-1.6992c.3573-1.354-.1094-2.293-.7912-2.293h-.3575a.8279.8279,0,0,0-.7411.5458c-.1868,1.0009-1.793,2.34-2.5288,3.0874a4.7912,4.7912,0,0,1-1.474.9676V21.29a9.9846,9.9846,0,0,0,3.5745.71h2.8347a1.3352,1.3352,0,0,0,1.2995-1.8077,1.32,1.32,0,0,0,.9581-1.2745,1.3379,1.3379,0,0,0-.0914-.4868A1.3294,1.3294,0,0,0,117.6683,16.2758Z"/><path class="c" d="M300.9291,17.1634a.9921.9921,0,0,0,.3231-.8606,1.32,1.32,0,0,0-1.3809-.9711,1.4718,1.4718,0,0,0-.5193-.5732,2.9266,2.9266,0,0,0-1.7736-.4445,8.267,8.267,0,0,0-.9843.0966A.4333.4333,0,0,0,296.1667,14h-1.7333a.4369.4369,0,0,0-.4333.44v7.4007c.0715.0089.15.0142.2238.022a.4165.4165,0,0,0,.21.0626h3.7032c.934,0,1.6614-.7313,1.2995-1.504a1.1492,1.1492,0,0,0,.9581-1.06.9507.9507,0,0,0-.0914-.405A1.0459,1.0459,0,0,0,300.9291,17.1634Z"/><path class="d" d="M326.6683,17.1634a.9921.9921,0,0,0,.3231-.8606,1.2851,1.2851,0,0,0-1.2737-.9554V14.44a.4369.4369,0,0,0-.4333-.44H323.551a.4288.4288,0,0,0-.41.3235l-.0232.0012v7.6011h2.1667a.4369.4369,0,0,0,.4333-.44V20.147a1.0171,1.0171,0,0,0,.4156-.7856.9507.9507,0,0,0-.0914-.405A1.0459,1.0459,0,0,0,326.6683,17.1634Z"/><path class="e" d="M354.1667,14.0743h-1.7333a.4369.4369,0,0,0-.4333.44V21.56a.4369.4369,0,0,0,.4333.44h1.7333a.4369.4369,0,0,0,.4333-.44V14.5146A.4369.4369,0,0,0,354.1667,14.0743Z"/><path class="b" d="M907.1667,14.0742h-1.7334a.4369.4369,0,0,0-.4333.44V21.56a.4369.4369,0,0,0,.4333.44h1.7333a.4369.4369,0,0,0,.4333-.44V14.5145A.4368.4368,0,0,0,907.1667,14.0742Z"/><path class="b" d="M917.9914,15.2414a1.3692,1.3692,0,0,0-1.3809-1.1672h-3.3784a7.7131,7.7131,0,0,0,.4344-2.6035,1.8184,1.8184,0,0,0-1.8088-1.8H911.5a.4366.4366,0,0,0-.4333.44,6.2149,6.2149,0,0,1-1.1261,3.6038,4.7921,4.7921,0,0,1-1.4739.9676V21.29a9.9842,9.9842,0,0,0,3.5744.71h2.8346a1.3352,1.3352,0,0,0,1.3-1.8077,1.32,1.32,0,0,0,.9581-1.2745,1.3382,1.3382,0,0,0-.0914-.4868,1.33,1.33,0,0,0,.6263-2.1552A1.332,1.332,0,0,0,917.9914,15.2414Z"/><path class="b" d="M875.1667,14.0742h-1.7334a.4369.4369,0,0,0-.4333.44V21.56a.4369.4369,0,0,0,.4333.44h1.7333a.4369.4369,0,0,0,.4333-.44V14.5145A.4368.4368,0,0,0,875.1667,14.0742Z"/><path class="b" d="M885.9914,15.2414a1.3692,1.3692,0,0,0-1.3809-1.1672h-3.3784a7.7131,7.7131,0,0,0,.4344-2.6035,1.8184,1.8184,0,0,0-1.8088-1.8H879.5a.4366.4366,0,0,0-.4333.44,6.2149,6.2149,0,0,1-1.1261,3.6038,4.7921,4.7921,0,0,1-1.4739.9676V21.29a9.9842,9.9842,0,0,0,3.5744.71h2.8346a1.3352,1.3352,0,0,0,1.3-1.8077,1.32,1.32,0,0,0,.9581-1.2745,1.3382,1.3382,0,0,0-.0914-.4868,1.33,1.33,0,0,0,.6263-2.1552A1.332,1.332,0,0,0,885.9914,15.2414Z"/><path class="b" d="M843.1667,14.0742h-1.7334a.4369.4369,0,0,0-.4333.44V21.56a.4369.4369,0,0,0,.4333.44h1.7333a.4369.4369,0,0,0,.4333-.44V14.5145A.4368.4368,0,0,0,843.1667,14.0742Z"/><path class="b" d="M853.9914,15.2414a1.3692,1.3692,0,0,0-1.3809-1.1672h-3.3784a7.7131,7.7131,0,0,0,.4344-2.6035,1.8184,1.8184,0,0,0-1.8088-1.8H847.5a.4366.4366,0,0,0-.4333.44,6.2149,6.2149,0,0,1-1.1261,3.6038,4.7921,4.7921,0,0,1-1.4739.9676V21.29a9.9842,9.9842,0,0,0,3.5744.71h2.8346a1.3352,1.3352,0,0,0,1.3-1.8077,1.32,1.32,0,0,0,.9581-1.2745,1.3382,1.3382,0,0,0-.0914-.4868,1.33,1.33,0,0,0,.6263-2.1552A1.332,1.332,0,0,0,853.9914,15.2414Z"/><path class="b" d="M811.1667,14.0742h-1.7334a.4369.4369,0,0,0-.4333.44V21.56a.4369.4369,0,0,0,.4333.44h1.7333a.4369.4369,0,0,0,.4333-.44V14.5145A.4368.4368,0,0,0,811.1667,14.0742Z"/><path class="b" d="M821.9914,15.2414a1.3692,1.3692,0,0,0-1.3809-1.1672h-3.3784a7.7131,7.7131,0,0,0,.4344-2.6035,1.8184,1.8184,0,0,0-1.8088-1.8H815.5a.4366.4366,0,0,0-.4333.44,6.2149,6.2149,0,0,1-1.1261,3.6038,4.7921,4.7921,0,0,1-1.4739.9676V21.29a9.9842,9.9842,0,0,0,3.5744.71h2.8346a1.3352,1.3352,0,0,0,1.3-1.8077,1.32,1.32,0,0,0,.9581-1.2745,1.3382,1.3382,0,0,0-.0914-.4868,1.33,1.33,0,0,0,.6263-2.1552A1.332,1.332,0,0,0,821.9914,15.2414Z"/><g class="f"><path class="b" d="M523.1667,1.0742h-1.7334a.4369.4369,0,0,0-.4333.44V8.56a.4369.4369,0,0,0,.4333.44h1.7333a.4369.4369,0,0,0,.4333-.44V1.5145A.4368.4368,0,0,0,523.1667,1.0742Z"/></g><g class="g"><path class="b" d="M555.1667,5.0742h-1.7334a.4369.4369,0,0,0-.4333.44V12.56a.4369.4369,0,0,0,.4333.44h1.7333a.4369.4369,0,0,0,.4333-.44V5.5145A.4368.4368,0,0,0,555.1667,5.0742Z"/></g><path class="b" d="M587.1667,9.0742h-1.7334a.4369.4369,0,0,0-.4333.44V16.56a.4369.4369,0,0,0,.4333.44h1.7333a.4369.4369,0,0,0,.4333-.44V9.5145A.4368.4368,0,0,0,587.1667,9.0742Z"/><path class="b" d="M597.4428,8.24a1.3692,1.3692,0,0,0-1.5357-.9544l-3.3426.49a7.7131,7.7131,0,0,0,.0519-2.639,1.8184,1.8184,0,0,0-2.0509-1.5181l-.3538.0519a.4366.4366,0,0,0-.3648.4986,6.2149,6.2149,0,0,1-.591,3.7291A4.7921,4.7921,0,0,1,587.9379,9.07l.959,6.537a9.9842,9.9842,0,0,0,3.64.1839l2.8046-.4115a1.3352,1.3352,0,0,0,1.0234-1.9772,1.32,1.32,0,0,0,.7629-1.4,1.3382,1.3382,0,0,0-.1611-.4683,1.33,1.33,0,0,0,.3069-2.2232A1.332,1.332,0,0,0,597.4428,8.24Z"/><path class="b" d="M619.1667,13.0742h-1.7334a.4369.4369,0,0,0-.4333.44V20.56a.4369.4369,0,0,0,.4333.44h1.7333a.4369.4369,0,0,0,.4333-.44V13.5145A.4368.4368,0,0,0,619.1667,13.0742Z"/><path class="b" d="M629.4428,12.24a1.3692,1.3692,0,0,0-1.5357-.9544l-3.3426.49a7.7131,7.7131,0,0,0,.0519-2.639,1.8184,1.8184,0,0,0-2.0509-1.5181l-.3538.0519a.4366.4366,0,0,0-.3648.4986,6.2149,6.2149,0,0,1-.591,3.7291,4.7921,4.7921,0,0,1-1.3179,1.1713l.959,6.537a9.9842,9.9842,0,0,0,3.64.1839l2.8046-.4115a1.3352,1.3352,0,0,0,1.0234-1.9772,1.32,1.32,0,0,0,.7629-1.4,1.3382,1.3382,0,0,0-.1611-.4683,1.33,1.33,0,0,0,.3069-2.2232A1.332,1.332,0,0,0,629.4428,12.24Z"/><path class="b" d="M683.1667,14.0608h-1.7334a.4369.4369,0,0,0-.4333.44v7.0451a.4369.4369,0,0,0,.4333.44h1.7333a.4369.4369,0,0,0,.4333-.44V14.5011A.4368.4368,0,0,0,683.1667,14.0608Z"/><path class="b" d="M694.2546,17.5689a1.3692,1.3692,0,0,0-1.17-1.3786l-3.3323-.5562a7.7131,7.7131,0,0,0,.8571-2.4965,1.8184,1.8184,0,0,0-1.4879-2.0729l-.3527-.0589a.4366.4366,0,0,0-.5.363,6.2149,6.2149,0,0,1-1.704,3.3693,4.7921,4.7921,0,0,1-1.6131.7118l-1.0877,6.5168a9.9842,9.9842,0,0,0,3.4087,1.289l2.796.4666a1.3352,1.3352,0,0,0,1.5794-1.5691,1.32,1.32,0,0,0,1.1548-1.0994,1.3382,1.3382,0,0,0-.01-.4952,1.33,1.33,0,0,0,.9726-2.0227A1.332,1.332,0,0,0,694.2546,17.5689Z"/><path class="b" d="M715.1667,14.0742h-1.7334a.4369.4369,0,0,0-.4333.44V21.56a.4369.4369,0,0,0,.4333.44h1.7333a.4369.4369,0,0,0,.4333-.44V14.5145A.4368.4368,0,0,0,715.1667,14.0742Z"/><path class="b" d="M726.154,16.2584a1.3692,1.3692,0,0,0-1.2931-1.2638l-3.37-.2438a7.7131,7.7131,0,0,0,.6212-2.5653,1.8184,1.8184,0,0,0-1.6742-1.9256l-.3566-.0258a.4366.4366,0,0,0-.464.4079,6.2149,6.2149,0,0,1-1.3832,3.5132,4.7921,4.7921,0,0,1-1.54.8587l-.4768,6.59a9.9842,9.9842,0,0,0,3.5138.9663l2.8273.2046a1.3352,1.3352,0,0,0,1.4266-1.7092,1.32,1.32,0,0,0,1.0475-1.2021,1.3382,1.3382,0,0,0-.056-.4921,1.33,1.33,0,0,0,.78-2.1043A1.332,1.332,0,0,0,726.154,16.2584Z"/><path class="b" d="M779.1667,14.0742h-1.7334a.4369.4369,0,0,0-.4333.44V21.56a.4369.4369,0,0,0,.4333.44h1.7333a.4369.4369,0,0,0,.4333-.44V14.5145A.4368.4368,0,0,0,779.1667,14.0742Z"/><path class="b" d="M789.9914,15.2414a1.3692,1.3692,0,0,0-1.3809-1.1672h-3.3784a7.7131,7.7131,0,0,0,.4344-2.6035,1.8184,1.8184,0,0,0-1.8088-1.8H783.5a.4366.4366,0,0,0-.4333.44,6.2149,6.2149,0,0,1-1.1261,3.6038,4.7921,4.7921,0,0,1-1.4739.9676V21.29a9.9842,9.9842,0,0,0,3.5744.71h2.8346a1.3352,1.3352,0,0,0,1.3-1.8077,1.32,1.32,0,0,0,.9581-1.2745,1.3382,1.3382,0,0,0-.0914-.4868,1.33,1.33,0,0,0,.6263-2.1552A1.332,1.332,0,0,0,789.9914,15.2414Z"/><path class="b" d="M651.1667,14.0742h-1.7334a.4369.4369,0,0,0-.4333.44V21.56a.4369.4369,0,0,0,.4333.44h1.7333a.4369.4369,0,0,0,.4333-.44V14.5145A.4368.4368,0,0,0,651.1667,14.0742Z"/><path class="b" d="M662.154,16.2584a1.3692,1.3692,0,0,0-1.2931-1.2638l-3.37-.2438a7.7131,7.7131,0,0,0,.6212-2.5653,1.8184,1.8184,0,0,0-1.6742-1.9256l-.3566-.0258a.4366.4366,0,0,0-.464.4079,6.2149,6.2149,0,0,1-1.3832,3.5132,4.7921,4.7921,0,0,1-1.54.8587l-.4768,6.59a9.9842,9.9842,0,0,0,3.5138.9663l2.8273.2046a1.3352,1.3352,0,0,0,1.4266-1.7092,1.32,1.32,0,0,0,1.0475-1.2021,1.3382,1.3382,0,0,0-.056-.4921,1.33,1.33,0,0,0,.78-2.1043A1.332,1.332,0,0,0,662.154,16.2584Z"/><path class="b" d="M747.1667,14.0742h-1.7334a.4369.4369,0,0,0-.4333.44V21.56a.4369.4369,0,0,0,.4333.44h1.7333a.4369.4369,0,0,0,.4333-.44V14.5145A.4368.4368,0,0,0,747.1667,14.0742Z"/><path class="b" d="M757.4428,13.24a1.3692,1.3692,0,0,0-1.5357-.9544l-3.3426.49a7.7131,7.7131,0,0,0,.0519-2.639,1.8184,1.8184,0,0,0-2.0509-1.5181l-.3538.0519a.4366.4366,0,0,0-.3648.4986,6.2149,6.2149,0,0,1-.591,3.7291,4.7921,4.7921,0,0,1-1.3179,1.1713l.9591,6.537a9.9842,9.9842,0,0,0,3.64.1838l2.8046-.4115a1.3352,1.3352,0,0,0,1.0233-1.9772,1.32,1.32,0,0,0,.7629-1.4,1.3382,1.3382,0,0,0-.1611-.4683,1.33,1.33,0,0,0,.3068-2.2233A1.332,1.332,0,0,0,757.4428,13.24Z"/><rect class="h" x="751.9284" y="6.2933" width="2" height="0.8171" rx="0.4085" ry="0.4085" transform="translate(1242.0349 -565.7672) rotate(130)"/><rect class="h" x="748.0716" y="6.2933" width="2" height="0.8171" rx="0.4085" ry="0.4085" transform="translate(272.7114 -571.428) rotate(50)"/><rect class="h" x="747" y="8.5915" width="2" height="0.8171" rx="0.4085" ry="0.4085"/><rect class="i" x="779.4288" y="5.5273" width="2" height="0.8171" rx="0.4085" ry="0.4085" transform="translate(283.326 -595.7228) rotate(50)"/><rect class="i" x="784.5712" y="5.5273" width="2" height="0.8171" rx="0.4085" ry="0.4085" transform="translate(276.0686 603.9028) rotate(-50)"/><rect class="i" x="778" y="8.5915" width="2" height="0.8171" rx="0.4085" ry="0.4085"/><rect class="j" x="810.7861" y="4.7612" width="2" height="0.8171" rx="0.4085" ry="0.4085" transform="translate(293.9403 -620.0175) rotate(50)"/><rect class="j" x="817.2139" y="4.7612" width="2" height="0.8171" rx="0.4085" ry="0.4085" transform="translate(288.3159 628.6349) rotate(-50)"/><rect class="j" x="809" y="8.5915" width="2" height="0.8171" rx="0.4085" ry="0.4085"/><rect class="k" x="842.1433" y="3.9952" width="2" height="0.8171" rx="0.4085" ry="0.4085" transform="translate(304.5547 -644.3122) rotate(50)"/><rect class="k" x="849.8567" y="3.9952" width="2" height="0.8171" rx="0.4085" ry="0.4085" transform="translate(300.5631 653.3671) rotate(-50)"/><rect class="k" x="840" y="8.5915" width="2" height="0.8171" rx="0.4085" ry="0.4085"/><rect class="l" x="873.5005" y="3.2292" width="2" height="0.8171" rx="0.4085" ry="0.4085" transform="translate(315.169 -668.6068) rotate(50)"/><rect class="l" x="882.4995" y="3.2292" width="2" height="0.8171" rx="0.4085" ry="0.4085" transform="translate(312.8103 678.0993) rotate(-50)"/><rect class="l" x="871" y="8.5915" width="2" height="0.8171" rx="0.4085" ry="0.4085"/><rect class="m" x="904.0363" y="2.0801" width="2" height="0.8171" rx="0.4085" ry="0.4085" transform="translate(325.1966 -692.4091) rotate(50)"/><rect class="m" x="914.9637" y="2.0801" width="2" height="0.8171" rx="0.4085" ry="0.4085" transform="translate(325.2872 702.5579) rotate(-50)"/><rect class="m" x="901" y="8.5915" width="2" height="0.8171" rx="0.4085" ry="0.4085"/><rect class="h" x="753" y="8.5915" width="2" height="0.8171" rx="0.4085" ry="0.4085"/><rect class="i" x="786" y="8.5915" width="2" height="0.8171" rx="0.4085" ry="0.4085"/><rect class="j" x="819" y="8.5915" width="2" height="0.8171" rx="0.4085" ry="0.4085"/><rect class="k" x="852" y="8.5915" width="2" height="0.8171" rx="0.4085" ry="0.4085"/><rect class="l" x="885" y="8.5915" width="2" height="0.8171" rx="0.4085" ry="0.4085"/><rect class="m" x="918" y="8.5915" width="2" height="0.8171" rx="0.4085" ry="0.4085"/><path class="n" d="M457,2.56a.4369.4369,0,0,0,.4333.44h1.7333a.4369.4369,0,0,0,.4333-.44V0H457Z"/><path class="o" d="M425,.56a.4369.4369,0,0,0,.4333.44h1.7333A.4369.4369,0,0,0,427.6.56V0H425Z"/><path class="n" d="M460.8969,1.6066a9.9835,9.9835,0,0,0,3.64.1839l2.8046-.4115A1.366,1.366,0,0,0,468.5351,0h-7.8739Z"/><path class="p" d="M565.4428,4.24a1.3691,1.3691,0,0,0-1.5357-.9543l-3.3426.49a7.7147,7.7147,0,0,0,.0519-2.639A1.8128,1.8128,0,0,0,559.9484,0h-2.093a.4451.4451,0,0,0-.0085.1692,6.2148,6.2148,0,0,1-.5911,3.7291A4.7921,4.7921,0,0,1,555.9379,5.07l.959,6.537a9.9835,9.9835,0,0,0,3.64.1839l2.8046-.4115a1.3352,1.3352,0,0,0,1.0234-1.9772,1.32,1.32,0,0,0,.7629-1.4,1.3376,1.3376,0,0,0-.1611-.4683,1.33,1.33,0,0,0,.3069-2.2233A1.3323,1.3323,0,0,0,565.4428,4.24Z"/><path class="q" d="M533.4428.24a1.17,1.17,0,0,0-.1187-.24h-8.153a5.0941,5.0941,0,0,1-1.2332,1.07l.959,6.537a9.9835,9.9835,0,0,0,3.64.1839l2.8046-.4115a1.3352,1.3352,0,0,0,1.0234-1.9772,1.32,1.32,0,0,0,.7629-1.4,1.3376,1.3376,0,0,0-.1611-.4683,1.33,1.33,0,0,0,.3069-2.2233A1.3323,1.3323,0,0,0,533.4428.24Z"/><path class="r" d="M492.8969,4.6066a9.9835,9.9835,0,0,0,3.64.1839l2.8046-.4115a1.3352,1.3352,0,0,0,1.0234-1.9772,1.32,1.32,0,0,0,.7629-1.4,1.3376,1.3376,0,0,0-.1611-.4683A1.2682,1.2682,0,0,0,501.5516,0h-9.3305Z"/><path class="r" d="M489,5.56a.4369.4369,0,0,0,.4333.44h1.7333a.4369.4369,0,0,0,.4333-.44V0H489Z"/></svg>