<svg xmlns="http://www.w3.org/2000/svg" viewBox="0 0 960 32"><defs><style>.a,.c,.d,.e{fill:#606060;}.b,.l,.m,.n,.o,.p{fill:#3f51b5;}.c{opacity:0.7;}.d{opacity:0.45;}.e{opacity:0.2;}.f,.g,.h,.i,.j,.k{fill:#283593;}.g,.n{opacity:0.9;}.h,.o{opacity:0.75;}.i,.p{opacity:0.55;}.j,.m{opacity:0.3;}.k,.l{opacity:0.05;}</style></defs><title>thumbup</title><path class="a" d="M10.7334,13.6879H8.8267a.4806.4806,0,0,0-.4767.4844v7.75a.4806.4806,0,0,0,.4767.4843h1.9067a.4806.4806,0,0,0,.4767-.4843v-7.75A.4806.4806,0,0,0,10.7334,13.6879Z"/><path class="a" d="M22.2851,16.11a1.4653,1.4653,0,0,0,.3554-1.1379,1.5061,1.5061,0,0,0-1.519-1.2839H17.4053a8.4841,8.4841,0,0,0,.4778-2.8638,2,2,0,0,0-1.99-1.98H15.5a.48.48,0,0,0-.4767.4844,6.8368,6.8368,0,0,1-1.2386,3.9642,5.27,5.27,0,0,1-1.6214,1.0643V21.625a10.983,10.983,0,0,0,3.9319.7812h3.1181a1.4688,1.4688,0,0,0,1.4294-1.9885,1.4519,1.4519,0,0,0,1.0539-1.402,1.4717,1.4717,0,0,0-.1006-.5354A1.4624,1.4624,0,0,0,22.2851,16.11Z"/><path class="b" d="M938.7334,13.6883h-1.9067a.4806.4806,0,0,0-.4767.4844v7.75a.4806.4806,0,0,0,.4767.4844h1.9067a.4806.4806,0,0,0,.4767-.4844v-7.75A.4805.4805,0,0,0,938.7334,13.6883Z"/><path class="b" d="M950.6405,14.9722a1.5061,1.5061,0,0,0-1.519-1.2839h-3.7162a8.4844,8.4844,0,0,0,.4778-2.8638,2,2,0,0,0-1.99-1.98H943.5a.48.48,0,0,0-.4767.4844,6.8364,6.8364,0,0,1-1.2387,3.9642,5.2713,5.2713,0,0,1-1.6213,1.0644v7.2677a10.9826,10.9826,0,0,0,3.9319.7812h3.1181a1.4687,1.4687,0,0,0,1.4295-1.9885,1.4519,1.4519,0,0,0,1.0539-1.402,1.4721,1.4721,0,0,0-.1005-.5354,1.4624,1.4624,0,0,0,.6889-2.3707A1.4652,1.4652,0,0,0,950.6405,14.9722Z"/><path class="a" d="M42.7334,13.6879H40.8267a.4806.4806,0,0,0-.4767.4844v7.75a.4806.4806,0,0,0,.4767.4843h1.9067a.4806.4806,0,0,0,.4767-.4843v-7.75A.4806.4806,0,0,0,42.7334,13.6879Z"/><path class="a" d="M54.2851,16.11a1.4653,1.4653,0,0,0,.3554-1.1379,1.5061,1.5061,0,0,0-1.519-1.2839H49.4053a8.4841,8.4841,0,0,0,.4778-2.8638,2,2,0,0,0-1.99-1.98H47.5a.48.48,0,0,0-.4767.4844,6.8368,6.8368,0,0,1-1.2386,3.9642,5.27,5.27,0,0,1-1.6214,1.0643V21.625a10.983,10.983,0,0,0,3.9319.7812h3.1181a1.4688,1.4688,0,0,0,1.4294-1.9885,1.4519,1.4519,0,0,0,1.0539-1.402,1.4717,1.4717,0,0,0-.1006-.5354A1.4624,1.4624,0,0,0,54.2851,16.11Z"/><path class="a" d="M74.7334,13.6879H72.8267a.4806.4806,0,0,0-.4767.4844v7.75a.4806.4806,0,0,0,.4767.4843h1.9067a.4806.4806,0,0,0,.4767-.4843v-7.75A.4806.4806,0,0,0,74.7334,13.6879Z"/><path class="a" d="M86.2851,16.11a1.4653,1.4653,0,0,0,.3554-1.1379,1.5061,1.5061,0,0,0-1.519-1.2839h-3.559a7.7468,7.7468,0,0,0,.6875-2.6941,1.8329,1.8329,0,0,0-1.7835-1.98h-.3933a.48.48,0,0,0-.4767.4844,7.0241,7.0241,0,0,1-1.8118,3.7945,5.27,5.27,0,0,1-1.6214,1.0643V21.625a10.983,10.983,0,0,0,3.9319.7812h3.1181a1.4688,1.4688,0,0,0,1.4294-1.9885,1.4519,1.4519,0,0,0,1.0539-1.402,1.4717,1.4717,0,0,0-.1006-.5354A1.4624,1.4624,0,0,0,86.2851,16.11Z"/><path class="a" d="M138.7334,13.6879h-1.9067a.4806.4806,0,0,0-.4767.4844v7.75a.4806.4806,0,0,0,.4767.4843h1.9067a.4806.4806,0,0,0,.4767-.4843v-7.75A.4806.4806,0,0,0,138.7334,13.6879Z"/><path class="a" d="M150.2851,16.11a1.4653,1.4653,0,0,0,.3554-1.1379,1.5061,1.5061,0,0,0-1.519-1.2839h-2.4075a3.3673,3.3673,0,0,0,1.076-.6927c.3953-.3609.9533-1.4171.4022-2.07l-.2782-.2782a1.0067,1.0067,0,0,0-1.141-.0205c-.884,1.0034-3.9094,2.0783-4.8411,2.7944a5.47,5.47,0,0,1-1.7686.9366V21.625a10.983,10.983,0,0,0,3.9319.7812h3.1181a1.4688,1.4688,0,0,0,1.4294-1.9885,1.4519,1.4519,0,0,0,1.0539-1.402,1.4717,1.4717,0,0,0-.1006-.5354A1.4624,1.4624,0,0,0,150.2851,16.11Z"/><path class="a" d="M170.7333,13.6879h-1.9067a.4806.4806,0,0,0-.4767.4844v7.75a.4806.4806,0,0,0,.4767.4843h1.9067a.4806.4806,0,0,0,.4767-.4843v-7.75A.4806.4806,0,0,0,170.7333,13.6879Z"/><path class="a" d="M182.2851,16.11a1.4653,1.4653,0,0,0,.3554-1.1379,1.5061,1.5061,0,0,0-1.519-1.2839,1.904,1.904,0,0,0-.5712-.7579,2.8562,2.8562,0,0,0-1.9509-.5877,13.9416,13.9416,0,0,0-4.4776,1.1216,15.2594,15.2594,0,0,1-1.9584.8935V21.625a10.983,10.983,0,0,0,3.9319.7812h3.1181a1.4688,1.4688,0,0,0,1.4294-1.9885,1.4519,1.4519,0,0,0,1.0539-1.402,1.4717,1.4717,0,0,0-.1006-.5354A1.4624,1.4624,0,0,0,182.2851,16.11Z"/><path class="a" d="M274.0457,16.6977a1.2523,1.2523,0,0,0,.3554-1.0333,1.471,1.471,0,0,0-1.519-1.1659,1.739,1.739,0,0,0-.5712-.6882,3.0339,3.0339,0,0,0-1.9509-.5337,16.6094,16.6094,0,0,0-4.013.8175.4724.4724,0,0,0-.4594-.3972h-1.9067a.4806.4806,0,0,0-.4767.4844v7.75a.4806.4806,0,0,0,.4767.4843h1.9067a.47.47,0,0,0,.3292-.1365,10.2561,10.2561,0,0,0,1.639.1366h3.1181a1.36,1.36,0,0,0,1.4294-1.8057,1.344,1.344,0,0,0,1.0539-1.2731,1.2289,1.2289,0,0,0-.1006-.4862A1.2854,1.2854,0,0,0,274.0457,16.6977Z"/><path class="a" d="M244.2117,16.11a1.4653,1.4653,0,0,0,.3554-1.1379,1.5061,1.5061,0,0,0-1.519-1.2839,1.904,1.904,0,0,0-.5712-.7579,2.8562,2.8562,0,0,0-1.9509-.5877,13.9416,13.9416,0,0,0-4.4776,1.1216,6.2174,6.2174,0,0,1-1.316.62.4724.4724,0,0,0-.4591-.3956h-1.9067a.4806.4806,0,0,0-.4767.4844v7.75a.4806.4806,0,0,0,.4767.4843h1.9067a.4806.4806,0,0,0,.4767-.4843v-.0731a9.8772,9.8772,0,0,0,3.2719.5575H241.14a1.4688,1.4688,0,0,0,1.4294-1.9885,1.4519,1.4519,0,0,0,1.0539-1.402,1.4717,1.4717,0,0,0-.1006-.5354A1.4624,1.4624,0,0,0,244.2117,16.11Z"/><path class="a" d="M202.7567,13.6879H200.85a.4806.4806,0,0,0-.4767.4844v7.75a.4806.4806,0,0,0,.4767.4843h1.9067a.4806.4806,0,0,0,.4767-.4843v-7.75A.4806.4806,0,0,0,202.7567,13.6879Z"/><path class="a" d="M213.7951,16.11a1.4653,1.4653,0,0,0,.3554-1.1379,1.5061,1.5061,0,0,0-1.519-1.2839,1.904,1.904,0,0,0-.5712-.7579,2.8562,2.8562,0,0,0-1.9509-.5877,13.9416,13.9416,0,0,0-4.4776,1.1216,15.2594,15.2594,0,0,1-1.9584.8935V21.625a10.983,10.983,0,0,0,3.9319.7812h3.1181a1.4688,1.4688,0,0,0,1.4294-1.9885,1.4519,1.4519,0,0,0,1.0539-1.402,1.4717,1.4717,0,0,0-.1006-.5354A1.4624,1.4624,0,0,0,213.7951,16.11Z"/><path class="a" d="M106.7334,13.6879h-1.9067a.4806.4806,0,0,0-.4767.4844v7.75a.4806.4806,0,0,0,.4767.4843h1.9067a.4806.4806,0,0,0,.4767-.4843v-7.75A.4806.4806,0,0,0,106.7334,13.6879Z"/><path class="a" d="M118.2851,16.11a1.4653,1.4653,0,0,0,.3554-1.1379,1.5061,1.5061,0,0,0-1.519-1.2839h-3.2153a7.941,7.941,0,0,0,.7391-1.8691c.393-1.4894-.12-2.5223-.87-2.5223h-.3933a.9107.9107,0,0,0-.8153.6c-.2054,1.101-1.9723,2.5736-2.7817,3.3961a5.27,5.27,0,0,1-1.6214,1.0643V21.625a10.983,10.983,0,0,0,3.9319.7812h3.1181a1.4688,1.4688,0,0,0,1.4294-1.9885,1.4519,1.4519,0,0,0,1.0539-1.402,1.4717,1.4717,0,0,0-.1006-.5354A1.4624,1.4624,0,0,0,118.2851,16.11Z"/><path class="c" d="M301.2589,17.0834a1.0913,1.0913,0,0,0,.3554-.9467,1.4519,1.4519,0,0,0-1.519-1.0682,1.619,1.619,0,0,0-.5712-.63,3.2192,3.2192,0,0,0-1.9509-.489,9.0937,9.0937,0,0,0-1.0827.1063.4766.4766,0,0,0-.47-.4517h-1.9067a.4806.4806,0,0,0-.4767.4844v8.1408c.0787.01.1652.0156.2461.0242a.4582.4582,0,0,0,.2306.0689h4.0736c1.0274,0,1.8276-.8045,1.4294-1.6544a1.2641,1.2641,0,0,0,1.0539-1.1664,1.0457,1.0457,0,0,0-.1006-.4455A1.1505,1.1505,0,0,0,301.2589,17.0834Z"/><path class="d" d="M326.8292,17.0834a1.0913,1.0913,0,0,0,.3554-.9467,1.4136,1.4136,0,0,0-1.401-1.0509V14.088a.4806.4806,0,0,0-.4767-.4843H323.4a.4717.4717,0,0,0-.4512.3558l-.0255.0013v8.3612h2.3834a.4806.4806,0,0,0,.4767-.4843V20.3654a1.1188,1.1188,0,0,0,.4572-.8642,1.0457,1.0457,0,0,0-.1006-.4455A1.1505,1.1505,0,0,0,326.8292,17.0834Z"/><path class="e" d="M354.2534,13.678h-1.9067a.4806.4806,0,0,0-.4767.4844v7.75a.4806.4806,0,0,0,.4767.4843h1.9067a.4806.4806,0,0,0,.4767-.4843v-7.75A.4806.4806,0,0,0,354.2534,13.678Z"/><path class="b" d="M586.7462,8.9517H584.84a.4806.4806,0,0,0-.4767.4844v7.75a.4806.4806,0,0,0,.4767.4843h1.9067a.4806.4806,0,0,0,.4767-.4843V9.436A.4806.4806,0,0,0,586.7462,8.9517Z"/><path class="b" d="M597.8634,9.2112a1.4655,1.4655,0,0,0,.1865-1.1774,1.5061,1.5061,0,0,0-1.6893-1.05l-3.6768.5394a8.4862,8.4862,0,0,0,.0571-2.9029,2,2,0,0,0-2.256-1.67l-.3892.0571a.48.48,0,0,0-.4013.5485,6.8363,6.8363,0,0,1-.65,4.102,5.2713,5.2713,0,0,1-1.45,1.2885l1.0549,7.1907a10.9819,10.9819,0,0,0,4.0036.2023l3.0851-.4526a1.4687,1.4687,0,0,0,1.1257-2.1749,1.4519,1.4519,0,0,0,.8392-1.54,1.4713,1.4713,0,0,0-.1772-.5152A1.4624,1.4624,0,0,0,597.8634,9.2112Z"/><path class="b" d="M618.7462,12.9517H616.84a.4806.4806,0,0,0-.4767.4844v7.75a.4806.4806,0,0,0,.4767.4843h1.9067a.4806.4806,0,0,0,.4767-.4843v-7.75A.4806.4806,0,0,0,618.7462,12.9517Z"/><path class="b" d="M629.8634,13.2112a1.4655,1.4655,0,0,0,.1865-1.1774,1.5061,1.5061,0,0,0-1.6893-1.05l-3.6768.5394a8.4862,8.4862,0,0,0,.0571-2.9029,2,2,0,0,0-2.256-1.67l-.3892.0571a.48.48,0,0,0-.4013.5485,6.8363,6.8363,0,0,1-.65,4.102,5.2713,5.2713,0,0,1-1.45,1.2885l1.0549,7.1907a10.9819,10.9819,0,0,0,4.0036.2023l3.0851-.4526a1.4687,1.4687,0,0,0,1.1257-2.1749,1.4519,1.4519,0,0,0,.8392-1.54,1.4713,1.4713,0,0,0-.1772-.5152A1.4624,1.4624,0,0,0,629.8634,13.2112Z"/><path class="b" d="M682.7264,13.6886H680.82a.4805.4805,0,0,0-.4767.4843v7.75a.4806.4806,0,0,0,.4767.4844h1.9067a.4806.4806,0,0,0,.4767-.4844v-7.75A.4805.4805,0,0,0,682.7264,13.6886Z"/><path class="b" d="M694.9232,17.5475a1.5061,1.5061,0,0,0-1.2869-1.5165l-3.6656-.6118a8.4837,8.4837,0,0,0,.9428-2.7461,2,2,0,0,0-1.6366-2.28l-.388-.0648a.48.48,0,0,0-.55.3993,6.8364,6.8364,0,0,1-1.8743,3.7062,5.2723,5.2723,0,0,1-1.7745.783l-1.1964,7.1685a10.9829,10.9829,0,0,0,3.75,1.4178l3.0756.5133a1.4687,1.4687,0,0,0,1.7373-1.726,1.4519,1.4519,0,0,0,1.27-1.2094,1.471,1.471,0,0,0-.011-.5447,1.4624,1.4624,0,0,0,1.07-2.2249A1.4656,1.4656,0,0,0,694.9232,17.5475Z"/><path class="b" d="M714.7256,13.69h-1.9067a.4806.4806,0,0,0-.4767.4844v7.75a.4806.4806,0,0,0,.4767.4843h1.9067a.4806.4806,0,0,0,.4767-.4843v-7.75A.4806.4806,0,0,0,714.7256,13.69Z"/><path class="b" d="M726.8116,16.0925a1.5061,1.5061,0,0,0-1.4224-1.39l-3.7065-.2682a8.4836,8.4836,0,0,0,.6833-2.8219,2,2,0,0,0-1.8416-2.1181l-.3924-.0284a.48.48,0,0,0-.51.4487A6.8367,6.8367,0,0,1,718.1,13.7789a5.2733,5.2733,0,0,1-1.694.9446l-.5246,7.2487a10.9826,10.9826,0,0,0,3.8652,1.0629l3.11.225a1.4687,1.4687,0,0,0,1.5692-1.88,1.452,1.452,0,0,0,1.1523-1.3223,1.4713,1.4713,0,0,0-.0616-.5413,1.4625,1.4625,0,0,0,.8583-2.3148A1.4651,1.4651,0,0,0,726.8116,16.0925Z"/><path class="b" d="M650.7256,13.69h-1.9067a.4806.4806,0,0,0-.4767.4844v7.75a.4806.4806,0,0,0,.4767.4843h1.9067a.4806.4806,0,0,0,.4767-.4843v-7.75A.4806.4806,0,0,0,650.7256,13.69Z"/><path class="b" d="M662.8116,16.0925a1.5061,1.5061,0,0,0-1.4224-1.39l-3.7065-.2682a8.4836,8.4836,0,0,0,.6833-2.8219,2,2,0,0,0-1.8416-2.1181l-.3924-.0284a.48.48,0,0,0-.51.4487A6.8367,6.8367,0,0,1,654.1,13.7789a5.2733,5.2733,0,0,1-1.694.9446l-.5246,7.2487a10.9826,10.9826,0,0,0,3.8652,1.0629l3.11.225a1.4687,1.4687,0,0,0,1.5692-1.88,1.452,1.452,0,0,0,1.1523-1.3223,1.4713,1.4713,0,0,0-.0616-.5413,1.4625,1.4625,0,0,0,.8583-2.3148A1.4651,1.4651,0,0,0,662.8116,16.0925Z"/><path class="b" d="M746.7462,13.69H744.84a.4806.4806,0,0,0-.4767.4844v7.75a.4806.4806,0,0,0,.4767.4844h1.9067a.4806.4806,0,0,0,.4767-.4844v-7.75A.4805.4805,0,0,0,746.7462,13.69Z"/><path class="b" d="M758.05,12.7716a1.5061,1.5061,0,0,0-1.6893-1.05l-3.6769.5394a8.4844,8.4844,0,0,0,.057-2.9029,2,2,0,0,0-2.256-1.67l-.3892.0571a.48.48,0,0,0-.4013.5484,6.8364,6.8364,0,0,1-.65,4.102,5.2713,5.2713,0,0,1-1.45,1.2885l1.055,7.1907a10.9826,10.9826,0,0,0,4.0036.2022l3.0851-.4526a1.4687,1.4687,0,0,0,1.1257-2.1749,1.4519,1.4519,0,0,0,.8392-1.54,1.4721,1.4721,0,0,0-.1772-.5152,1.4624,1.4624,0,0,0,.3375-2.4456A1.4652,1.4652,0,0,0,758.05,12.7716Z"/><rect class="f" x="751.9841" y="5.1306" width="2.2" height="0.8988" rx="0.4085" ry="0.4085" transform="translate(1241.4313 -567.7294) rotate(130)"/><rect class="f" x="747.7417" y="5.1306" width="2.2" height="0.8988" rx="0.4085" ry="0.4085" transform="translate(271.7699 -571.6526) rotate(50)"/><rect class="f" x="746.5629" y="7.6586" width="2.2" height="0.8988" rx="0.4085" ry="0.4085"/><rect class="f" x="753.1629" y="7.6586" width="2.2" height="0.8988" rx="0.4085" ry="0.4085"/><path class="b" d="M778.7334,13.6868h-1.9067a.4806.4806,0,0,0-.4767.4844v7.75a.4806.4806,0,0,0,.4767.4844h1.9067a.4806.4806,0,0,0,.4767-.4844v-7.75A.4805.4805,0,0,0,778.7334,13.6868Z"/><path class="b" d="M790.6405,14.9707a1.5061,1.5061,0,0,0-1.519-1.2839h-3.7162a8.4844,8.4844,0,0,0,.4778-2.8638,2,2,0,0,0-1.99-1.98H783.5a.48.48,0,0,0-.4767.4844,6.8364,6.8364,0,0,1-1.2387,3.9642,5.2713,5.2713,0,0,1-1.6213,1.0644v7.2677a10.9826,10.9826,0,0,0,3.9319.7812h3.1181a1.4687,1.4687,0,0,0,1.4295-1.9885,1.4519,1.4519,0,0,0,1.0539-1.402,1.4721,1.4721,0,0,0-.1005-.5354,1.4624,1.4624,0,0,0,.6889-2.3707A1.4652,1.4652,0,0,0,790.6405,14.9707Z"/><rect class="g" x="779.0217" y="4.2851" width="2.2" height="0.8988" rx="0.4085" ry="0.4085" transform="translate(282.296 -595.9167) rotate(50)"/><rect class="g" x="784.6783" y="4.2851" width="2.2" height="0.8988" rx="0.4085" ry="0.4085" transform="translate(277.0629 603.6323) rotate(-50)"/><rect class="g" x="777.45" y="7.6557" width="2.2" height="0.8988" rx="0.4085" ry="0.4085"/><rect class="g" x="786.25" y="7.6557" width="2.2" height="0.8988" rx="0.4085" ry="0.4085"/><path class="b" d="M810.7334,13.6879h-1.9067a.4806.4806,0,0,0-.4767.4844v7.75a.4806.4806,0,0,0,.4767.4844h1.9067a.4806.4806,0,0,0,.4767-.4844v-7.75A.4805.4805,0,0,0,810.7334,13.6879Z"/><path class="b" d="M822.6405,14.9718a1.5061,1.5061,0,0,0-1.519-1.2839h-3.7162a8.4844,8.4844,0,0,0,.4778-2.8638,2,2,0,0,0-1.99-1.98H815.5a.48.48,0,0,0-.4767.4844,6.8364,6.8364,0,0,1-1.2387,3.9642,5.2713,5.2713,0,0,1-1.6213,1.0644V21.625a10.9826,10.9826,0,0,0,3.9319.7812h3.1181a1.4687,1.4687,0,0,0,1.4295-1.9885,1.4519,1.4519,0,0,0,1.0539-1.402,1.4721,1.4721,0,0,0-.1005-.5354,1.4624,1.4624,0,0,0,.6889-2.3707A1.4652,1.4652,0,0,0,822.6405,14.9718Z"/><rect class="h" x="810.3147" y="3.4436" width="2.2" height="0.8988" rx="0.4085" ry="0.4085" transform="translate(292.8296 -620.1891) rotate(50)"/><rect class="h" x="817.3853" y="3.4436" width="2.2" height="0.8988" rx="0.4085" ry="0.4085" transform="translate(289.3909 628.3868) rotate(-50)"/><rect class="h" x="808.35" y="7.6569" width="2.2" height="0.8988" rx="0.4085" ry="0.4085"/><rect class="h" x="819.35" y="7.6569" width="2.2" height="0.8988" rx="0.4085" ry="0.4085"/><path class="b" d="M842.7834,13.6869h-1.9067a.4806.4806,0,0,0-.4767.4844v7.75a.4806.4806,0,0,0,.4767.4844h1.9067a.4806.4806,0,0,0,.4767-.4844v-7.75A.4805.4805,0,0,0,842.7834,13.6869Z"/><path class="b" d="M854.6905,14.9708a1.5061,1.5061,0,0,0-1.519-1.2839h-3.7162a8.4844,8.4844,0,0,0,.4778-2.8638,2,2,0,0,0-1.99-1.98H847.55a.48.48,0,0,0-.4767.4844,6.8364,6.8364,0,0,1-1.2387,3.9642,5.2713,5.2713,0,0,1-1.6213,1.0644V21.624a10.9826,10.9826,0,0,0,3.9319.7812h3.1181a1.4687,1.4687,0,0,0,1.4295-1.9885,1.4519,1.4519,0,0,0,1.0539-1.402,1.4721,1.4721,0,0,0-.1005-.5354,1.4624,1.4624,0,0,0,.6889-2.3707A1.4652,1.4652,0,0,0,854.6905,14.9708Z"/><rect class="i" x="841.6576" y="2.5999" width="2.2" height="0.8988" rx="0.4085" ry="0.4085" transform="translate(303.3794 -644.5005) rotate(50)"/><rect class="i" x="850.1424" y="2.5999" width="2.2" height="0.8988" rx="0.4085" ry="0.4085" transform="translate(301.7384 653.1788) rotate(-50)"/><rect class="i" x="839.3" y="7.6558" width="2.2" height="0.8988" rx="0.4085" ry="0.4085"/><rect class="i" x="852.5" y="7.6558" width="2.2" height="0.8988" rx="0.4085" ry="0.4085"/><path class="b" d="M874.7834,13.69h-1.9067a.4806.4806,0,0,0-.4767.4844v7.75a.4806.4806,0,0,0,.4767.4844h1.9067a.4806.4806,0,0,0,.4767-.4844v-7.75A.4805.4805,0,0,0,874.7834,13.69Z"/><path class="b" d="M886.6905,14.9738a1.5061,1.5061,0,0,0-1.519-1.2839h-3.7162a8.4844,8.4844,0,0,0,.4778-2.8638,2,2,0,0,0-1.99-1.98H879.55a.48.48,0,0,0-.4767.4844,6.8364,6.8364,0,0,1-1.2387,3.9642,5.2713,5.2713,0,0,1-1.6213,1.0644V21.627a10.9826,10.9826,0,0,0,3.9319.7812h3.1181a1.4687,1.4687,0,0,0,1.4295-1.9885,1.4519,1.4519,0,0,0,1.0539-1.402,1.4721,1.4721,0,0,0-.1005-.5354,1.4624,1.4624,0,0,0,.6889-2.3707A1.4652,1.4652,0,0,0,886.6905,14.9738Z"/><rect class="j" x="872.9505" y="1.7603" width="2.2" height="0.8988" rx="0.4085" ry="0.4085" transform="translate(313.9144 -668.7722) rotate(50)"/><rect class="j" x="882.8495" y="1.7603" width="2.2" height="0.8988" rx="0.4085" ry="0.4085" transform="translate(314.065 677.9339) rotate(-50)"/><rect class="j" x="870.2" y="7.6588" width="2.2" height="0.8988" rx="0.4085" ry="0.4085"/><rect class="j" x="885.6" y="7.6588" width="2.2" height="0.8988" rx="0.4085" ry="0.4085"/><path class="b" d="M906.8334,13.6885h-1.9067a.4806.4806,0,0,0-.4767.4844v7.75a.4806.4806,0,0,0,.4767.4844h1.9067a.4806.4806,0,0,0,.4767-.4844v-7.75A.4805.4805,0,0,0,906.8334,13.6885Z"/><path class="b" d="M918.7405,14.9724a1.5061,1.5061,0,0,0-1.519-1.2839h-3.7162a8.4844,8.4844,0,0,0,.4778-2.8638,2,2,0,0,0-1.99-1.98H911.6a.48.48,0,0,0-.4767.4844,6.8364,6.8364,0,0,1-1.2387,3.9642,5.2713,5.2713,0,0,1-1.6213,1.0644v7.2677a10.9826,10.9826,0,0,0,3.9319.7812h3.1181a1.4687,1.4687,0,0,0,1.4295-1.9885,1.4519,1.4519,0,0,0,1.0539-1.402,1.4721,1.4721,0,0,0-.1005-.5354,1.4624,1.4624,0,0,0,.6889-2.3707A1.4652,1.4652,0,0,0,918.7405,14.9724Z"/><rect class="k" x="903.3899" y="0.495" width="2.2" height="0.8988" rx="0.4085" ry="0.4085" transform="translate(323.8184 -692.5422) rotate(50)"/><rect class="k" x="915.4101" y="0.495" width="2.2" height="0.8988" rx="0.4085" ry="0.4085" transform="translate(326.6653 702.4248) rotate(-50)"/><rect class="k" x="900.05" y="7.6575" width="2.2" height="0.8988" rx="0.4085" ry="0.4085"/><rect class="k" x="918.75" y="7.6575" width="2.2" height="0.8988" rx="0.4085" ry="0.4085"/><path class="l" d="M425,.56a.4369.4369,0,0,0,.4333.44h1.7333A.4369.4369,0,0,0,427.6.56V0H425Z"/><path class="m" d="M456.4232,2.6656A.4806.4806,0,0,0,456.9,3.15h1.9067a.4806.4806,0,0,0,.4767-.4843V-.15h-2.86Z"/><path class="m" d="M460.4505-.15l.2593,1.7672a10.9819,10.9819,0,0,0,4.0036.2023l3.0851-.4526A1.5026,1.5026,0,0,0,469.1118-.15Z"/><path class="n" d="M554.7462,4.9316H552.84a.4806.4806,0,0,0-.4767.4844v7.75a.4806.4806,0,0,0,.4767.4843h1.9067a.4806.4806,0,0,0,.4767-.4843V5.416A.4806.4806,0,0,0,554.7462,4.9316Z"/><path class="n" d="M565.8634,5.1911a1.4655,1.4655,0,0,0,.1865-1.1774,1.5061,1.5061,0,0,0-1.6893-1.05l-3.6768.5394A8.4862,8.4862,0,0,0,560.7409.6a1.994,1.994,0,0,0-.7348-1.25h-2.3023a.49.49,0,0,0-.0094.1861,6.8363,6.8363,0,0,1-.65,4.102,5.2713,5.2713,0,0,1-1.45,1.2885l1.0549,7.1907a10.9819,10.9819,0,0,0,4.0036.2023l3.0851-.4526a1.4687,1.4687,0,0,0,1.1257-2.1749,1.4519,1.4519,0,0,0,.8392-1.54,1.4713,1.4713,0,0,0-.1772-.5152A1.4624,1.4624,0,0,0,565.8634,5.1911Z"/><path class="o" d="M522.7462.7316H520.84a.4806.4806,0,0,0-.4767.4844v7.75a.4806.4806,0,0,0,.4767.4843h1.9067a.4806.4806,0,0,0,.4767-.4843V1.216A.4806.4806,0,0,0,522.7462.7316Z"/><path class="o" d="M533.8634.9911A1.4655,1.4655,0,0,0,534.05-.1863a1.2865,1.2865,0,0,0-.1306-.2637h-8.9682A5.6035,5.6035,0,0,1,523.5946.7265l1.0549,7.1907a10.9819,10.9819,0,0,0,4.0036.2023l3.0851-.4526a1.4687,1.4687,0,0,0,1.1257-2.1749,1.4519,1.4519,0,0,0,.8392-1.54,1.4713,1.4713,0,0,0-.1772-.5152A1.4624,1.4624,0,0,0,533.8634.9911Z"/><path class="p" d="M502.1792-.3H491.9157l.7434,5.0672a10.9819,10.9819,0,0,0,4.0036.2023l3.0851-.4526a1.4687,1.4687,0,0,0,1.1257-2.1749,1.4519,1.4519,0,0,0,.8392-1.54,1.4713,1.4713,0,0,0-.1772-.5152A1.3951,1.3951,0,0,0,502.1792-.3Z"/><path class="p" d="M488.3724,5.8156a.4806.4806,0,0,0,.4767.4843h1.9067a.4806.4806,0,0,0,.4767-.4843V-.3h-2.86Z"/></svg>