<svg xmlns="http://www.w3.org/2000/svg" viewBox="0 0 960 32"><defs><style>.a{fill:#606060;}.b,.c,.d,.e,.f,.g,.h,.j,.k,.l{fill:#e57373;}.b{opacity:0.2;}.c{opacity:0.5;}.d{opacity:0.65;}.f{opacity:0.96;}.g{opacity:0.9;}.h{opacity:0.8;}.i{fill:#f44336;}.j{opacity:0.75;}.k{opacity:0.55;}.l{opacity:0.3;}</style></defs><title>bookmark-01</title><path class="a" d="M21,23l-5-4-5,4V12.0026A2.0026,2.0026,0,0,1,13.0026,10h5.9949A2.0026,2.0026,0,0,1,21,12.0026Z"/><circle class="b" cx="80" cy="16" r="1"/><circle class="c" cx="112" cy="16" r="5"/><circle class="d" cx="144" cy="16" r="7"/><path class="e" d="M176,8a8,8,0,1,0,8,8A8,8,0,0,0,176,8Zm0,9a1,1,0,1,1,1-1A1,1,0,0,1,176,17Z"/><path class="e" d="M208,8a8,8,0,1,0,8,8A8,8,0,0,0,208,8Zm0,10.8a2.8,2.8,0,1,1,2.8-2.8A2.8,2.8,0,0,1,208,18.8Z"/><path class="e" d="M240,8a8,8,0,1,0,8,8A8,8,0,0,0,240,8Zm0,12.6a4.6,4.6,0,1,1,4.6-4.6A4.6,4.6,0,0,1,240,20.6Z"/><path class="f" d="M272,8a8,8,0,1,0,8,8A8,8,0,0,0,272,8Zm0,14a6,6,0,1,1,6-6A6,6,0,0,1,272,22Z"/><path class="g" d="M304,8a8,8,0,1,0,8,8A8,8,0,0,0,304,8Zm0,15a7,7,0,1,1,7-7A7,7,0,0,1,304,23Z"/><path class="h" d="M336,8a8,8,0,1,0,8,8A8,8,0,0,0,336,8Zm0,15.6a7.6,7.6,0,1,1,7.6-7.6A7.6,7.6,0,0,1,336,23.6Z"/><path class="i" d="M339,20.4,336,18l-3,2.4V13.8015A1.2015,1.2015,0,0,1,334.2015,12.6h3.5969A1.2015,1.2015,0,0,1,339,13.8015Z"/><path class="i" d="M305.5,18.45l-1.5-1.2-1.5,1.2V15.1508a.6008.6008,0,0,1,.6008-.6008h1.7985a.6008.6008,0,0,1,.6008.6008Z"/><path class="i" d="M272.5,17.15l-.5-.4-.5.4v-1.1a.2.2,0,0,1,.2-.2H272.3a.2.2,0,0,1,.2.2Z"/><path class="i" d="M372.75,22.675l-4.75-3.8-4.75,3.8V12.2274a1.9024,1.9024,0,0,1,1.9024-1.9024h5.6951a1.9024,1.9024,0,0,1,1.9024,1.9024Z"/><path class="i" d="M406,24.3l-6-4.8-6,4.8V11.1031A2.4031,2.4031,0,0,1,396.4031,8.7h7.1938A2.4031,2.4031,0,0,1,406,11.1031Z"/><path class="i" d="M437.6,23.78,432,19.3l-5.6,4.48V11.4629A2.2429,2.2429,0,0,1,428.6429,9.22h6.7143A2.2429,2.2429,0,0,1,437.6,11.4629Z"/><path class="i" d="M469.25,23.325l-5.25-4.2-5.25,4.2V11.7777a2.1027,2.1027,0,0,1,2.1027-2.1027h6.2946a2.1027,2.1027,0,0,1,2.1027,2.1027Z"/><path class="i" d="M500.5,22.35l-4.5-3.6-4.5,3.6V12.4523a1.8023,1.8023,0,0,1,1.8023-1.8023h5.3954A1.8023,1.8023,0,0,1,500.5,12.4523Z"/><path class="i" d="M532,21.7l-4-3.2-4,3.2V12.9021A1.6021,1.6021,0,0,1,525.6021,11.3h4.7959A1.6021,1.6021,0,0,1,532,12.9021Z"/><path class="i" d="M564.35,22.155,560,18.675l-4.35,3.48V12.5872a1.7422,1.7422,0,0,1,1.7422-1.7422h5.2155a1.7422,1.7422,0,0,1,1.7422,1.7422Z"/><path class="i" d="M596.75,22.675l-4.75-3.8-4.75,3.8V12.2274a1.9024,1.9024,0,0,1,1.9024-1.9024h5.6951a1.9024,1.9024,0,0,1,1.9024,1.9024Z"/><path class="i" d="M629,23l-5-4-5,4V12.0026A2.0026,2.0026,0,0,1,621.0026,10h5.9949A2.0026,2.0026,0,0,1,629,12.0026Z"/><path class="i" d="M661,23l-5-4-5,4V12.0026A2.0026,2.0026,0,0,1,653.0026,10h5.9949A2.0026,2.0026,0,0,1,661,12.0026Z"/><path class="i" d="M693,23l-5-4-5,4V12.0026A2.0026,2.0026,0,0,1,685.0026,10h5.9949A2.0026,2.0026,0,0,1,693,12.0026Z"/><path class="i" d="M725,23l-5-4-5,4V12.0026A2.0026,2.0026,0,0,1,717.0026,10h5.9949A2.0026,2.0026,0,0,1,725,12.0026Z"/><path class="i" d="M757,23l-5-4-5,4V12.0026A2.0026,2.0026,0,0,1,749.0026,10h5.9949A2.0026,2.0026,0,0,1,757,12.0026Z"/><path class="i" d="M789,23l-5-4-5,4V12.0026A2.0026,2.0026,0,0,1,781.0026,10h5.9949A2.0026,2.0026,0,0,1,789,12.0026Z"/><path class="i" d="M821,23l-5-4-5,4V12.0026A2.0026,2.0026,0,0,1,813.0026,10h5.9949A2.0026,2.0026,0,0,1,821,12.0026Z"/><path class="i" d="M853,23l-5-4-5,4V12.0026A2.0026,2.0026,0,0,1,845.0026,10h5.9949A2.0026,2.0026,0,0,1,853,12.0026Z"/><path class="i" d="M885,23l-5-4-5,4V12.0026A2.0026,2.0026,0,0,1,877.0026,10h5.9949A2.0026,2.0026,0,0,1,885,12.0026Z"/><path class="i" d="M917,23l-5-4-5,4V12.0026A2.0026,2.0026,0,0,1,909.0026,10h5.9949A2.0026,2.0026,0,0,1,917,12.0026Z"/><path class="i" d="M949,23l-5-4-5,4V12.0026A2.0026,2.0026,0,0,1,941.0026,10h5.9949A2.0026,2.0026,0,0,1,949,12.0026Z"/><rect class="e" x="431" y="8" width="2" height="2" rx="0.5" ry="0.5" transform="translate(120.1659 308.1062) rotate(-45)"/><rect class="e" x="424.9378" y="11.5" width="2" height="2" rx="0.5" ry="0.5" transform="translate(11.275 110.653) rotate(-14.9981)"/><path class="e" d="M425.4378,18.5h1a.5.5,0,0,1,.5.5v1a.5.5,0,0,1-.5.5h-1a.5.5,0,0,1-.5-.5V19a.5.5,0,0,1,.5-.5Z" transform="translate(296.875 425.8816) rotate(-75.0019)"/><rect class="e" x="431" y="22" width="2" height="2" rx="0.5" ry="0.5" transform="translate(110.2664 312.2067) rotate(-45)"/><rect class="e" x="437.0622" y="18.5" width="2" height="2" rx="0.5" ry="0.5" transform="translate(9.8765 114.029) rotate(-14.9981)"/><rect class="e" x="437.0622" y="11.5" width="2" height="2" rx="0.5" ry="0.5" transform="translate(312.5985 432.3971) rotate(-74.9985)"/><rect class="e" x="462.9968" y="7.0168" width="2.0064" height="2.0064" rx="0.5016" ry="0.5016" transform="translate(103.4002 300.1298) rotate(-40)"/><rect class="e" x="456.0859" y="11.0068" width="2.0064" height="2.0064" rx="0.5016" ry="0.5016" transform="translate(4.8565 79.5401) rotate(-9.9981)"/><rect class="e" x="456.0859" y="18.9868" width="2.0064" height="2.0064" rx="0.5016" ry="0.5016" transform="translate(281.985 442.6821) rotate(-70.0019)"/><rect class="e" x="462.9968" y="22.9768" width="2.0064" height="2.0064" rx="0.5016" ry="0.5016" transform="translate(93.1413 303.8637) rotate(-40)"/><rect class="e" x="469.9077" y="18.9868" width="2.0064" height="2.0064" rx="0.5016" ry="0.5016" transform="translate(3.6809 82.061) rotate(-9.9981)"/><rect class="e" x="469.9077" y="11.0068" width="2.0064" height="2.0064" rx="0.5016" ry="0.5016" transform="translate(298.5529 450.4094) rotate(-69.9985)"/><path class="e" d="M495.4984,6.1067h1.0033a.5016.5016,0,0,1,.5016.5016V7.6116a.5017.5017,0,0,1-.5017.5017h-1.0033a.5017.5017,0,0,1-.5017-.5017V6.6084a.5017.5017,0,0,1,.5017-.5017Z" transform="translate(85.6225 285.7797) rotate(-35)"/><path class="e" d="M487.7994,10.5517h1.0033a.5017.5017,0,0,1,.5017.5017v1.0033a.5016.5016,0,0,1-.5016.5016h-1.0033a.5017.5017,0,0,1-.5017-.5017V11.0534a.5017.5017,0,0,1,.5017-.5017Z" transform="translate(0.85 42.586) rotate(-4.9981)"/><path class="e" d="M487.7994,19.4417h1.0033a.5017.5017,0,0,1,.5017.5017v1.0033a.5016.5016,0,0,1-.5016.5016h-1.0033a.5017.5017,0,0,1-.5017-.5017V19.9433a.5017.5017,0,0,1,.5017-.5017Z" transform="translate(263.4211 454.3631) rotate(-65.0019)"/><path class="e" d="M495.4984,23.8867h1.0033a.5017.5017,0,0,1,.5017.5017v1.0033a.5017.5017,0,0,1-.5017.5017h-1.0033a.5016.5016,0,0,1-.5016-.5016V24.3884A.5017.5017,0,0,1,495.4984,23.8867Z" transform="translate(75.4243 288.9952) rotate(-35)"/><path class="e" d="M503.1973,19.4417h1.0033a.5016.5016,0,0,1,.5016.5016v1.0034a.5016.5016,0,0,1-.5016.5016h-1.0034a.5016.5016,0,0,1-.5016-.5016V19.9433a.5017.5017,0,0,1,.5017-.5017Z" transform="translate(0.134 43.9613) rotate(-4.9981)"/><path class="e" d="M503.1973,10.5517h1.0033a.5016.5016,0,0,1,.5016.5016v1.0034a.5016.5016,0,0,1-.5016.5016h-1.0033a.5017.5017,0,0,1-.5017-.5017V11.0534a.5017.5017,0,0,1,.5017-.5017Z" transform="translate(280.3426 463.1722) rotate(-64.9985)"/><rect class="e" x="526.9992" y="5.2692" width="2.0016" height="2.0016" rx="0.5004" ry="0.5004" transform="matrix(0.866, -0.5, 0.5, 0.866, 67.6036, 264.84)"/><path class="e" d="M519.0731,10.1342h1.0009a.5.5,0,0,1,.5.5v1.0008a.5.5,0,0,1-.5.5h-1.0008a.5.5,0,0,1-.5-.5V10.6345a.5.5,0,0,1,.5-.5Z"/><rect class="e" x="518.5728" y="19.8642" width="2.0016" height="2.0016" rx="0.5004" ry="0.5004" transform="translate(241.7318 460.4056) rotate(-60.0019)"/><rect class="e" x="526.9992" y="24.7292" width="2.0016" height="2.0016" rx="0.5004" ry="0.5004" transform="translate(57.8736 267.4472) rotate(-30)"/><path class="e" d="M535.9261,19.8642h1.0008a.5.5,0,0,1,.5.5v1.0009a.5.5,0,0,1-.5.5H535.926a.5.5,0,0,1-.5-.5V20.3646a.5.5,0,0,1,.5-.5Z"/><path class="e" d="M535.9261,10.1342h1.0008a.5.5,0,0,1,.5.5v1.0008a.5.5,0,0,1-.5.5H535.926a.5.5,0,0,1-.5-.5V10.6346a.5.5,0,0,1,.5-.5Z" transform="translate(258.5582 470.1193) rotate(-59.9985)"/><rect class="e" x="558.995" y="4.495" width="2.01" height="2.01" rx="0.5025" ry="0.5025" transform="translate(50.1432 237.1815) rotate(-25)"/><path class="e" d="M550.4042,9.745h1.0051a.5025.5025,0,0,1,.5025.5025v1.005a.5025.5025,0,0,1-.5025.5025h-1.0049a.5025.5025,0,0,1-.5025-.5025v-1.005a.5024.5024,0,0,1,.5024-.5024Z" transform="translate(492.1647 558.6215) rotate(-84.9981)"/><path class="e" d="M550.4042,20.245h1.005a.5025.5025,0,0,1,.5025.5025v1.0049a.5025.5025,0,0,1-.5025.5025h-1.005a.5025.5025,0,0,1-.5025-.5025V20.7474A.5024.5024,0,0,1,550.4042,20.245Z" transform="translate(217.5272 460.3489) rotate(-55.0019)"/><rect class="e" x="558.995" y="25.495" width="2.01" height="2.01" rx="0.5025" ry="0.5025" transform="translate(41.2683 239.1491) rotate(-25)"/><path class="e" d="M568.5908,20.245h1.005a.5024.5024,0,0,1,.5024.5024v1.0051a.5025.5025,0,0,1-.5025.5025h-1.005a.5025.5025,0,0,1-.5025-.5025V20.7475a.5025.5025,0,0,1,.5025-.5025Z" transform="translate(498.3056 586.3233) rotate(-84.9981)"/><path class="e" d="M568.5907,9.745h1.0051a.5025.5025,0,0,1,.5025.5025v1.005a.5025.5025,0,0,1-.5025.5025h-1.0051a.5024.5024,0,0,1-.5024-.5024V10.2475a.5025.5025,0,0,1,.5025-.5025Z" transform="matrix(0.5736, -0.8191, 0.8191, 0.5736, 233.8571, 470.7493)"/><rect class="e" x="591" y="3.8" width="2" height="2" rx="0.5" ry="0.5" transform="translate(34.0603 202.7654) rotate(-20)"/><path class="e" d="M581.8,9.4h1a.5.5,0,0,1,.5.5v1a.5.5,0,0,1-.5.5h-1a.5.5,0,0,1-.5-.5v-1a.5.5,0,0,1,.5-.5Z" transform="translate(470.9241 582.0444) rotate(-79.9981)"/><rect class="e" x="581.3005" y="20.6" width="2" height="2" rx="0.5" ry="0.5" transform="translate(191.4728 453.7968) rotate(-50.0019)"/><rect class="e" x="591" y="26.2" width="2" height="2" rx="0.5" ry="0.5" transform="translate(26.399 204.1163) rotate(-20)"/><rect class="e" x="600.6995" y="20.6" width="2" height="2" rx="0.5" ry="0.5" transform="translate(475.9241 610.4033) rotate(-79.9981)"/><path class="e" d="M601.2,9.4h1a.5.5,0,0,1,.5.5v1a.5.5,0,0,1-.5.5h-1a.5.5,0,0,1-.5-.5v-1A.5.5,0,0,1,601.2,9.4Z" transform="translate(206.956 464.6334) rotate(-49.9985)"/><rect class="e" x="623.0874" y="3.2574" width="1.8252" height="1.8252" rx="0.4563" ry="0.4563" transform="translate(20.183 161.6452) rotate(-15)"/><rect class="e" x="612.8423" y="9.1724" width="1.8252" height="1.8252" rx="0.4563" ry="0.4563" transform="translate(445.1425 600.3109) rotate(-74.9981)"/><rect class="e" x="612.8423" y="21.0024" width="1.8252" height="1.8252" rx="0.4563" ry="0.4563" transform="translate(164.2823 440.424) rotate(-45.0019)"/><rect class="e" x="623.0874" y="26.9174" width="1.8252" height="1.8252" rx="0.4563" ry="0.4563" transform="translate(14.0594 162.4514) rotate(-15)"/><path class="e" d="M633.7888,21.0024h.9126a.4562.4562,0,0,1,.4562.4562v.9127a.4563.4563,0,0,1-.4563.4563h-.9126a.4563.4563,0,0,1-.4563-.4563v-.9126a.4563.4563,0,0,1,.4563-.4563Z" transform="matrix(0.2589, -0.9659, 0.9659, 0.2589, 448.902, 628.8705)"/><path class="e" d="M633.7888,9.1724h.9126a.4563.4563,0,0,1,.4563.4563v.9126a.4563.4563,0,0,1-.4563.4563h-.9127a.4562.4562,0,0,1-.4562-.4562V9.6287A.4563.4563,0,0,1,633.7888,9.1724Z" transform="translate(178.6236 451.4211) rotate(-44.9985)"/><path class="e" d="M655.5841,2.7781h.8319a.4159.4159,0,0,1,.4159.4159v.8319a.416.416,0,0,1-.416.416h-.8319a.416.416,0,0,1-.416-.416V3.1941A.416.416,0,0,1,655.5841,2.7781Z" transform="translate(9.3392 113.968) rotate(-10)"/><path class="e" d="M644.854,8.9731h.8319a.416.416,0,0,1,.416.416v.8319a.4159.4159,0,0,1-.4159.4159h-.8319a.416.416,0,0,1-.416-.416V9.3891A.416.416,0,0,1,644.854,8.9731Z" transform="translate(415.3409 612.7992) rotate(-69.9981)"/><path class="e" d="M644.854,21.3631h.8319a.416.416,0,0,1,.416.416v.8319a.4159.4159,0,0,1-.4159.4159h-.8319a.4159.4159,0,0,1-.4159-.4159v-.8319a.416.416,0,0,1,.416-.416Z" transform="translate(136.711 419.9811) rotate(-40.0019)"/><path class="e" d="M655.5841,27.5581h.8319a.4159.4159,0,0,1,.4159.4159v.8319a.416.416,0,0,1-.416.416h-.8319a.416.416,0,0,1-.416-.416v-.8319A.416.416,0,0,1,655.5841,27.5581Z" transform="matrix(0.9848, -0.1736, 0.1736, 0.9848, 5.0362, 114.3445)"/><path class="e" d="M666.3141,21.3631h.8319a.416.416,0,0,1,.416.416v.8319a.4159.4159,0,0,1-.4159.4159h-.8319a.416.416,0,0,1-.416-.416V21.779a.416.416,0,0,1,.416-.416Z" transform="translate(417.8179 641.1169) rotate(-69.9981)"/><path class="e" d="M666.3141,8.9731h.8319a.416.416,0,0,1,.416.416v.8319a.4159.4159,0,0,1-.4159.4159h-.8319a.416.416,0,0,1-.416-.416V9.389A.416.416,0,0,1,666.3141,8.9731Z" transform="translate(149.6719 430.8465) rotate(-39.9985)"/><rect class="e" x="687.2272" y="2.3472" width="1.5456" height="1.5456" rx="0.3864" ry="0.3864" transform="translate(2.3461 59.975) rotate(-5)"/><rect class="e" x="676.0728" y="8.7872" width="1.5456" height="1.5456" rx="0.3864" ry="0.3864" transform="translate(382.1137 618.9404) rotate(-64.9981)"/><rect class="e" x="676.0728" y="21.6672" width="1.5456" height="1.5456" rx="0.3864" ry="0.3864" transform="translate(109.5474 392.2998) rotate(-35.0019)"/><rect class="e" x="687.2272" y="28.1072" width="1.5456" height="1.5456" rx="0.3864" ry="0.3864" transform="translate(0.101 60.073) rotate(-5)"/><rect class="e" x="698.3816" y="21.6672" width="1.5456" height="1.5456" rx="0.3864" ry="0.3864" transform="translate(383.3207 646.595) rotate(-64.9981)"/><rect class="e" x="698.3816" y="8.7872" width="1.5456" height="1.5456" rx="0.3864" ry="0.3864" transform="translate(120.9472 402.7325) rotate(-34.9985)"/><rect class="e" x="719.259" y="1.959" width="1.482" height="1.482" rx="0.3705" ry="0.3705"/><rect class="e" x="707.7408" y="8.609" width="1.482" height="1.482" rx="0.3705" ry="0.3705" transform="translate(346.1233 618.2262) rotate(-59.9981)"/><rect class="e" x="707.7408" y="21.909" width="1.482" height="1.482" rx="0.3705" ry="0.3705" transform="translate(83.6047 357.2962) rotate(-30.0019)"/><rect class="e" x="719.259" y="28.559" width="1.482" height="1.482" rx="0.3705" ry="0.3705"/><rect class="e" x="730.7772" y="21.909" width="1.482" height="1.482" rx="0.3705" ry="0.3705" transform="translate(346.1229 644.8255) rotate(-59.9981)"/><rect class="e" x="730.7772" y="8.609" width="1.482" height="1.482" rx="0.3705" ry="0.3705" transform="translate(93.3207 366.9953) rotate(-29.9985)"/><rect class="g" x="751.335" y="2.035" width="1.33" height="1.33" rx="0.3325" ry="0.3325" transform="translate(683.7692 751.6031) rotate(-85)"/><rect class="g" x="739.8168" y="8.685" width="1.33" height="1.33" rx="0.3325" ry="0.3325" transform="translate(308.0798 610.5399) rotate(-54.9981)"/><rect class="g" x="739.8168" y="21.985" width="1.33" height="1.33" rx="0.3325" ry="0.3325" transform="translate(59.8148 315.0859) rotate(-25.0019)"/><rect class="g" x="751.335" y="28.635" width="1.33" height="1.33" rx="0.3325" ry="0.3325" transform="matrix(0.0872, -0.9962, 0.9962, 0.0872, 657.2704, 775.8848)"/><rect class="g" x="762.8532" y="21.985" width="1.33" height="1.33" rx="0.3325" ry="0.3325" transform="translate(307.008 635.0808) rotate(-54.9981)"/><rect class="g" x="762.8532" y="8.685" width="1.33" height="1.33" rx="0.3325" ry="0.3325" transform="translate(67.5762 323.5348) rotate(-24.9985)"/><rect class="j" x="783.392" y="2.092" width="1.216" height="1.216" rx="0.304" ry="0.304" transform="translate(645.2009 774.3204) rotate(-80)"/><rect class="j" x="771.8738" y="8.742" width="1.216" height="1.216" rx="0.304" ry="0.304" transform="translate(268.7581 595.0786) rotate(-49.9981)"/><rect class="j" x="771.8738" y="22.042" width="1.216" height="1.216" rx="0.304" ry="0.304" transform="translate(38.8477 265.5947) rotate(-20.0019)"/><rect class="j" x="783.392" y="28.692" width="1.216" height="1.216" rx="0.304" ry="0.304" transform="translate(619.005 796.3014) rotate(-80)"/><rect class="j" x="794.9102" y="22.042" width="1.216" height="1.216" rx="0.304" ry="0.304" transform="translate(266.7983 617.4756) rotate(-49.9981)"/><rect class="j" x="794.9102" y="8.742" width="1.216" height="1.216" rx="0.304" ry="0.304" transform="translate(44.771 272.6278) rotate(-19.9985)"/><rect class="k" x="815.43" y="2.13" width="1.14" height="1.14" rx="0.285" ry="0.285" transform="translate(602.1957 790.1967) rotate(-75)"/><rect class="k" x="803.9118" y="8.78" width="1.14" height="1.14" rx="0.285" ry="0.285" transform="translate(228.9971 571.574) rotate(-44.9981)"/><rect class="k" x="803.9118" y="22.08" width="1.14" height="1.14" rx="0.285" ry="0.285" transform="translate(21.556 209.013) rotate(-15.0019)"/><rect class="k" x="815.43" y="28.73" width="1.14" height="1.14" rx="0.285" ry="0.285" transform="translate(576.502 809.9121) rotate(-75)"/><rect class="k" x="826.9482" y="22.08" width="1.14" height="1.14" rx="0.285" ry="0.285" transform="translate(226.3396 591.7578) rotate(-44.9981)"/><rect class="k" x="826.9482" y="8.78" width="1.14" height="1.14" rx="0.285" ry="0.285" transform="translate(25.7718 214.4754) rotate(-14.9985)"/><rect class="l" x="847.449" y="2.149" width="1.102" height="1.102" rx="0.2755" ry="0.2755" transform="translate(555.4298 798.6359) rotate(-70)"/><rect class="l" x="835.9309" y="8.799" width="1.102" height="1.102" rx="0.2755" ry="0.2755" transform="translate(189.6719 539.8462) rotate(-39.9981)"/><rect class="l" x="835.9309" y="22.099" width="1.102" height="1.102" rx="0.2755" ry="0.2755" transform="translate(8.779 145.6252) rotate(-10.0019)"/><rect class="l" x="847.449" y="28.749" width="1.102" height="1.102" rx="0.2755" ry="0.2755" transform="translate(530.434 816.1382) rotate(-70)"/><rect class="l" x="858.9672" y="22.099" width="1.102" height="1.102" rx="0.2755" ry="0.2755" transform="translate(186.5121 557.7644) rotate(-39.9981)"/><rect class="l" x="858.9672" y="8.799" width="1.102" height="1.102" rx="0.2755" ry="0.2755" transform="translate(11.4308 149.374) rotate(-9.9985)"/></svg>