<svg xmlns="http://www.w3.org/2000/svg" viewBox="0 0 960 32" width="960" height="32"><defs><style>.a{fill:#fbc02d;}.b,.c,.d,.e,.f,.g,.h,.i,.j,.k{fill:#f57f17;}.b{opacity:0.1;}.c{opacity:0.2;}.d{opacity:0.3;}.e{opacity:0.4;}.f{opacity:0.5;}.g{opacity:0.6;}.h{opacity:0.7;}.i{opacity:0.8;}.j{opacity:0.9;}.l{fill:#f9a825;}.m{fill:#606060;}</style></defs><title>star</title><path class="a" d="M944,19.816l4.944,2.984-1.312-5.624L952,13.392l-5.752-.488L944,7.6l-2.248,5.304L936,13.392l4.368,3.784L939.056,22.8Z"/><path class="a" d="M912,19.816l4.944,2.984-1.312-5.624L920,13.392l-5.752-.488L912,7.6l-2.248,5.304L904,13.392l4.368,3.784L907.056,22.8Z"/><path class="a" d="M880,19.816l4.944,2.984-1.312-5.624L888,13.392l-5.752-.488L880,7.6l-2.248,5.304L872,13.392l4.368,3.784L875.056,22.8Z"/><path class="a" d="M848,19.816l4.944,2.984-1.312-5.624L856,13.392l-5.752-.488L848,7.6l-2.248,5.304L840,13.392l4.368,3.784L843.056,22.8Z"/><path class="a" d="M816,19.816l4.944,2.984-1.312-5.624L824,13.392l-5.752-.488L816,7.6l-2.248,5.304L808,13.392l4.368,3.784L811.056,22.8Z"/><path class="a" d="M784,19.816l4.944,2.984-1.312-5.624L792,13.392l-5.752-.488L784,7.6l-2.248,5.304L776,13.392l4.368,3.784L779.056,22.8Z"/><path class="a" d="M752,19.816l4.944,2.984-1.312-5.624L760,13.392l-5.752-.488L752,7.6l-2.248,5.304L744,13.392l4.368,3.784L747.056,22.8Z"/><rect class="b" x="738.6363" y="19.0172" width="2" height="2" rx="1" ry="1" transform="translate(30.0147 229.5398) rotate(-18)"/><rect class="b" x="743.3588" y="4.4828" width="2" height="2" rx="1" ry="1" transform="translate(138.937 438.57) rotate(-36)"/><rect class="b" x="758.6412" y="4.4828" width="2" height="2" rx="1" ry="1" transform="translate(308.6993 616.8225) rotate(-54)"/><rect class="b" x="763.3637" y="19.0172" width="2" height="2" rx="1" ry="1" transform="translate(509.1248 740.7846) rotate(-72)"/><rect class="b" x="751" y="28" width="2" height="2" rx="1" ry="1"/><path class="a" d="M720,19.816l4.944,2.984-1.312-5.624L728,13.392l-5.752-.488L720,7.6l-2.248,5.304L712,13.392l4.368,3.784L715.056,22.8Z"/><rect class="c" x="706.6363" y="19.0172" width="2" height="2" rx="1" ry="1" transform="translate(28.4485 219.6514) rotate(-18)"/><rect class="c" x="711.3588" y="4.4828" width="2" height="2" rx="1" ry="1" transform="translate(132.8257 419.7611) rotate(-36)"/><rect class="c" x="726.6412" y="4.4828" width="2" height="2" rx="1" ry="1" transform="translate(295.5088 590.9342) rotate(-54)"/><rect class="c" x="731.3637" y="19.0172" width="2" height="2" rx="1" ry="1" transform="translate(487.0133 710.3508) rotate(-72)"/><rect class="c" x="719" y="28" width="2" height="2" rx="1" ry="1"/><path class="a" d="M688,19.816l4.944,2.984-1.312-5.624L696,13.392l-5.752-.488L688,7.6l-2.248,5.304L680,13.392l4.368,3.784L683.056,22.8Z"/><rect class="d" x="674.6363" y="19.0172" width="2" height="2" rx="1" ry="1" transform="matrix(0.9511, -0.309, 0.309, 0.9511, 26.8823, 209.7627)"/><rect class="d" x="679.3588" y="4.4828" width="2" height="2" rx="1" ry="1" transform="translate(126.7144 400.9522) rotate(-36)"/><rect class="d" x="694.6412" y="4.4828" width="2" height="2" rx="1" ry="1" transform="translate(282.3183 565.0459) rotate(-54)"/><rect class="d" x="699.3637" y="19.0172" width="2" height="2" rx="1" ry="1" transform="translate(464.9025 679.9172) rotate(-72)"/><rect class="d" x="687" y="28" width="2" height="2" rx="1" ry="1"/><path class="a" d="M656,19.816l4.944,2.984-1.312-5.624L664,13.392l-5.752-.488L656,7.6l-2.248,5.304L648,13.392l4.368,3.784L651.056,22.8Z"/><rect class="e" x="642.6363" y="19.0172" width="2" height="2" rx="1" ry="1" transform="translate(25.3164 199.875) rotate(-18.0001)"/><rect class="e" x="647.3588" y="4.4828" width="2" height="2" rx="1" ry="1" transform="translate(120.603 382.1431) rotate(-36)"/><rect class="e" x="662.6412" y="4.4828" width="2" height="2" rx="1" ry="1" transform="translate(269.1274 539.1574) rotate(-54)"/><rect class="e" x="667.3637" y="19.0172" width="2" height="2" rx="1" ry="1" transform="translate(442.791 649.4834) rotate(-72)"/><rect class="e" x="655" y="28" width="2" height="2" rx="1" ry="1"/><path class="a" d="M624,19.816l4.944,2.984-1.312-5.624L632,13.392l-5.752-.488L624,7.6l-2.248,5.304L616,13.392l4.368,3.784L619.056,22.8Z"/><rect class="f" x="610.6363" y="19.0172" width="2" height="2" rx="1" ry="1" transform="translate(23.7501 189.9861) rotate(-18)"/><rect class="f" x="615.3588" y="4.4828" width="2" height="2" rx="1" ry="1" transform="translate(114.4915 363.3339) rotate(-36)"/><rect class="f" x="630.6412" y="4.4828" width="2" height="2" rx="1" ry="1" transform="translate(255.9362 513.2686) rotate(-54)"/><rect class="f" x="635.3637" y="19.0172" width="2" height="2" rx="1" ry="1" transform="translate(420.679 619.0494) rotate(-72)"/><rect class="f" x="623" y="28" width="2" height="2" rx="1" ry="1"/><path class="a" d="M592,19.6252l4.6968,2.8348L595.45,17.1172l4.15-3.5948-5.4644-.4636L592,8.02l-2.1356,5.0388-5.4644.4636,4.15,3.5948L587.3032,22.46Z"/><rect class="g" x="578.6363" y="19.0172" width="2" height="2" rx="1" ry="1" transform="translate(22.1837 180.0969) rotate(-18)"/><rect class="g" x="583.3588" y="4.4828" width="2" height="2" rx="1" ry="1" transform="translate(108.3797 344.5242) rotate(-36)"/><rect class="g" x="598.6412" y="4.4828" width="2" height="2" rx="1" ry="1" transform="translate(242.745 487.3798) rotate(-54)"/><rect class="g" x="603.3637" y="19.0172" width="2" height="2" rx="1" ry="1" transform="translate(398.5675 588.6156) rotate(-72)"/><rect class="g" x="591" y="28" width="2" height="2" rx="1" ry="1"/><path class="a" d="M560,19.2436l4.2024,2.5364L563.0872,17,566.8,13.7832l-4.8892-.4148L560,8.86l-1.9108,4.5084-4.8892.4148L556.9128,17l-1.1152,4.78Z"/><rect class="h" x="546.5873" y="18.7082" width="4" height="2" rx="1" ry="1" transform="translate(20.7596 170.4873) rotate(-18)"/><rect class="h" x="551.9466" y="4.2918" width="2" height="4" rx="1" ry="1" transform="translate(101.9052 326.2155) rotate(-36)"/><rect class="h" x="565.0534" y="5.2918" width="4" height="2" rx="1" ry="1" transform="translate(228.6576 461.3494) rotate(-54)"/><rect class="h" x="570.4127" y="17.7082" width="2" height="4" rx="1" ry="1" transform="translate(376.0928 557.0638) rotate(-72)"/><rect class="h" x="559" y="26" width="2" height="4" rx="1" ry="1"/><path class="a" d="M528,19.0528l3.9552,2.3872-1.05-4.4992L534.4,13.9136l-4.6016-.39L528,9.28l-1.7984,4.2432-4.6016.39,3.4944,3.0272-1.05,4.4992Z"/><rect class="i" x="514.5506" y="18.4764" width="5.5" height="2" rx="1" ry="1" transform="translate(19.2998 160.8075) rotate(-18)"/><rect class="i" x="520.3874" y="4.1486" width="2" height="5.5" rx="1" ry="1" transform="translate(95.5212 307.7812) rotate(-36)"/><rect class="i" x="531.8626" y="5.8986" width="5.5" height="2" rx="1" ry="1" transform="translate(214.7941 435.3544) rotate(-54)"/><rect class="i" x="537.6994" y="16.7264" width="2" height="5.5" rx="1" ry="1" transform="translate(353.7089 525.7914) rotate(-72)"/><rect class="i" x="527" y="24.5" width="2" height="5.5" rx="1" ry="1"/><path class="a" d="M496,19.4344l4.45,2.6856-1.1808-5.0616L503.2,13.6528l-5.1768-.4392L496,8.44l-2.0232,4.7736-5.1768.4392,3.9312,3.4056L491.55,22.12Z"/><rect class="j" x="482.4894" y="18.0902" width="8" height="2" rx="1" ry="1" transform="translate(17.9112 151.2676) rotate(-18)"/><rect class="j" x="489.1221" y="3.9098" width="2" height="8" rx="1" ry="1" transform="matrix(0.809, -0.5878, 0.5878, 0.809, 88.9556, 289.597)"/><rect class="j" x="497.8779" y="6.9098" width="8" height="2" rx="1" ry="1" transform="translate(200.4821 409.2882) rotate(-54)"/><rect class="j" x="504.5106" y="15.0902" width="2" height="8" rx="1" ry="1" transform="translate(331.1433 493.9601) rotate(-72)"/><rect class="j" x="495" y="22" width="2" height="8" rx="1" ry="1"/><path class="a" d="M464,20.0068l5.1912,3.1332-1.3776-5.9052L472.4,13.2616l-6.04-.5124L464,7.18l-2.36,5.5692-6.04.5124,4.5864,3.9732L458.8088,23.14Z"/><rect class="k" x="450.4894" y="18.0902" width="8" height="2" rx="1" ry="1" transform="matrix(0.9511, -0.309, 0.309, 0.9511, 16.3451, 141.3793)"/><rect class="k" x="457.1221" y="3.9098" width="2" height="8" rx="1" ry="1" transform="translate(82.8443 270.7881) rotate(-36)"/><rect class="k" x="465.8779" y="6.9098" width="8" height="2" rx="1" ry="1" transform="translate(187.2915 383.3998) rotate(-54)"/><rect class="k" x="472.5106" y="15.0902" width="2" height="8" rx="1" ry="1" transform="translate(309.0319 463.5263) rotate(-72)"/><rect class="k" x="463" y="22" width="2" height="8" rx="1" ry="1"/><path class="a" d="M432,20.3884l5.6856,3.4316-1.5088-6.4676L441.2,13.0008l-6.6148-.5612L432,6.34l-2.5852,6.1-6.6148.5612,5.0232,4.3516L426.3144,23.82Z"/><rect class="k" x="418.4894" y="18.0902" width="8" height="2" rx="1" ry="1" transform="translate(14.7789 131.4908) rotate(-18)"/><rect class="k" x="425.1221" y="3.9098" width="2" height="8" rx="1" ry="1" transform="translate(76.7328 251.979) rotate(-36)"/><rect class="k" x="433.8779" y="6.9098" width="8" height="2" rx="1" ry="1" transform="translate(174.1005 357.5112) rotate(-54)"/><rect class="k" x="440.5106" y="15.0902" width="2" height="8" rx="1" ry="1" transform="translate(286.9204 433.0925) rotate(-72)"/><rect class="k" x="431" y="22" width="2" height="8" rx="1" ry="1"/><path class="a" d="M400,20.5792l5.9328,3.5808-1.5744-6.7488L409.6,12.87l-6.9024-.5856L400,5.92l-2.6976,6.3648L390.4,12.87l5.2416,4.5408L394.0672,24.16Z"/><rect class="k" x="386.4894" y="18.0902" width="8" height="2" rx="1" ry="1" transform="translate(13.2127 121.6022) rotate(-18)"/><rect class="k" x="393.1221" y="3.9098" width="2" height="8" rx="1" ry="1" transform="translate(70.6213 233.1698) rotate(-36)"/><rect class="k" x="401.8779" y="6.9098" width="8" height="2" rx="1" ry="1" transform="translate(160.9097 331.6226) rotate(-54)"/><rect class="k" x="408.5106" y="15.0902" width="2" height="8" rx="1" ry="1" transform="translate(264.809 402.6587) rotate(-72)"/><rect class="k" x="399" y="22" width="2" height="8" rx="1" ry="1"/><path class="a" d="M368,20.1976l5.4384,3.2824-1.4432-6.1864L376.8,13.1312l-6.3272-.5368L368,6.76l-2.4728,5.8344-6.3272.5368,4.8048,4.1624L362.5616,23.48Z"/><rect class="k" x="354.4894" y="18.0902" width="8" height="2" rx="1" ry="1" transform="matrix(0.9511, -0.309, 0.309, 0.9511, 11.6464, 111.7133)"/><rect class="k" x="361.1221" y="3.9098" width="2" height="8" rx="1" ry="1" transform="translate(64.5097 214.3604) rotate(-35.9999)"/><rect class="k" x="369.8779" y="6.9098" width="8" height="2" rx="1" ry="1" transform="translate(147.7186 305.7339) rotate(-54)"/><rect class="k" x="376.5106" y="15.0902" width="2" height="8" rx="1" ry="1" transform="translate(242.6972 372.2247) rotate(-71.9999)"/><rect class="k" x="367" y="22" width="2" height="8" rx="1" ry="1"/><path class="a" d="M336,19.4344l4.45,2.6856-1.1808-5.0616L343.2,13.6528l-5.1768-.4392L336,8.44l-2.0232,4.7736-5.1768.4392,3.9312,3.4056L331.55,22.12Z"/><path class="a" d="M304,18.29l2.9664,1.79-.7872-3.3744,2.6208-2.27-3.4512-.2928L304,10.96l-1.3488,3.1824-3.4512.2928,2.6208,2.27-.7872,3.3744Z"/><path class="a" d="M272,16.7632l.9888.5968-.2624-1.1248.8736-.7568-1.15-.0976L272,14.32l-.45,1.0608-1.15.0976.8736.7568-.2624,1.1248Z"/><circle class="l" cx="176" cy="16" r="12"/><circle class="l" cx="144" cy="16" r="10.2"/><circle class="l" cx="112" cy="16" r="7.2"/><circle class="l" cx="80" cy="16" r="2.4"/><path class="m" d="M16,19.816,20.944,22.8l-1.312-5.624L24,13.392l-5.752-.488L16,7.6l-2.248,5.304L8,13.392l4.368,3.784L11.056,22.8Z"/><path class="l" d="M336,4a12,12,0,1,0,12,12A12,12,0,0,0,336,4Zm0,23.2A11.2,11.2,0,1,1,347.2,16,11.2,11.2,0,0,1,336,27.2Z"/><path class="l" d="M304,4a12,12,0,1,0,12,12A12,12,0,0,0,304,4Zm0,22a10,10,0,1,1,10-10A10,10,0,0,1,304,26Z"/><path class="l" d="M272,4a12,12,0,1,0,12,12A12,12,0,0,0,272,4Zm0,20.8a8.8,8.8,0,1,1,8.8-8.8A8.8,8.8,0,0,1,272,24.8Z"/><path class="l" d="M240,4a12,12,0,1,0,12,12A12,12,0,0,0,240,4Zm0,19.2a7.2,7.2,0,1,1,7.2-7.2A7.2,7.2,0,0,1,240,23.2Z"/><path class="l" d="M208,4a12,12,0,1,0,12,12A12,12,0,0,0,208,4Zm0,16a4,4,0,1,1,4-4A4,4,0,0,1,208,20Z"/><rect class="k" x="294.3548" y="17.2404" width="5.5" height="2" rx="1" ry="1" transform="translate(8.9048 92.7033) rotate(-18)"/><rect class="k" x="298.7386" y="7.3846" width="2" height="5.5" rx="1" ry="1" transform="translate(51.2881 178.1176) rotate(-36)"/><rect class="k" x="305.5114" y="9.1346" width="5.5" height="2" rx="1" ry="1" transform="matrix(0.5878, -0.809, 0.809, 0.5878, 118.8707, 253.5663)"/><rect class="k" x="309.8952" y="15.4904" width="2" height="5.5" rx="1" ry="1" transform="matrix(0.309, -0.9511, 0.9511, 0.309, 197.4756, 308.2826)"/><rect class="k" x="303" y="20.5" width="2" height="5.5" rx="1" ry="1"/><rect class="k" x="324.4405" y="17.7812" width="6" height="2" rx="1" ry="1" transform="translate(10.2223 102.1037) rotate(-18)"/><rect class="k" x="329.7099" y="5.7188" width="2" height="6" rx="1" ry="1" transform="translate(58.035 196.0514) rotate(-36)"/><rect class="k" x="338.2901" y="7.7188" width="6" height="2" rx="1" ry="1" transform="translate(133.631 279.7034) rotate(-54)"/><rect class="k" x="343.5595" y="15.7812" width="2" height="6" rx="1" ry="1" transform="translate(220.2228 340.673) rotate(-72)"/><rect class="k" x="335" y="22" width="2" height="6" rx="1" ry="1"/><rect class="k" x="264.3059" y="16.9314" width="3.5" height="2" rx="1" ry="1" transform="translate(7.4806 83.0936) rotate(-18)"/><rect class="k" x="267.3263" y="9.1936" width="2" height="3.5" rx="1" ry="1" transform="translate(44.8133 159.8083) rotate(-36)"/><rect class="k" x="273.9237" y="9.9436" width="3.5" height="2" rx="1" ry="1" transform="translate(104.7833 227.5359) rotate(-54)"/><rect class="k" x="276.9441" y="16.1814" width="2" height="3.5" rx="1" ry="1" transform="translate(175.0011 276.7309) rotate(-72)"/><rect class="k" x="271" y="20.5" width="2" height="3.5" rx="1" ry="1"/><rect class="k" x="234.257" y="16.6223" width="1.5" height="2" rx="0.75" ry="0.75" transform="translate(6.0565 73.4836) rotate(-18)"/><rect class="k" x="235.9141" y="11.0027" width="2" height="1.5" rx="0.75" ry="0.75" transform="translate(38.3385 141.4992) rotate(-36)"/><rect class="k" x="242.3359" y="10.7527" width="1.5" height="2" rx="0.75" ry="0.75" transform="translate(90.6955 201.5052) rotate(-54)"/><rect class="k" x="243.993" y="16.8723" width="2" height="1.5" rx="0.75" ry="0.75" transform="translate(152.5262 245.179) rotate(-72)"/><rect class="k" x="239" y="20.5" width="2" height="1.5" rx="0.75" ry="0.75"/></svg>