<svg xmlns="http://www.w3.org/2000/svg" viewBox="0 0 960 32"><defs><style>.a,.b,.c,.d,.e,.f{fill:#606060;}.b,.k{opacity:0.9;}.c,.l{opacity:0.75;}.d,.i{opacity:0.55;}.e,.j{opacity:0.3;}.f,.h{opacity:0.05;}.g,.h,.i,.j,.k,.l{fill:#1e88e5;}</style></defs><title>reply</title><path class="a" d="M15,13V10L8,15l7,5V17a10.5018,10.5018,0,0,1,9,5C23,17,21,14,15,13Z"/><path class="a" d="M47,13V10l-7,5,7,5V17a10.5018,10.5018,0,0,1,9,5C55,17,53,14,47,13Z"/><path class="a" d="M78,13V10l-7,5,7,5V17c4,0,7,1,9,4C86,16,84,14,78,13Z"/><path class="a" d="M108,13V10l-7,5,7,5V17c3,0,7,0,10,2C116,15,114,14,108,13Z"/><path class="a" d="M137,13V10l-7,5,7,5V17h12C146,14,141,13,137,13Z"/><path class="a" d="M166,13V10l-6,4.2857v1.4286L166,20V17c3,0,12,0,14-1C178,15,169,13,166,13Z"/><path class="a" d="M195,13V10l-3,2.1429v5.7142L195,20V17c3,0,12-1,14-2C207,14,198,13,195,13Z"/><path class="b" d="M224,13v4c3,0,12-1,14-2C236,14,227,13,224,13Z"/><path class="c" d="M256,13.1585v3.683c3.9008-.32,9.4771-1.08,11-1.8415C265.4771,14.2385,259.9008,13.4785,256,13.1585Z"/><path class="d" d="M288,13.7105v2.579c2.64-.3639,7.0731-.826,8-1.2895C295.0731,14.5366,290.64,14.0744,288,13.7105Z"/><path class="e" d="M320,14.0562v1.8876A33.089,33.089,0,0,0,325,15,33.089,33.089,0,0,0,320,14.0562Z"/><path class="f" d="M352,14.3964v1.2073A9.8077,9.8077,0,0,0,354,15,9.8077,9.8077,0,0,0,352,14.3964Z"/><path class="g" d="M911,13V10l-7,5,7,5V17a10.5018,10.5018,0,0,1,9,5C919,17,917,14,911,13Z"/><path class="g" d="M879,13V10l-7,5,7,5V17c4,0,7.6563,2.3125,9,5.2031C887.0313,17.0313,884.75,14,879,13Z"/><path class="g" d="M847,13V10l-7,5,7,5V17c4,0,7.8438,2.3125,9,5.7188C855.5625,17.4375,853,14,847,13Z"/><polygon class="h" points="406 31 405.286 32 406.714 32 406 31"/><polygon class="i" points="470 25 465 32 475 32 470 25"/><polygon class="j" points="438 28 435.143 32 440.857 32 438 28"/><path class="k" d="M532.4572,32h3.0856c.2791-2.416.4572-4.7389.4572-6h3l-5-7-5,7h3C532,27.2611,532.1781,29.584,532.4572,32Z"/><path class="l" d="M500.1585,32h3.683c.1-1.222.1585-2.2844.1585-3h3l-5-7-5,7h3C500,29.7156,500.0583,30.778,500.1585,32Z"/><path class="g" d="M815.3484,13.041l.1047-2.9982-7.17,4.7527,6.8212,5.2413.1047-2.9982c3.9976.14,7.89,3.2774,8.7851,6.31C824.1684,18.352,821.31,14.25,815.3484,13.041Z"/><path class="g" d="M784.04,13.1593l.3136-2.9836-7.4843,4.2409,6.439,5.7043.3136-2.9836C787.6,17.5555,791.3191,20.9119,792,24,792.5226,19.0274,789.9024,14.781,784.04,13.1593Z"/><path class="g" d="M753.0573,13.4264l.6237-2.9344-7.8866,3.4354,5.8075,6.3461.6237-2.9344c3.9126.8316,7.42,4.5186,7.7744,7.661C761.04,20.1093,758.7182,15.6521,753.0573,13.4264Z"/><path class="g" d="M722.36,13.9451l1.0261-2.8191L715.098,13.43l4.8677,7.0926,1.0261-2.8191C724.7506,19.0719,728.0864,23.8389,728,27,729.71,22.3015,727.656,16.9369,722.36,13.9451Z"/><path class="g" d="M691.866,14.84l1.5-2.5981-8.5622.83,3.5622,7.83,1.5-2.5981C693.33,20.3038,696,25,696,28,698,24,696.5622,18.7058,691.866,14.84Z"/><path class="g" d="M661.4345,16.2377l2.0074-2.2294-8.5477-.9682,1.8564,8.4,2.0074-2.2294C661.7305,21.8868,664,27,664,30,666,26,665.2242,20.9956,661.4345,16.2377Z"/><path class="g" d="M630.85,18.2371l2.4871-1.6776-8.06-3.0073-.2308,8.5992,2.4871-1.6776C629.77,23.79,630,29,630,32A14.2594,14.2594,0,0,0,630.85,18.2371Z"/><path class="g" d="M599.82,20.8609l2.8532-.9271-6.9184-5.1123-2.5922,8.2025,2.8532-.9271A45.1816,45.1816,0,0,1,598,33,19.7567,19.7567,0,0,0,599.82,20.8609Z"/><path class="g" d="M943,13V10l-7,5,7,5V17a10.5018,10.5018,0,0,1,9,5C951,17,949,14,943,13Z"/><path class="g" d="M565.0555,32h1.8889A41.6806,41.6806,0,0,0,568,24h3l-5-7-5,7h3A41.6806,41.6806,0,0,0,565.0555,32Z"/></svg>