<?xml version="1.0" encoding="utf-8"?>
<!-- Generator: Adobe Illustrator 21.0.0, SVG Export Plug-In . SVG Version: 6.00 Build 0)  -->
<svg version="1.1" id="Layer_1" xmlns="http://www.w3.org/2000/svg" xmlns:xlink="http://www.w3.org/1999/xlink" x="0px" y="0px"
	 viewBox="0 0 960 32" style="enable-background:new 0 0 960 32;" xml:space="preserve">
<style type="text/css">
	.st0{fill:#606060;}
	.st1{clip-path:url(#SVGID_2_);fill:#606060;}
	.st2{clip-path:url(#SVGID_2_);fill:#FF6F00;}
	.st3{fill:#FF6F00;}
	.st4{clip-path:url(#SVGID_4_);fill:#606060;}
	.st5{clip-path:url(#SVGID_4_);fill:#FF6F00;}
	.st6{clip-path:url(#SVGID_6_);fill:#606060;}
	.st7{clip-path:url(#SVGID_6_);fill:#FF6F00;}
	.st8{clip-path:url(#SVGID_8_);fill:#606060;}
	.st9{clip-path:url(#SVGID_8_);fill:#FF6F00;}
	.st10{fill:#FFB300;}
	.st11{opacity:0.9;fill:#FFB300;}
	.st12{opacity:0.5;fill:#FFB300;}
	.st13{opacity:0.2;fill:#FFB300;}
</style>
<g>
	<path class="st0" d="M9,19.5c0,0.8,0.7,1.5,1.5,1.5h11c0.8,0,1.5-0.7,1.5-1.5V15H9V19.5z M18.5,17c0.4,0,0.7,0.1,1,0.4
		c0.3-0.2,0.6-0.4,1-0.4c0.8,0,1.5,0.7,1.5,1.5S21.3,20,20.5,20c-0.4,0-0.7-0.1-1-0.4c-0.3,0.2-0.6,0.4-1,0.4
		c-0.8,0-1.5-0.7-1.5-1.5S17.7,17,18.5,17z M11.5,18h3c0.3,0,0.5,0.2,0.5,0.5c0,0.3-0.2,0.5-0.5,0.5h-3c-0.3,0-0.5-0.2-0.5-0.5
		C11,18.2,11.2,18,11.5,18z"/>
	<path class="st0" d="M21.5,11h-11C9.7,11,9,11.7,9,12.5V13h14v-0.5C23,11.7,22.3,11,21.5,11z"/>
</g>
<g>
	<path class="st0" d="M41,19.5c0,0.8,0.7,1.5,1.5,1.5h11c0.8,0,1.5-0.7,1.5-1.5V15H41V19.5z M50.5,17c0.4,0,0.7,0.1,1,0.4
		c0.3-0.2,0.6-0.4,1-0.4c0.8,0,1.5,0.7,1.5,1.5S53.3,20,52.5,20c-0.4,0-0.7-0.1-1-0.4c-0.3,0.2-0.6,0.4-1,0.4
		c-0.8,0-1.5-0.7-1.5-1.5S49.7,17,50.5,17z M43.5,18h3c0.3,0,0.5,0.2,0.5,0.5c0,0.3-0.2,0.5-0.5,0.5h-3c-0.3,0-0.5-0.2-0.5-0.5
		C43,18.2,43.2,18,43.5,18z"/>
	<path class="st0" d="M53.5,11h-11c-0.8,0-1.5,0.7-1.5,1.5V13h14v-0.5C55,11.7,54.3,11,53.5,11z"/>
</g>
<g>
	<g>
		<defs>
			<path id="SVGID_1_" d="M73,19.5c0,0.8,0.7,1.5,1.5,1.5h11c0.8,0,1.5-0.7,1.5-1.5V15H73V19.5z M82.5,17c0.4,0,0.7,0.1,1,0.4
				c0.3-0.2,0.6-0.4,1-0.4c0.8,0,1.5,0.7,1.5,1.5S85.3,20,84.5,20c-0.4,0-0.7-0.1-1-0.4c-0.3,0.2-0.6,0.4-1,0.4
				c-0.8,0-1.5-0.7-1.5-1.5S81.7,17,82.5,17z M75.5,18h3c0.3,0,0.5,0.2,0.5,0.5c0,0.3-0.2,0.5-0.5,0.5h-3c-0.3,0-0.5-0.2-0.5-0.5
				C75,18.2,75.2,18,75.5,18z"/>
		</defs>
		<clipPath id="SVGID_2_">
			<use xlink:href="#SVGID_1_"  style="overflow:visible;"/>
		</clipPath>
		<rect x="73" y="11" class="st1" width="14" height="10"/>
		<circle class="st2" cx="80" cy="24" r="4"/>
	</g>
	<path class="st0" d="M85.5,11h-11c-0.8,0-1.5,0.7-1.5,1.5V13h14v-0.5C87,11.7,86.3,11,85.5,11z"/>
</g>
<g>
	<path class="st3" d="M201,19.5c0,0.8,0.7,1.5,1.5,1.5h11c0.8,0,1.5-0.7,1.5-1.5V15h-14V19.5z M210.5,17c0.4,0,0.7,0.1,1,0.4
		c0.3-0.2,0.6-0.4,1-0.4c0.8,0,1.5,0.7,1.5,1.5s-0.7,1.5-1.5,1.5c-0.4,0-0.7-0.1-1-0.4c-0.3,0.2-0.6,0.4-1,0.4
		c-0.8,0-1.5-0.7-1.5-1.5S209.7,17,210.5,17z M203.5,18h3c0.3,0,0.5,0.2,0.5,0.5c0,0.3-0.2,0.5-0.5,0.5h-3c-0.3,0-0.5-0.2-0.5-0.5
		C203,18.2,203.2,18,203.5,18z"/>
	<path class="st0" d="M213.5,11h-11c-0.8,0-1.5,0.7-1.5,1.5V13h14v-0.5C215,11.7,214.3,11,213.5,11z"/>
</g>
<g>
	<path class="st3" d="M233,19.5c0,0.8,0.7,1.5,1.5,1.5h11c0.8,0,1.5-0.7,1.5-1.5V15h-14V19.5z M242.5,17c0.4,0,0.7,0.1,1,0.4
		c0.3-0.2,0.6-0.4,1-0.4c0.8,0,1.5,0.7,1.5,1.5s-0.7,1.5-1.5,1.5c-0.4,0-0.7-0.1-1-0.4c-0.3,0.2-0.6,0.4-1,0.4
		c-0.8,0-1.5-0.7-1.5-1.5S241.7,17,242.5,17z M235.5,18h3c0.3,0,0.5,0.2,0.5,0.5c0,0.3-0.2,0.5-0.5,0.5h-3c-0.3,0-0.5-0.2-0.5-0.5
		C235,18.2,235.2,18,235.5,18z"/>
	<path class="st0" d="M245.5,11h-11c-0.8,0-1.5,0.7-1.5,1.5V13h14v-0.5C247,11.7,246.3,11,245.5,11z"/>
</g>
<g>
	<path class="st3" d="M360.3,19.9c0,0.9,0.7,1.6,1.6,1.6h12.1c0.9,0,1.6-0.7,1.6-1.6v-5h-15.4V19.9z M370.8,17.1
		c0.4,0,0.8,0.2,1.1,0.4c0.3-0.3,0.7-0.4,1.1-0.4c0.9,0,1.6,0.7,1.6,1.6s-0.7,1.6-1.6,1.6c-0.4,0-0.8-0.2-1.1-0.4
		c-0.3,0.3-0.7,0.4-1.1,0.4c-0.9,0-1.6-0.7-1.6-1.6S369.8,17.1,370.8,17.1z M363,18.2h3.3c0.3,0,0.5,0.2,0.5,0.5
		c0,0.3-0.2,0.5-0.5,0.5H363c-0.3,0-0.5-0.2-0.5-0.5C362.5,18.4,362.7,18.2,363,18.2z"/>
	<path class="st3" d="M374.1,10.5h-12.1c-0.9,0-1.6,0.7-1.6,1.6v0.6h15.4v-0.6C375.7,11.2,375,10.5,374.1,10.5z"/>
</g>
<g>
	<path class="st3" d="M392.8,19.6c0,0.8,0.7,1.5,1.5,1.5h11.4c0.8,0,1.5-0.7,1.5-1.5V15h-14.4V19.6z M402.6,17c0.4,0,0.8,0.2,1,0.4
		c0.3-0.2,0.6-0.4,1-0.4c0.9,0,1.5,0.7,1.5,1.5s-0.7,1.5-1.5,1.5c-0.4,0-0.8-0.2-1-0.4c-0.3,0.2-0.6,0.4-1,0.4
		c-0.9,0-1.5-0.7-1.5-1.5S401.7,17,402.6,17z M395.4,18.1h3.1c0.3,0,0.5,0.2,0.5,0.5c0,0.3-0.2,0.5-0.5,0.5h-3.1
		c-0.3,0-0.5-0.2-0.5-0.5C394.9,18.3,395.1,18.1,395.4,18.1z"/>
	<path class="st3" d="M405.7,10.9h-11.4c-0.8,0-1.5,0.7-1.5,1.5v0.5h14.4v-0.5C407.2,11.5,406.5,10.9,405.7,10.9z"/>
</g>
<g>
	<path class="st3" d="M425.2,19.4c0,0.8,0.6,1.4,1.4,1.4h10.7c0.8,0,1.4-0.6,1.4-1.4V15h-13.6V19.4z M434.4,17c0.4,0,0.7,0.1,1,0.4
		c0.3-0.2,0.6-0.4,1-0.4c0.8,0,1.5,0.7,1.5,1.5s-0.7,1.5-1.5,1.5c-0.4,0-0.7-0.1-1-0.4c-0.3,0.2-0.6,0.4-1,0.4
		c-0.8,0-1.5-0.7-1.5-1.5S433.6,17,434.4,17z M427.6,17.9h2.9c0.3,0,0.5,0.2,0.5,0.5c0,0.3-0.2,0.5-0.5,0.5h-2.9
		c-0.3,0-0.5-0.2-0.5-0.5C427.1,18.2,427.4,17.9,427.6,17.9z"/>
	<path class="st3" d="M437.4,11.1h-10.7c-0.8,0-1.4,0.6-1.4,1.4v0.5h13.6v-0.5C438.8,11.8,438.1,11.1,437.4,11.1z"/>
</g>
<g>
	<path class="st3" d="M457.5,19.3c0,0.8,0.6,1.4,1.4,1.4h10.3c0.8,0,1.4-0.6,1.4-1.4v-4.2h-13V19.3z M466.3,16.9
		c0.4,0,0.7,0.1,0.9,0.4c0.2-0.2,0.6-0.4,0.9-0.4c0.8,0,1.4,0.6,1.4,1.4c0,0.8-0.6,1.4-1.4,1.4c-0.4,0-0.7-0.1-0.9-0.4
		c-0.2,0.2-0.6,0.4-0.9,0.4c-0.8,0-1.4-0.6-1.4-1.4C464.9,17.6,465.6,16.9,466.3,16.9z M459.8,17.9h2.8c0.3,0,0.5,0.2,0.5,0.5
		c0,0.3-0.2,0.5-0.5,0.5h-2.8c-0.3,0-0.5-0.2-0.5-0.5C459.4,18.1,459.6,17.9,459.8,17.9z"/>
	<path class="st3" d="M469.1,11.4h-10.3c-0.8,0-1.4,0.6-1.4,1.4v0.5h13v-0.5C470.5,12,469.9,11.4,469.1,11.4z"/>
</g>
<g>
	<path class="st3" d="M489.1,19.5c0,0.8,0.7,1.4,1.4,1.4h10.8c0.8,0,1.4-0.7,1.4-1.4V15h-13.7V19.5z M498.5,17c0.4,0,0.7,0.1,1,0.4
		c0.3-0.2,0.6-0.4,1-0.4c0.8,0,1.5,0.7,1.5,1.5c0,0.8-0.7,1.5-1.5,1.5c-0.4,0-0.7-0.1-1-0.4c-0.3,0.2-0.6,0.4-1,0.4
		c-0.8,0-1.5-0.7-1.5-1.5C497,17.6,497.6,17,498.5,17z M491.6,18h2.9c0.3,0,0.5,0.2,0.5,0.5c0,0.3-0.2,0.5-0.5,0.5h-2.9
		c-0.3,0-0.5-0.2-0.5-0.5C491.1,18.2,491.3,18,491.6,18z"/>
	<path class="st3" d="M501.4,11.1h-10.8c-0.8,0-1.4,0.7-1.4,1.4v0.5h13.7v-0.5C502.9,11.8,502.2,11.1,501.4,11.1z"/>
</g>
<g>
	<path class="st3" d="M521,19.5c0,0.8,0.7,1.5,1.5,1.5h11c0.8,0,1.5-0.7,1.5-1.5V15h-14V19.5z M530.5,17c0.4,0,0.7,0.1,1,0.4
		c0.3-0.2,0.6-0.4,1-0.4c0.8,0,1.5,0.7,1.5,1.5s-0.7,1.5-1.5,1.5c-0.4,0-0.7-0.1-1-0.4c-0.3,0.2-0.6,0.4-1,0.4
		c-0.8,0-1.5-0.7-1.5-1.5S529.7,17,530.5,17z M523.5,18h3c0.3,0,0.5,0.2,0.5,0.5c0,0.3-0.2,0.5-0.5,0.5h-3c-0.3,0-0.5-0.2-0.5-0.5
		C523,18.2,523.2,18,523.5,18z"/>
	<path class="st3" d="M533.5,11h-11c-0.8,0-1.5,0.7-1.5,1.5V13h14v-0.5C535,11.7,534.3,11,533.5,11z"/>
</g>
<g>
	<path class="st3" d="M553,19.5c0,0.8,0.7,1.5,1.5,1.5h11c0.8,0,1.5-0.7,1.5-1.5V15h-14V19.5z M562.5,17c0.4,0,0.7,0.1,1,0.4
		c0.3-0.2,0.6-0.4,1-0.4c0.8,0,1.5,0.7,1.5,1.5s-0.7,1.5-1.5,1.5c-0.4,0-0.7-0.1-1-0.4c-0.3,0.2-0.6,0.4-1,0.4
		c-0.8,0-1.5-0.7-1.5-1.5S561.7,17,562.5,17z M555.5,18h3c0.3,0,0.5,0.2,0.5,0.5c0,0.3-0.2,0.5-0.5,0.5h-3c-0.3,0-0.5-0.2-0.5-0.5
		C555,18.2,555.2,18,555.5,18z"/>
	<path class="st3" d="M565.5,11h-11c-0.8,0-1.5,0.7-1.5,1.5V13h14v-0.5C567,11.7,566.3,11,565.5,11z"/>
</g>
<g>
	<path class="st3" d="M585,19.5c0,0.8,0.7,1.5,1.5,1.5h11c0.8,0,1.5-0.7,1.5-1.5V15h-14V19.5z M594.5,17c0.4,0,0.7,0.1,1,0.4
		c0.3-0.2,0.6-0.4,1-0.4c0.8,0,1.5,0.7,1.5,1.5s-0.7,1.5-1.5,1.5c-0.4,0-0.7-0.1-1-0.4c-0.3,0.2-0.6,0.4-1,0.4
		c-0.8,0-1.5-0.7-1.5-1.5S593.7,17,594.5,17z M587.5,18h3c0.3,0,0.5,0.2,0.5,0.5c0,0.3-0.2,0.5-0.5,0.5h-3c-0.3,0-0.5-0.2-0.5-0.5
		C587,18.2,587.2,18,587.5,18z"/>
	<path class="st3" d="M597.5,11h-11c-0.8,0-1.5,0.7-1.5,1.5V13h14v-0.5C599,11.7,598.3,11,597.5,11z"/>
</g>
<g>
	<path class="st3" d="M617,19.5c0,0.8,0.7,1.5,1.5,1.5h11c0.8,0,1.5-0.7,1.5-1.5V15h-14V19.5z M626.5,17c0.4,0,0.7,0.1,1,0.4
		c0.3-0.2,0.6-0.4,1-0.4c0.8,0,1.5,0.7,1.5,1.5s-0.7,1.5-1.5,1.5c-0.4,0-0.7-0.1-1-0.4c-0.3,0.2-0.6,0.4-1,0.4
		c-0.8,0-1.5-0.7-1.5-1.5S625.7,17,626.5,17z M619.5,18h3c0.3,0,0.5,0.2,0.5,0.5c0,0.3-0.2,0.5-0.5,0.5h-3c-0.3,0-0.5-0.2-0.5-0.5
		C619,18.2,619.2,18,619.5,18z"/>
	<path class="st3" d="M629.5,11h-11c-0.8,0-1.5,0.7-1.5,1.5V13h14v-0.5C631,11.7,630.3,11,629.5,11z"/>
</g>
<g>
	<path class="st3" d="M649,19.5c0,0.8,0.7,1.5,1.5,1.5h11c0.8,0,1.5-0.7,1.5-1.5V15h-14V19.5z M658.5,17c0.4,0,0.7,0.1,1,0.4
		c0.3-0.2,0.6-0.4,1-0.4c0.8,0,1.5,0.7,1.5,1.5s-0.7,1.5-1.5,1.5c-0.4,0-0.7-0.1-1-0.4c-0.3,0.2-0.6,0.4-1,0.4
		c-0.8,0-1.5-0.7-1.5-1.5S657.7,17,658.5,17z M651.5,18h3c0.3,0,0.5,0.2,0.5,0.5c0,0.3-0.2,0.5-0.5,0.5h-3c-0.3,0-0.5-0.2-0.5-0.5
		C651,18.2,651.2,18,651.5,18z"/>
	<path class="st3" d="M661.5,11h-11c-0.8,0-1.5,0.7-1.5,1.5V13h14v-0.5C663,11.7,662.3,11,661.5,11z"/>
</g>
<g>
	<path class="st3" d="M681,19.5c0,0.8,0.7,1.5,1.5,1.5h11c0.8,0,1.5-0.7,1.5-1.5V15h-14V19.5z M690.5,17c0.4,0,0.7,0.1,1,0.4
		c0.3-0.2,0.6-0.4,1-0.4c0.8,0,1.5,0.7,1.5,1.5s-0.7,1.5-1.5,1.5c-0.4,0-0.7-0.1-1-0.4c-0.3,0.2-0.6,0.4-1,0.4
		c-0.8,0-1.5-0.7-1.5-1.5S689.7,17,690.5,17z M683.5,18h3c0.3,0,0.5,0.2,0.5,0.5c0,0.3-0.2,0.5-0.5,0.5h-3c-0.3,0-0.5-0.2-0.5-0.5
		C683,18.2,683.2,18,683.5,18z"/>
	<path class="st3" d="M693.5,11h-11c-0.8,0-1.5,0.7-1.5,1.5V13h14v-0.5C695,11.7,694.3,11,693.5,11z"/>
</g>
<g>
	<path class="st3" d="M713,19.5c0,0.8,0.7,1.5,1.5,1.5h11c0.8,0,1.5-0.7,1.5-1.5V15h-14V19.5z M722.5,17c0.4,0,0.7,0.1,1,0.4
		c0.3-0.2,0.6-0.4,1-0.4c0.8,0,1.5,0.7,1.5,1.5s-0.7,1.5-1.5,1.5c-0.4,0-0.7-0.1-1-0.4c-0.3,0.2-0.6,0.4-1,0.4
		c-0.8,0-1.5-0.7-1.5-1.5S721.7,17,722.5,17z M715.5,18h3c0.3,0,0.5,0.2,0.5,0.5c0,0.3-0.2,0.5-0.5,0.5h-3c-0.3,0-0.5-0.2-0.5-0.5
		C715,18.2,715.2,18,715.5,18z"/>
	<path class="st3" d="M725.5,11h-11c-0.8,0-1.5,0.7-1.5,1.5V13h14v-0.5C727,11.7,726.3,11,725.5,11z"/>
</g>
<g>
	<path class="st3" d="M745,19.5c0,0.8,0.7,1.5,1.5,1.5h11c0.8,0,1.5-0.7,1.5-1.5V15h-14V19.5z M754.5,17c0.4,0,0.7,0.1,1,0.4
		c0.3-0.2,0.6-0.4,1-0.4c0.8,0,1.5,0.7,1.5,1.5s-0.7,1.5-1.5,1.5c-0.4,0-0.7-0.1-1-0.4c-0.3,0.2-0.6,0.4-1,0.4
		c-0.8,0-1.5-0.7-1.5-1.5S753.7,17,754.5,17z M747.5,18h3c0.3,0,0.5,0.2,0.5,0.5c0,0.3-0.2,0.5-0.5,0.5h-3c-0.3,0-0.5-0.2-0.5-0.5
		C747,18.2,747.2,18,747.5,18z"/>
	<path class="st3" d="M757.5,11h-11c-0.8,0-1.5,0.7-1.5,1.5V13h14v-0.5C759,11.7,758.3,11,757.5,11z"/>
</g>
<g>
	<path class="st3" d="M777,19.5c0,0.8,0.7,1.5,1.5,1.5h11c0.8,0,1.5-0.7,1.5-1.5V15h-14V19.5z M786.5,17c0.4,0,0.7,0.1,1,0.4
		c0.3-0.2,0.6-0.4,1-0.4c0.8,0,1.5,0.7,1.5,1.5s-0.7,1.5-1.5,1.5c-0.4,0-0.7-0.1-1-0.4c-0.3,0.2-0.6,0.4-1,0.4
		c-0.8,0-1.5-0.7-1.5-1.5S785.7,17,786.5,17z M779.5,18h3c0.3,0,0.5,0.2,0.5,0.5c0,0.3-0.2,0.5-0.5,0.5h-3c-0.3,0-0.5-0.2-0.5-0.5
		C779,18.2,779.2,18,779.5,18z"/>
	<path class="st3" d="M789.5,11h-11c-0.8,0-1.5,0.7-1.5,1.5V13h14v-0.5C791,11.7,790.3,11,789.5,11z"/>
</g>
<path class="st3" d="M937,19.5c0,0.8,0.7,1.5,1.5,1.5h11c0.8,0,1.5-0.7,1.5-1.5V15h-14V19.5z M946.5,17c0.4,0,0.7,0.1,1,0.4
	c0.3-0.2,0.6-0.4,1-0.4c0.8,0,1.5,0.7,1.5,1.5s-0.7,1.5-1.5,1.5c-0.4,0-0.7-0.1-1-0.4c-0.3,0.2-0.6,0.4-1,0.4
	c-0.8,0-1.5-0.7-1.5-1.5S945.7,17,946.5,17z M939.5,18h3c0.3,0,0.5,0.2,0.5,0.5c0,0.3-0.2,0.5-0.5,0.5h-3c-0.3,0-0.5-0.2-0.5-0.5
	C939,18.2,939.2,18,939.5,18z"/>
<path class="st3" d="M949.5,11h-11c-0.8,0-1.5,0.7-1.5,1.5V13h14v-0.5C951,11.7,950.3,11,949.5,11z"/>
<g>
	<g>
		<defs>
			<path id="SVGID_3_" d="M105,19.5c0,0.8,0.7,1.5,1.5,1.5h11c0.8,0,1.5-0.7,1.5-1.5V15h-14V19.5z M114.5,17c0.4,0,0.7,0.1,1,0.4
				c0.3-0.2,0.6-0.4,1-0.4c0.8,0,1.5,0.7,1.5,1.5s-0.7,1.5-1.5,1.5c-0.4,0-0.7-0.1-1-0.4c-0.3,0.2-0.6,0.4-1,0.4
				c-0.8,0-1.5-0.7-1.5-1.5S113.7,17,114.5,17z M107.5,18h3c0.3,0,0.5,0.2,0.5,0.5c0,0.3-0.2,0.5-0.5,0.5h-3c-0.3,0-0.5-0.2-0.5-0.5
				C107,18.2,107.2,18,107.5,18z"/>
		</defs>
		<clipPath id="SVGID_4_">
			<use xlink:href="#SVGID_3_"  style="overflow:visible;"/>
		</clipPath>
		<rect x="105" y="11" class="st4" width="14" height="10"/>
		<circle class="st5" cx="112" cy="24" r="5"/>
	</g>
	<path class="st0" d="M117.5,11h-11c-0.8,0-1.5,0.7-1.5,1.5V13h14v-0.5C119,11.7,118.3,11,117.5,11z"/>
</g>
<g>
	<g>
		<defs>
			<path id="SVGID_5_" d="M137,19.5c0,0.8,0.7,1.5,1.5,1.5h11c0.8,0,1.5-0.7,1.5-1.5V15h-14V19.5z M146.5,17c0.4,0,0.7,0.1,1,0.4
				c0.3-0.2,0.6-0.4,1-0.4c0.8,0,1.5,0.7,1.5,1.5s-0.7,1.5-1.5,1.5c-0.4,0-0.7-0.1-1-0.4c-0.3,0.2-0.6,0.4-1,0.4
				c-0.8,0-1.5-0.7-1.5-1.5S145.7,17,146.5,17z M139.5,18h3c0.3,0,0.5,0.2,0.5,0.5c0,0.3-0.2,0.5-0.5,0.5h-3c-0.3,0-0.5-0.2-0.5-0.5
				C139,18.2,139.2,18,139.5,18z"/>
		</defs>
		<clipPath id="SVGID_6_">
			<use xlink:href="#SVGID_5_"  style="overflow:visible;"/>
		</clipPath>
		<rect x="137" y="11" class="st6" width="14" height="10"/>
		<circle class="st7" cx="144" cy="24" r="7"/>
	</g>
	<path class="st0" d="M149.5,11h-11c-0.8,0-1.5,0.7-1.5,1.5V13h14v-0.5C151,11.7,150.3,11,149.5,11z"/>
</g>
<g>
	<g>
		<defs>
			<path id="SVGID_7_" d="M169,19.5c0,0.8,0.7,1.5,1.5,1.5h11c0.8,0,1.5-0.7,1.5-1.5V15h-14V19.5z M178.5,17c0.4,0,0.7,0.1,1,0.4
				c0.3-0.2,0.6-0.4,1-0.4c0.8,0,1.5,0.7,1.5,1.5s-0.7,1.5-1.5,1.5c-0.4,0-0.7-0.1-1-0.4c-0.3,0.2-0.6,0.4-1,0.4
				c-0.8,0-1.5-0.7-1.5-1.5S177.7,17,178.5,17z M171.5,18h3c0.3,0,0.5,0.2,0.5,0.5c0,0.3-0.2,0.5-0.5,0.5h-3c-0.3,0-0.5-0.2-0.5-0.5
				C171,18.2,171.2,18,171.5,18z"/>
		</defs>
		<clipPath id="SVGID_8_">
			<use xlink:href="#SVGID_7_"  style="overflow:visible;"/>
		</clipPath>
		<rect x="169" y="11" class="st8" width="14" height="10"/>
		<circle class="st9" cx="176" cy="24" r="9"/>
	</g>
	<path class="st0" d="M181.5,11h-11c-0.8,0-1.5,0.7-1.5,1.5V13h14v-0.5C183,11.7,182.3,11,181.5,11z"/>
</g>
<path class="st3" d="M247,13c-2-1.3-4.4-2-6.9-2s-4.9,0.7-6.9,2H247z"/>
<g>
	<path class="st3" d="M264.8,19.6c0,0.8,0.7,1.5,1.5,1.5h11.4c0.8,0,1.5-0.7,1.5-1.5V15h-14.4V19.6z M274.6,17c0.4,0,0.8,0.2,1,0.4
		c0.3-0.2,0.6-0.4,1-0.4c0.9,0,1.5,0.7,1.5,1.5s-0.7,1.5-1.5,1.5c-0.4,0-0.8-0.2-1-0.4c-0.3,0.2-0.6,0.4-1,0.4
		c-0.9,0-1.5-0.7-1.5-1.5S273.7,17,274.6,17z M267.4,18.1h3.1c0.3,0,0.5,0.2,0.5,0.5c0,0.3-0.2,0.5-0.5,0.5h-3.1
		c-0.3,0-0.5-0.2-0.5-0.5C266.9,18.3,267.1,18.1,267.4,18.1z"/>
	<path class="st3" d="M277.7,10.9h-11.4c-0.8,0-1.5,0.7-1.5,1.5v0.5h14.4v-0.5C279.2,11.5,278.5,10.9,277.7,10.9z"/>
</g>
<g>
	<path class="st3" d="M296.4,19.8c0,0.9,0.7,1.6,1.6,1.6H310c0.9,0,1.6-0.7,1.6-1.6v-4.9h-15.1V19.8z M306.7,17.1
		c0.4,0,0.8,0.2,1.1,0.4c0.3-0.3,0.7-0.4,1.1-0.4c0.9,0,1.6,0.7,1.6,1.6c0,0.9-0.7,1.6-1.6,1.6c-0.4,0-0.8-0.2-1.1-0.4
		c-0.3,0.3-0.7,0.4-1.1,0.4c-0.9,0-1.6-0.7-1.6-1.6C305.1,17.8,305.8,17.1,306.7,17.1z M299.1,18.2h3.2c0.3,0,0.5,0.2,0.5,0.5
		c0,0.3-0.2,0.5-0.5,0.5h-3.2c-0.3,0-0.5-0.2-0.5-0.5C298.6,18.4,298.8,18.2,299.1,18.2z"/>
	<path class="st3" d="M310,10.6H298c-0.9,0-1.6,0.7-1.6,1.6v0.6h15.1v-0.6C311.6,11.3,310.8,10.6,310,10.6z"/>
</g>
<g>
	<path class="st3" d="M328,20c0,0.9,0.8,1.7,1.7,1.7h12.7c0.9,0,1.7-0.8,1.7-1.7v-5.2H328V20z M338.9,17.1c0.4,0,0.8,0.2,1.1,0.4
		c0.3-0.3,0.7-0.4,1.1-0.4c1,0,1.7,0.8,1.7,1.7s-0.8,1.7-1.7,1.7c-0.4,0-0.8-0.2-1.1-0.4c-0.3,0.3-0.7,0.4-1.1,0.4
		c-1,0-1.7-0.8-1.7-1.7S337.9,17.1,338.9,17.1z M330.8,18.3h3.4c0.3,0,0.6,0.3,0.6,0.6c0,0.3-0.3,0.6-0.6,0.6h-3.4
		c-0.3,0-0.6-0.3-0.6-0.6C330.2,18.6,330.5,18.3,330.8,18.3z"/>
	<path class="st3" d="M342.3,10.2h-12.7c-0.9,0-1.7,0.8-1.7,1.7v0.6H344V12C344,11,343.3,10.2,342.3,10.2z"/>
</g>
<circle class="st10" cx="301.5" cy="10.5" r="1.5"/>
<circle class="st10" cx="306.5" cy="10.5" r="1.5"/>
<circle class="st10" cx="310.5" cy="11.5" r="1.5"/>
<circle class="st10" cx="297.5" cy="11.5" r="1.5"/>
<circle class="st10" cx="333.2" cy="9.5" r="1.5"/>
<circle class="st10" cx="338.8" cy="9.5" r="1.5"/>
<circle class="st10" cx="343.1" cy="10.5" r="1.5"/>
<circle class="st10" cx="328.9" cy="10.5" r="1.5"/>
<ellipse class="st10" cx="365" cy="7.5" rx="1.5" ry="1.5"/>
<ellipse class="st10" cx="371" cy="7.5" rx="1.5" ry="1.5"/>
<ellipse class="st10" cx="375.8" cy="8.5" rx="1.5" ry="1.5"/>
<ellipse class="st10" cx="360.2" cy="8.5" rx="1.5" ry="1.5"/>
<circle class="st10" cx="396.8" cy="5.5" r="1.5"/>
<circle class="st10" cx="403.2" cy="5.5" r="1.5"/>
<circle class="st10" cx="408.5" cy="6.5" r="1.5"/>
<circle class="st10" cx="391.5" cy="6.5" r="1.5"/>
<ellipse class="st10" cx="428.5" cy="4.5" rx="1.5" ry="1.5"/>
<ellipse class="st10" cx="435.5" cy="4.5" rx="1.5" ry="1.5"/>
<ellipse class="st10" cx="441.1" cy="5.5" rx="1.5" ry="1.5"/>
<ellipse class="st10" cx="422.9" cy="5.5" rx="1.5" ry="1.5"/>
<ellipse class="st10" cx="460.2" cy="3.5" rx="1.5" ry="1.5"/>
<ellipse class="st10" cx="467.8" cy="3.5" rx="1.5" ry="1.5"/>
<ellipse class="st10" cx="473.8" cy="4.5" rx="1.5" ry="1.5"/>
<ellipse class="st10" cx="454.2" cy="4.5" rx="1.5" ry="1.5"/>
<circle class="st10" cx="492" cy="4.5" r="1.5"/>
<circle class="st10" cx="500" cy="4.5" r="1.5"/>
<circle class="st10" cx="506.4" cy="5.5" r="1.5"/>
<circle class="st10" cx="485.6" cy="5.5" r="1.5"/>
<ellipse class="st10" cx="523.8" cy="6.5" rx="1.5" ry="1.5"/>
<ellipse class="st10" cx="532.2" cy="6.5" rx="1.5" ry="1.5"/>
<ellipse class="st10" cx="539" cy="7.5" rx="1.5" ry="1.5"/>
<ellipse class="st10" cx="517" cy="7.5" rx="1.5" ry="1.5"/>
<circle class="st10" cx="555.5" cy="8.5" r="1.5"/>
<circle class="st10" cx="564.5" cy="8.5" r="1.5"/>
<circle class="st10" cx="571.7" cy="9.5" r="1.5"/>
<circle class="st10" cx="548.3" cy="9.5" r="1.5"/>
<circle class="st10" cx="587.2" cy="12.5" r="1.5"/>
<circle class="st10" cx="596.8" cy="12.5" r="1.5"/>
<circle class="st10" cx="604.3" cy="13.5" r="1.5"/>
<circle class="st10" cx="579.7" cy="13.5" r="1.5"/>
<circle class="st10" cx="619" cy="17.5" r="1.5"/>
<circle class="st10" cx="629" cy="17.5" r="1.5"/>
<circle class="st10" cx="637" cy="17.5" r="1.5"/>
<circle class="st10" cx="611" cy="17.5" r="1.5"/>
<circle class="st11" cx="651" cy="21.5" r="1.4"/>
<circle class="st11" cx="661" cy="21.5" r="1.4"/>
<circle class="st11" cx="669" cy="21.4" r="1.4"/>
<circle class="st11" cx="643" cy="21.4" r="1.4"/>
<circle class="st12" cx="683" cy="25.5" r="1"/>
<circle class="st12" cx="693" cy="25.5" r="1"/>
<circle class="st12" cx="701" cy="25" r="1"/>
<circle class="st12" cx="675" cy="25" r="1"/>
<circle class="st13" cx="715" cy="29.5" r="0.6"/>
<circle class="st13" cx="725" cy="29.5" r="0.6"/>
<circle class="st13" cx="733" cy="28.6" r="0.6"/>
<circle class="st13" cx="707" cy="28.6" r="0.6"/>
<path class="st3" d="M809,19.5c0,0.8,0.7,1.5,1.5,1.5h11c0.8,0,1.5-0.7,1.5-1.5V15h-14V19.5z M818.5,17c0.4,0,0.7,0.1,1,0.4
	c0.3-0.2,0.6-0.4,1-0.4c0.8,0,1.5,0.7,1.5,1.5s-0.7,1.5-1.5,1.5c-0.4,0-0.7-0.1-1-0.4c-0.3,0.2-0.6,0.4-1,0.4
	c-0.8,0-1.5-0.7-1.5-1.5S817.7,17,818.5,17z M811.5,18h3c0.3,0,0.5,0.2,0.5,0.5c0,0.3-0.2,0.5-0.5,0.5h-3c-0.3,0-0.5-0.2-0.5-0.5
	C811,18.2,811.2,18,811.5,18z"/>
<path class="st3" d="M821.5,11h-11c-0.8,0-1.5,0.7-1.5,1.5V13h14v-0.5C823,11.7,822.3,11,821.5,11z"/>
<path class="st3" d="M841,19.5c0,0.8,0.7,1.5,1.5,1.5h11c0.8,0,1.5-0.7,1.5-1.5V15h-14V19.5z M850.5,17c0.4,0,0.7,0.1,1,0.4
	c0.3-0.2,0.6-0.4,1-0.4c0.8,0,1.5,0.7,1.5,1.5s-0.7,1.5-1.5,1.5c-0.4,0-0.7-0.1-1-0.4c-0.3,0.2-0.6,0.4-1,0.4
	c-0.8,0-1.5-0.7-1.5-1.5S849.7,17,850.5,17z M843.5,18h3c0.3,0,0.5,0.2,0.5,0.5c0,0.3-0.2,0.5-0.5,0.5h-3c-0.3,0-0.5-0.2-0.5-0.5
	C843,18.2,843.2,18,843.5,18z"/>
<path class="st3" d="M853.5,11h-11c-0.8,0-1.5,0.7-1.5,1.5V13h14v-0.5C855,11.7,854.3,11,853.5,11z"/>
<path class="st3" d="M873,19.5c0,0.8,0.7,1.5,1.5,1.5h11c0.8,0,1.5-0.7,1.5-1.5V15h-14V19.5z M882.5,17c0.4,0,0.7,0.1,1,0.4
	c0.3-0.2,0.6-0.4,1-0.4c0.8,0,1.5,0.7,1.5,1.5s-0.7,1.5-1.5,1.5c-0.4,0-0.7-0.1-1-0.4c-0.3,0.2-0.6,0.4-1,0.4
	c-0.8,0-1.5-0.7-1.5-1.5S881.7,17,882.5,17z M875.5,18h3c0.3,0,0.5,0.2,0.5,0.5c0,0.3-0.2,0.5-0.5,0.5h-3c-0.3,0-0.5-0.2-0.5-0.5
	C875,18.2,875.2,18,875.5,18z"/>
<path class="st3" d="M885.5,11h-11c-0.8,0-1.5,0.7-1.5,1.5V13h14v-0.5C887,11.7,886.3,11,885.5,11z"/>
<path class="st3" d="M905,19.5c0,0.8,0.7,1.5,1.5,1.5h11c0.8,0,1.5-0.7,1.5-1.5V15h-14V19.5z M914.5,17c0.4,0,0.7,0.1,1,0.4
	c0.3-0.2,0.6-0.4,1-0.4c0.8,0,1.5,0.7,1.5,1.5s-0.7,1.5-1.5,1.5c-0.4,0-0.7-0.1-1-0.4c-0.3,0.2-0.6,0.4-1,0.4
	c-0.8,0-1.5-0.7-1.5-1.5S913.7,17,914.5,17z M907.5,18h3c0.3,0,0.5,0.2,0.5,0.5c0,0.3-0.2,0.5-0.5,0.5h-3c-0.3,0-0.5-0.2-0.5-0.5
	C907,18.2,907.2,18,907.5,18z"/>
<path class="st3" d="M917.5,11h-11c-0.8,0-1.5,0.7-1.5,1.5V13h14v-0.5C919,11.7,918.3,11,917.5,11z"/>
</svg>
