<svg xmlns="http://www.w3.org/2000/svg" viewBox="0 0 960 32"><defs><style>.a{fill:#9c27b0;}.b{fill:#4a148c;}.c{fill:#606060;}</style></defs><path class="a" d="M623.65,9.2h.7a.5.5,0,0,1,.5.5v8a0,0,0,0,1,0,0h-1.7a0,0,0,0,1,0,0v-8A.5.5,0,0,1,623.65,9.2Z"/><path class="a" d="M658.799,13.699l-1.949,1.949V9.625a.425.425,0,0,0-.425-.425h-.85a.425.425,0,0,0-.425.425v6.023l-1.949-1.949-1.202,1.202L656,18.902l4.001-4.001Z"/><path class="a" d="M690.799,13.699l-1.949,1.949V9.625a.425.425,0,0,0-.425-.425h-.85a.425.425,0,0,0-.425.425v6.023l-1.949-1.949-1.202,1.202L688,18.902l4.001-4.001Z"/><path class="a" d="M722.799,13.699l-1.949,1.949V9.625a.425.425,0,0,0-.425-.425h-.85a.425.425,0,0,0-.425.425v6.023l-1.949-1.949-1.202,1.202L720,18.902l4.001-4.001Z"/><path class="a" d="M757.1,16.425v3.4a.425.425,0,0,1-.425.425h-9.35a.425.425,0,0,1-.425-.425v-3.4a.425.425,0,0,0-.425-.425h-.85a.425.425,0,0,0-.425.425V20.25h0a1.7,1.7,0,0,0,1.7,1.7h10.2a1.7,1.7,0,0,0,1.7-1.7h0V16.425a.425.425,0,0,0-.425-.425h-.85A.425.425,0,0,0,757.1,16.425Z"/><path class="a" d="M754.799,13.699l-1.949,1.949V9.625a.425.425,0,0,0-.425-.425h-.85a.425.425,0,0,0-.425.425v6.023l-1.949-1.949-1.202,1.202L752,18.902l4.001-4.001Z"/><path class="a" d="M789.1,16.425v3.4a.425.425,0,0,1-.425.425h-9.35a.425.425,0,0,1-.425-.425v-3.4a.425.425,0,0,0-.425-.425h-.85a.425.425,0,0,0-.425.425V20.25h0a1.7,1.7,0,0,0,1.7,1.7h10.2a1.7,1.7,0,0,0,1.7-1.7h0V16.425a.425.425,0,0,0-.425-.425h-.85A.425.425,0,0,0,789.1,16.425Z"/><path class="a" d="M786.799,13.699l-1.949,1.949V9.625a.425.425,0,0,0-.425-.425h-.85a.425.425,0,0,0-.425.425v6.023l-1.949-1.949-1.202,1.202L784,18.902l4.001-4.001Z"/><path class="a" d="M821.1,16.425v3.4a.425.425,0,0,1-.425.425h-9.35a.425.425,0,0,1-.425-.425v-3.4a.425.425,0,0,0-.425-.425h-.85a.425.425,0,0,0-.425.425V20.25h0a1.7,1.7,0,0,0,1.7,1.7h10.2a1.7,1.7,0,0,0,1.7-1.7h0V16.425a.425.425,0,0,0-.425-.425h-.85A.425.425,0,0,0,821.1,16.425Z"/><path class="a" d="M818.799,13.699l-1.949,1.949V9.625a.425.425,0,0,0-.425-.425h-.85a.425.425,0,0,0-.425.425v6.023l-1.949-1.949-1.202,1.202L816,18.902l4.001-4.001Z"/><path class="a" d="M853.1,16.425v3.4a.425.425,0,0,1-.425.425h-9.35a.425.425,0,0,1-.425-.425v-3.4a.425.425,0,0,0-.425-.425h-.85a.425.425,0,0,0-.425.425V20.25h0a1.7,1.7,0,0,0,1.7,1.7h10.2a1.7,1.7,0,0,0,1.7-1.7h0V16.425a.425.425,0,0,0-.425-.425h-.85A.425.425,0,0,0,853.1,16.425Z"/><path class="a" d="M850.799,13.699l-1.949,1.949V9.625a.425.425,0,0,0-.425-.425h-.85a.425.425,0,0,0-.425.425v6.023l-1.949-1.949-1.202,1.202L848,18.902l4.001-4.001Z"/><path class="a" d="M885.1,16.425v3.4a.425.425,0,0,1-.425.425h-9.35a.425.425,0,0,1-.425-.425v-3.4a.425.425,0,0,0-.425-.425h-.85a.425.425,0,0,0-.425.425V20.25h0a1.7,1.7,0,0,0,1.7,1.7h10.2a1.7,1.7,0,0,0,1.7-1.7h0V16.425a.425.425,0,0,0-.425-.425h-.85A.425.425,0,0,0,885.1,16.425Z"/><path class="a" d="M882.799,13.699l-1.949,1.949V9.625a.425.425,0,0,0-.425-.425h-.85a.425.425,0,0,0-.425.425v6.023l-1.949-1.949-1.202,1.202L880,18.902l4.001-4.001Z"/><path class="a" d="M949.1,16.425v3.4a.425.425,0,0,1-.425.425h-9.35a.425.425,0,0,1-.425-.425v-3.4a.425.425,0,0,0-.425-.425h-.85a.425.425,0,0,0-.425.425V20.25h0a1.7,1.7,0,0,0,1.7,1.7h10.2a1.7,1.7,0,0,0,1.7-1.7h0V16.425a.425.425,0,0,0-.425-.425h-.85A.425.425,0,0,0,949.1,16.425Z"/><path class="a" d="M946.799,13.699l-1.949,1.949V9.625a.425.425,0,0,0-.425-.425h-.85a.425.425,0,0,0-.425.425v6.023l-1.949-1.949-1.202,1.202L944,18.902l4.001-4.001Z"/><path class="a" d="M917.1,16.425v3.4a.425.425,0,0,1-.425.425h-9.35a.425.425,0,0,1-.425-.425v-3.4a.425.425,0,0,0-.425-.425h-.85a.425.425,0,0,0-.425.425V20.25h0a1.7,1.7,0,0,0,1.7,1.7h10.2a1.7,1.7,0,0,0,1.7-1.7h0V16.425a.425.425,0,0,0-.425-.425h-.85A.425.425,0,0,0,917.1,16.425Z"/><path class="a" d="M914.799,13.699l-1.949,1.949V9.625a.425.425,0,0,0-.425-.425h-.85a.425.425,0,0,0-.425.425v6.023l-1.949-1.949-1.202,1.202L912,18.902l4.001-4.001Z"/><path class="b" d="M470.375,11.75H469.1a13.3562,13.3562,0,0,0-10.2,0h-1.275a.425.425,0,0,0-.425.425V20.25a1.7,1.7,0,0,0,1.7,1.7h10.2a1.7,1.7,0,0,0,1.7-1.7V12.175A.425.425,0,0,0,470.375,11.75Z"/><path class="c" d="M309.1,16.425v3.4a.425.425,0,0,1-.425.425h-9.35a.425.425,0,0,1-.425-.425v-3.4a.425.425,0,0,0-.425-.425h-.85a.425.425,0,0,0-.425.425V20.25h0a1.7,1.7,0,0,0,1.7,1.7h10.2a1.7,1.7,0,0,0,1.7-1.7h0V16.425a.425.425,0,0,0-.425-.425h-.85A.425.425,0,0,0,309.1,16.425Z"/><path class="c" d="M245.1,16.425v3.4a.425.425,0,0,1-.425.425h-9.35a.425.425,0,0,1-.425-.425v-3.4a.425.425,0,0,0-.425-.425h-.85a.425.425,0,0,0-.425.425V20.25h0a1.7,1.7,0,0,0,1.7,1.7h10.2a1.7,1.7,0,0,0,1.7-1.7h0V16.425a.425.425,0,0,0-.425-.425h-.85A.425.425,0,0,0,245.1,16.425Z"/><path class="b" d="M242.799,12.849l-1.949,1.949V8.775a.425.425,0,0,0-.425-.425h-.85a.425.425,0,0,0-.425.425v6.023l-1.949-1.949-1.202,1.202L240,18.052l4.001-4.001Z"/><path class="c" d="M213.1,16.425v3.4a.425.425,0,0,1-.425.425h-9.35a.425.425,0,0,1-.425-.425v-3.4a.425.425,0,0,0-.425-.425h-.85a.425.425,0,0,0-.425.425V20.25h0a1.7,1.7,0,0,0,1.7,1.7h10.2a1.7,1.7,0,0,0,1.7-1.7h0V16.425a.425.425,0,0,0-.425-.425h-.85A.425.425,0,0,0,213.1,16.425Z"/><path class="b" d="M210.799,9.449l-1.949,1.949V5.375a.425.425,0,0,0-.425-.425h-.85a.425.425,0,0,0-.425.425v6.023l-1.949-1.949-1.202,1.202L208,14.652l4.001-4.001Z"/><path class="c" d="M181.1,16.425v3.4a.425.425,0,0,1-.425.425h-9.35a.425.425,0,0,1-.425-.425v-3.4a.425.425,0,0,0-.425-.425h-.85a.425.425,0,0,0-.425.425V20.25h0a1.7,1.7,0,0,0,1.7,1.7h10.2a1.7,1.7,0,0,0,1.7-1.7h0V16.425a.425.425,0,0,0-.425-.425h-.85A.425.425,0,0,0,181.1,16.425Z"/><path class="b" d="M178.799,6.049,176.85,7.998V1.975a.425.425,0,0,0-.425-.425h-.85a.425.425,0,0,0-.425.425V7.998l-1.949-1.949-1.202,1.202L176,11.252l4.001-4.001Z"/><path class="c" d="M149.1,16.425v3.4a.425.425,0,0,1-.425.425h-9.35a.425.425,0,0,1-.425-.425v-3.4a.425.425,0,0,0-.425-.425h-.85a.425.425,0,0,0-.425.425V20.25h0a1.7,1.7,0,0,0,1.7,1.7h10.2a1.7,1.7,0,0,0,1.7-1.7h0V16.425a.425.425,0,0,0-.425-.425h-.85A.425.425,0,0,0,149.1,16.425Z"/><path class="b" d="M146.799,2.649,144.85,4.598V-1.425a.425.425,0,0,0-.425-.425h-.85a.425.425,0,0,0-.425.425V4.598l-1.949-1.949-1.202,1.202L144,7.852l4.001-4.001Z"/><path class="c" d="M117.1,16.425v3.4a.425.425,0,0,1-.425.425h-9.35a.425.425,0,0,1-.425-.425v-3.4a.425.425,0,0,0-.425-.425h-.85a.425.425,0,0,0-.425.425V20.25h0a1.7,1.7,0,0,0,1.7,1.7h10.2a1.7,1.7,0,0,0,1.7-1.7h0V16.425a.425.425,0,0,0-.425-.425h-.85A.425.425,0,0,0,117.1,16.425Z"/><path class="b" d="M114.799.099,112.85,2.048V-3.975a.425.425,0,0,0-.425-.425h-.85a.425.425,0,0,0-.425.425V2.048L109.201.099l-1.202,1.202L112,5.302l4.001-4.001Z"/><path class="c" d="M85.1,16.425v3.4a.425.425,0,0,1-.425.425h-9.35a.425.425,0,0,1-.425-.425v-3.4A.425.425,0,0,0,74.475,16h-.85a.425.425,0,0,0-.425.425V20.25h0a1.7,1.7,0,0,0,1.7,1.7H85.1a1.7,1.7,0,0,0,1.7-1.7h0V16.425A.425.425,0,0,0,86.375,16h-.85A.425.425,0,0,0,85.1,16.425Z"/><path class="b" d="M82.799-1.601,80.85.348V-5.675a.425.425,0,0,0-.425-.425h-.85a.425.425,0,0,0-.425.425V.348L77.201-1.601,75.999-.399,80,3.602,84.001-.399Z"/><path class="c" d="M53.1,16.425v3.4a.425.425,0,0,1-.425.425h-9.35a.425.425,0,0,1-.425-.425v-3.4A.425.425,0,0,0,42.475,16h-.85a.425.425,0,0,0-.425.425V20.25h0a1.7,1.7,0,0,0,1.7,1.7H53.1a1.7,1.7,0,0,0,1.7-1.7h0V16.425A.425.425,0,0,0,54.375,16h-.85A.425.425,0,0,0,53.1,16.425Z"/><path class="c" d="M22.375,16h-.85a.425.425,0,0,0-.425.425v3.4a.425.425,0,0,1-.425.425h-9.35a.425.425,0,0,1-.425-.425v-3.4A.425.425,0,0,0,10.475,16h-.85a.425.425,0,0,0-.425.425V20.25a1.7,1.7,0,0,0,1.7,1.7H21.1a1.7,1.7,0,0,0,1.7-1.7V16.425A.425.425,0,0,0,22.375,16Z"/><path class="c" d="M20.001,14.901l-1.202-1.202L16.85,15.648V9.625a.425.425,0,0,0-.425-.425h-.85a.425.425,0,0,0-.425.425v6.023l-1.949-1.949-1.202,1.202L16,18.902Z"/><path class="c" d="M277.1,16.425v3.4a.425.425,0,0,1-.425.425h-9.35a.425.425,0,0,1-.425-.425v-3.4a.425.425,0,0,0-.425-.425h-.85a.425.425,0,0,0-.425.425V20.25h0a1.7,1.7,0,0,0,1.7,1.7h10.2a1.7,1.7,0,0,0,1.7-1.7h0V16.425a.425.425,0,0,0-.425-.425h-.85A.425.425,0,0,0,277.1,16.425Z"/><path class="c" d="M341.1,16.425v3.4a.425.425,0,0,1-.425.425h-9.35a.425.425,0,0,1-.425-.425v-3.4a.425.425,0,0,0-.425-.425h-.85a.425.425,0,0,0-.425.425V20.25h0a1.7,1.7,0,0,0,1.7,1.7h10.2a1.7,1.7,0,0,0,1.7-1.7h0V16.425a.425.425,0,0,0-.425-.425h-.85A.425.425,0,0,0,341.1,16.425Z"/><path class="b" d="M502.375,10.9H501.1a13.3562,13.3562,0,0,0-10.2,0h-1.275a.425.425,0,0,0-.425.425V20.25a1.7,1.7,0,0,0,1.7,1.7h10.2a1.7,1.7,0,0,0,1.7-1.7V11.325A.425.425,0,0,0,502.375,10.9Z"/><path class="b" d="M406.375,13.45h-.85a.425.425,0,0,0-.425.425l-.1478.0369a42.2943,42.2943,0,0,1-9.9044,0L394.9,13.875a.425.425,0,0,0-.425-.425h-.85a.425.425,0,0,0-.425.425V20.25a1.7,1.7,0,0,0,1.7,1.7h10.2a1.7,1.7,0,0,0,1.7-1.7V13.875A.425.425,0,0,0,406.375,13.45Z"/><path class="b" d="M725.1,8.35H714.9a1.7,1.7,0,0,0-1.7,1.7v10.2a1.7,1.7,0,0,0,1.7,1.7h10.2a1.7,1.7,0,0,0,1.7-1.7V10.05A1.7,1.7,0,0,0,725.1,8.35ZM720,20.25a5.1,5.1,0,1,1,5.1-5.1A5.1,5.1,0,0,1,720,20.25Z"/><path class="b" d="M693.1,8.35H682.9a1.7,1.7,0,0,0-1.7,1.7v10.2a1.7,1.7,0,0,0,1.7,1.7h10.2a1.7,1.7,0,0,0,1.7-1.7V10.05A1.7,1.7,0,0,0,693.1,8.35ZM688,18.55a3.4,3.4,0,1,1,3.4-3.4A3.4,3.4,0,0,1,688,18.55Z"/><path class="b" d="M565.5272,8.4108l-.0022-.0193a18.7823,18.7823,0,0,0-11.05,0l-.0022.0193A1.696,1.696,0,0,0,553.2,10.05v10.2a1.7,1.7,0,0,0,1.7,1.7h10.2a1.7,1.7,0,0,0,1.7-1.7V10.05A1.696,1.696,0,0,0,565.5272,8.4108Z"/><path class="b" d="M597.1,8.35H586.9a1.7,1.7,0,0,0-1.7,1.7v10.2a1.7,1.7,0,0,0,1.7,1.7h10.2a1.7,1.7,0,0,0,1.7-1.7V10.05A1.7,1.7,0,0,0,597.1,8.35Z"/><path class="b" d="M629.1,8.35H618.9a1.7,1.7,0,0,0-1.7,1.7v10.2a1.7,1.7,0,0,0,1.7,1.7h10.2a1.7,1.7,0,0,0,1.7-1.7V10.05A1.7,1.7,0,0,0,629.1,8.35ZM624,16a.85.85,0,1,1,.85-.85A.85.85,0,0,1,624,16Z"/><path class="b" d="M661.1,8.35H650.9a1.7,1.7,0,0,0-1.7,1.7v10.2a1.7,1.7,0,0,0,1.7,1.7h10.2a1.7,1.7,0,0,0,1.7-1.7V10.05A1.7,1.7,0,0,0,661.1,8.35Zm-5.1,8.5a1.7,1.7,0,1,1,1.7-1.7A1.7,1.7,0,0,1,656,16.85Z"/><path class="b" d="M816,5.46a9.69,9.69,0,1,1-9.69,9.69A9.69,9.69,0,0,1,816,5.46m0-.2019a9.8919,9.8919,0,1,0,9.8919,9.8919A9.9031,9.9031,0,0,0,816,5.2581Z"/><path class="b" d="M784,6.65a8.5,8.5,0,1,1-8.5,8.5,8.5,8.5,0,0,1,8.5-8.5m0-.6375a9.1375,9.1375,0,1,0,9.1375,9.1375A9.1479,9.1479,0,0,0,784,6.0125Z"/><path class="b" d="M759.65,15.15a7.5943,7.5943,0,0,0-.85-3.4887V10.05a1.7,1.7,0,0,0-1.7-1.7h-1.6113a7.5844,7.5844,0,0,0-6.9774,0H746.9a1.7,1.7,0,0,0-1.7,1.7v1.6113a7.5844,7.5844,0,0,0,0,6.9774V20.25a1.7,1.7,0,0,0,1.7,1.7h1.6113a7.5844,7.5844,0,0,0,6.9774,0H757.1a1.7,1.7,0,0,0,1.7-1.7V18.6387A7.5943,7.5943,0,0,0,759.65,15.15Zm-14.45,0a6.8,6.8,0,1,1,6.8,6.8A6.8,6.8,0,0,1,745.2,15.15Z"/><circle class="b" cx="884.8521" cy="26.934" r="0.1673"/><circle class="b" cx="888.8286" cy="24.213" r="0.1673"/><circle class="b" cx="891.4629" cy="20.1769" r="0.1673"/><circle class="b" cx="892.3501" cy="15.4403" r="0.1673"/><circle class="b" cx="891.3598" cy="10.7238" r="0.1673"/><circle class="b" cx="888.6378" cy="6.7461" r="0.1673"/><circle class="b" cx="884.6019" cy="4.1123" r="0.1673"/><circle class="b" cx="879.8653" cy="3.2241" r="0.1673"/><circle class="b" cx="875.1486" cy="4.2157" r="0.1673"/><circle class="b" cx="871.1711" cy="6.9364" r="0.1673"/><circle class="b" cx="868.5374" cy="10.973" r="0.1673"/><circle class="b" cx="867.6491" cy="15.709" r="0.1673"/><circle class="b" cx="868.6407" cy="20.4263" r="0.1673"/><circle class="b" cx="871.3622" cy="24.4048" r="0.1673"/><circle class="b" cx="875.3979" cy="27.0371" r="0.1673"/><circle class="b" cx="880.1347" cy="27.9263" r="0.1673"/><circle class="b" cx="852.0018" cy="25.2342" r="0.2788"/><circle class="b" cx="855.3932" cy="22.9677" r="0.2788"/><circle class="b" cx="857.6595" cy="19.5759" r="0.2788"/><circle class="b" cx="858.4542" cy="15.575" r="0.2788"/><circle class="b" cx="857.659" cy="11.5737" r="0.2788"/><circle class="b" cx="855.393" cy="8.182" r="0.2788"/><circle class="b" cx="852.0007" cy="5.9157" r="0.2788"/><circle class="b" cx="848" cy="5.12" r="0.2788"/><circle class="b" cx="843.9987" cy="5.9157" r="0.2788"/><circle class="b" cx="840.607" cy="8.1822" r="0.2788"/><circle class="b" cx="838.3405" cy="11.5738" r="0.2788"/><circle class="b" cx="837.545" cy="15.5742" r="0.2788"/><circle class="b" cx="838.3405" cy="19.576" r="0.2788"/><circle class="b" cx="840.607" cy="22.9674" r="0.2788"/><circle class="b" cx="843.9996" cy="25.2338" r="0.2788"/><circle class="b" cx="848" cy="26.0304" r="0.2788"/><path class="b" d="M276.001,17.451l-1.202-1.202-1.949,1.949V12.175a.425.425,0,0,0-.425-.425h-.85a.425.425,0,0,0-.425.425v6.023l-1.949-1.949-1.202,1.202.7669.7668a2.8015,2.8015,0,0,1,.6884,2.0322H269.45v1.7h5.1v-1.7h-.0043a2.8015,2.8015,0,0,1,.6884-2.0322Z"/><path class="b" d="M341.1,17.7v.001a2.9335,2.9335,0,0,1-3.7.3664l-.55-.3664v-.426a.425.425,0,0,0-.425-.425h-.85a.425.425,0,0,0-.425.425v.426l-.55.3664a2.9335,2.9335,0,0,1-3.7-.3664V17.7h-1.7v2.55a1.7,1.7,0,0,0,1.7,1.7h10.2a1.7,1.7,0,0,0,1.7-1.7V17.7Z"/><path class="b" d="M374.375,15.15h-.85a.425.425,0,0,0-.425.425V16l-2.8269,1.4134a5.0826,5.0826,0,0,1-4.5462,0L362.9,16v-.425a.425.425,0,0,0-.425-.425h-.85a.425.425,0,0,0-.425.425V20.25a1.7,1.7,0,0,0,1.7,1.7h10.2a1.7,1.7,0,0,0,1.7-1.7V15.575A.425.425,0,0,0,374.375,15.15Z"/><path class="b" d="M533.95,9.2a15.3634,15.3634,0,0,0-11.9,0,.85.85,0,0,0-.85.85v10.2a1.7,1.7,0,0,0,1.7,1.7h10.2a1.7,1.7,0,0,0,1.7-1.7V10.05A.85.85,0,0,0,533.95,9.2Z"/><path class="b" d="M438.375,12.6h-12.75a.425.425,0,0,0-.425.425V20.25a1.7,1.7,0,0,0,1.7,1.7h10.2a1.7,1.7,0,0,0,1.7-1.7V13.025A.425.425,0,0,0,438.375,12.6Z"/><path class="b" d="M309.1,19.4a1.2605,1.2605,0,0,1-1.099-1.949l-1.202-1.202-1.949,1.949V14.725a.425.425,0,0,0-.425-.425h-.85a.425.425,0,0,0-.425.425v3.473l-1.949-1.949-1.202,1.202A1.2605,1.2605,0,0,1,298.9,19.4h-1.7v.85a1.7,1.7,0,0,0,1.7,1.7h10.2a1.7,1.7,0,0,0,1.7-1.7V19.4Z"/></svg>