<svg xmlns="http://www.w3.org/2000/svg" viewBox="0 0 960 32"><defs><style>.a{fill:#4caf50;}.b,.k{fill:#606060;}.c{opacity:0.8;}.d{opacity:0.55;}.e{opacity:0.35;}.f,.k{opacity:0.1;}.g{opacity:0.2;}.h{opacity:0.9;}.i{opacity:0.7;}.j{opacity:0.4;}</style></defs><title>retweet</title><path class="a" d="M939.5021,18.9867v-4.872h1.81L938.176,10.4l-3.136,3.7147h1.81v5.6187a1.83,1.83,0,0,0,1.792,1.8667h8.0461l-2.2947-2.6133Zm11.648-1.1013V12.2667a1.83,1.83,0,0,0-1.792-1.8667H941.312l2.2945,2.6133h4.8913v4.872h-1.81L949.824,21.6l3.136-3.7147Z"/><path class="b" d="M11.5021,18.9867v-4.872h1.81L10.176,10.4,7.04,14.1147H8.85v5.6187A1.83,1.83,0,0,0,10.6419,21.6H18.688l-2.2947-2.6133ZM23.15,17.8853V12.2667A1.83,1.83,0,0,0,21.3581,10.4H13.312l2.2945,2.6133h4.8913v4.872h-1.81L21.824,21.6l3.136-3.7147Z"/><path class="a" d="M907.5021,18.9867v-4.872h1.81L906.176,10.4l-3.136,3.7147h1.81v5.6187a1.83,1.83,0,0,0,1.792,1.8667h8.0461l-2.2947-2.6133Zm11.648-1.1013V12.2667a1.83,1.83,0,0,0-1.792-1.8667H909.312l2.2945,2.6133h4.8913v4.872h-1.81L917.824,21.6l3.136-3.7147Z"/><path class="a" d="M875.5021,18.9867v-4.872h1.81L874.176,10.4l-3.136,3.7147h1.81v5.6187a1.83,1.83,0,0,0,1.792,1.8667h8.0461l-2.2947-2.6133Zm11.648-1.1013V12.2667a1.83,1.83,0,0,0-1.792-1.8667H877.312l2.2945,2.6133h4.8913v4.872h-1.81L885.824,21.6l3.136-3.7147Z"/><path class="a" d="M843.5021,19.0179v-4.872h1.81l-3.136-3.7147-3.136,3.7147h1.81v5.6187a1.83,1.83,0,0,0,1.792,1.8667h8.0461l-2.2947-2.6133Zm11.648-1.1013V12.2979a1.83,1.83,0,0,0-1.792-1.8667H845.312l2.2945,2.6133h4.8913v4.872h-1.81l3.136,3.7147,3.136-3.7147Z"/><path class="a" d="M811.5021,19.0179v-4.872h1.81l-3.136-3.7147-3.136,3.7147h1.81v5.6187a1.83,1.83,0,0,0,1.792,1.8667h8.0461l-2.2947-2.6133Zm11.648-1.1013V12.2979a1.83,1.83,0,0,0-1.792-1.8667H813.312l2.2945,2.6133h4.8913v4.872h-1.81l3.136,3.7147,3.136-3.7147Z"/><path class="a" d="M779.5021,19.0179V14.9113h1.81l-3.136-3.7147-3.136,3.7147h1.81v4.8533a1.83,1.83,0,0,0,1.792,1.8667H787.36l-2.2947-2.6133Zm11.648-1.8667V12.2979a1.83,1.83,0,0,0-1.792-1.8667H780.64l2.2945,2.6133h5.5633v4.1067h-1.81l3.136,3.7147,3.136-3.7147Z"/><path class="a" d="M747.5021,19.0179V16.0313h1.81l-3.136-3.7147-3.136,3.7147h1.81v3.7333a1.83,1.83,0,0,0,1.792,1.8667H756.48l-2.2947-2.6133Zm11.648-2.9867V12.2979a1.83,1.83,0,0,0-1.792-1.8667H747.52l2.2945,2.6133h6.6833v2.9867h-1.81l3.136,3.7147,3.136-3.7147Z"/><path class="a" d="M715.5021,19.0179v-1.512h1.81l-3.136-3.7147-3.136,3.7147h1.81v2.2587a1.83,1.83,0,0,0,1.792,1.8667h12.1327L724.48,19.0179Zm11.648-4.4613V12.2979a1.83,1.83,0,0,0-1.792-1.8667H713.28l2.2945,2.6133h8.9233v1.512h-1.81l3.136,3.7147,3.136-3.7147Z"/><path class="a" d="M692.4979,19.0179h-8.9958v-.392h1.81l-3.136-3.7146-3.136,3.7146h1.81v1.1387a1.83,1.83,0,0,0,1.792,1.8667h10.7162a1.83,1.83,0,0,0,1.792-1.8667V18.2712h-2.6521Z"/><path class="a" d="M683.4771,13.0446h9.0206v.7467h-1.81l3.136,3.7146,3.136-3.7146h-1.81V12.2979a1.83,1.83,0,0,0-1.792-1.8666H682.617a1.83,1.83,0,0,0-1.792,1.8667v1.4933h2.6521Z"/><path class="a" d="M661.8674,11.9479a3.1634,3.1634,0,0,0-2.4909-1.5166h-9.0739a1.83,1.83,0,0,0-1.792,1.8667v3.7333l2.6521-1.89V13.0446H659.6l.54.5832-1.4889,1.6128,4.8256.0347V10.4313Z"/><path class="a" d="M660.8253,19.0179h-8.4377l-.54-.5833,1.4889-1.6127-4.8256-.0347v4.8442l1.61-1.5167a3.1637,3.1637,0,0,0,2.4909,1.5167h9.0738a1.83,1.83,0,0,0,1.792-1.8667V16.0313l-2.6521,2.2949Z"/><path class="a" d="M619.2263,13.01h3.3779l4.1165.0217v1.81l3.7146-3.136L626.7207,8.57v1.81l-4.1165.017h-4.2381a1.83,1.83,0,0,0-1.792,1.8667v6.0008l2.6521-2.2949Z"/><path class="a" d="M628.8265,16.079l.0046,2.9317h-3.3779l-4.1164-.0217v-1.81l-3.7146,3.136,3.7146,3.136v-1.81l4.1164-.017h4.2381a1.83,1.83,0,0,0,1.792-1.8667l-.0046-5.9733Z"/><path class="a" d="M587.19,13.0309h3.3779l2.5661.0217v1.81l3.7146-3.136-3.7146-3.136V10.4l-2.5661.017H586.33a1.83,1.83,0,0,0-1.792,1.8667v8.0346l2.6521-2.2949Z"/><path class="a" d="M596.7946,13.9663v5.0654h-3.3779l-2.5708-.0217V17.2l-3.7146,3.136,3.7146,3.136v-1.81l2.5708-.017h4.2381a1.83,1.83,0,0,0,1.792-1.8667V11.6714Z"/><path class="a" d="M555.1974,20.369V13.0321h3.3779l.3086.0217v1.81l3.7146-3.136-3.7146-3.136v1.81l-.3086.017h-4.2381a1.83,1.83,0,0,0-1.792,1.8667V22.6639Z"/><path class="a" d="M564.7556,11.6726v7.3369h-3.3779l-.3086-.0217v-1.81l-3.7146,3.136,3.7146,3.136V21.64l.3086-.017h4.2381a1.83,1.83,0,0,0,1.792-1.8667V9.3777Z"/><path class="a" d="M523.2,21.1654V13.0426h1.132l.3086.0217v1.81l3.7146-3.136L524.64,8.6022v1.81l-.3086.017H522.34a1.83,1.83,0,0,0-1.792,1.8667V23.46Z"/><path class="a" d="M532.7608,10.8971V19.02h-1.132l-.3086-.0217v-1.81l-3.7146,3.136L531.32,23.46V21.65l.3086-.017h1.9921a1.83,1.83,0,0,0,1.792-1.8667V8.6022Z"/><path class="a" d="M488.5439,14.5249v11.23l2.6535-2.2949.0036-9.1462.564-.5461,1.6127,1.4889.0347-4.8256h-4.8442l1.5167,1.61C489.3692,12.6727,488.5439,13.2468,488.5439,14.5249Z"/><path class="a" d="M503.409,17.5376V6.3073l-2.6535,2.2949-.0036,9.1462-.564.5461-1.6127-1.4889-.0347,4.8256h4.8442l-1.5167-1.61C502.5837,19.39,503.409,18.8157,503.409,17.5376Z"/><polygon class="a" points="471.15 17.164 471.15 3.676 468.498 5.971 468.498 17.164 466.688 17.164 469.824 20.879 472.96 17.164 471.15 17.164"/><polygon class="a" points="455.04 14.898 456.85 14.898 456.85 28.386 459.502 26.092 459.502 14.898 461.312 14.898 458.176 11.184 455.04 14.898"/><polygon class="a" points="439.167 0 438.076 0 436.516 1.35 436.498 13.76 434.688 13.76 437.824 17.475 440.96 13.76 439.15 13.76 439.167 0"/><polygon class="a" points="424.867 32 425.96 32 427.52 30.65 427.502 18.24 429.312 18.24 426.176 14.525 423.04 18.24 424.85 18.24 424.867 32"/><polygon class="a" points="407.173 0 404.521 0 404.498 10.4 402.688 10.4 405.824 14.115 408.96 10.4 407.15 10.4 407.173 0"/><polygon class="a" points="392.872 32 395.524 32 395.502 22.72 397.312 22.72 394.176 19.005 391.04 22.72 392.85 22.72 392.872 32"/><polygon class="a" points="375.17 0 372.518 0 372.498 5.92 370.688 5.92 373.824 9.635 376.96 5.92 375.15 5.92 375.17 0"/><polygon class="a" points="360.87 32 363.522 32 363.502 26.08 365.312 26.08 362.176 22.365 359.04 26.08 360.85 26.08 360.87 32"/><g class="c"><polygon class="a" points="343.21 0 340.557 0 340.542 2.56 338.732 2.56 341.868 6.275 345.004 2.56 343.194 2.56 343.21 0"/><polygon class="a" points="328.909 32 331.562 32 331.546 29.44 333.356 29.44 330.22 25.725 327.084 29.44 328.894 29.44 328.909 32"/></g><g class="d"><polygon class="a" points="306.762 0 309.868 3.68 312.975 0 306.762 0"/><polygon class="a" points="301.327 32 298.22 28.32 295.113 32 301.327 32"/></g><g class="e"><polygon class="a" points="276.089 0 277.868 2.107 279.647 0 276.089 0"/><polygon class="a" points="268.058 32 266.22 29.823 264.382 32 268.058 32"/></g><g class="g"><polygon class="a" points="245.024 0 245.868 1 246.712 0 245.024 0"/><polygon class="a" points="235.113 32 234.22 30.943 233.328 32 235.113 32"/></g><g class="h"><path class="b" d="M44.6266,18.3893V14.4917H45.984L43.632,11.52,41.28,14.4917h1.3574v4.4949a1.4245,1.4245,0,0,0,1.344,1.4933H50.016l-1.721-2.0907Zm8.736-.8811V13.0133a1.4246,1.4246,0,0,0-1.344-1.4933H45.984l1.7209,2.0907h3.6684v3.8976H50.016L52.368,20.48l2.352-2.9717Z"/></g><g class="i"><path class="b" d="M77.1888,17.792V14.8688H78.32L76.36,12.64,74.4,14.8688h1.1312V18.24a1.12,1.12,0,0,0,1.12,1.12H81.68l-1.4342-1.568Zm7.28-.6608V13.76a1.12,1.12,0,0,0-1.12-1.12H78.32l1.434,1.568h3.057v2.9232H81.68L83.64,19.36l1.96-2.2288Z"/></g><g class="j"><path class="b" d="M110.3133,17.1947V15.2459h.6787L109.816,13.76l-1.176,1.4859h.6787v2.2475a.7122.7122,0,0,0,.672.7467h3.0173l-.86-1.0453Zm4.368-.4405V14.5067a.7123.7123,0,0,0-.672-.7467H110.992l.86,1.0453h1.8342v1.9488h-.6787l1.176,1.4859,1.176-1.4859Z"/></g><rect class="k" x="142.81" y="14.81" width="2.38" height="2.38" rx="1.0625" ry="1.0625"/></svg>