<svg xmlns="http://www.w3.org/2000/svg" viewBox="0 0 960 32"><defs><style>.a{fill:#606060;}.b{fill:#4caf50;}</style></defs><title>forward-01</title><path class="a" d="M11.984,18.6667v-4.35H13.6L10.8,11,8,14.3167H9.616v5.0167A1.6342,1.6342,0,0,0,11.216,21H18.4l-2.0488-2.3333Zm10.4-.9833V12.6667A1.6343,1.6343,0,0,0,20.784,11H13.6l2.0486,2.3333h4.3672v4.35H18.4L21.2,21,24,17.6833Z"/><path class="b" d="M939.984,18.6667v-4.35H941.6L938.8,11,936,14.3167h1.616v5.0167A1.6342,1.6342,0,0,0,939.216,21H946.4l-2.0488-2.3333Zm10.4-.9833V12.6667A1.6343,1.6343,0,0,0,948.784,11H941.6l2.0486,2.3333h4.3672v4.35H946.4L949.2,21l2.8-3.3167Z"/><path class="b" d="M907.984,18.6667v-4.35H909.6L906.8,11,904,14.3167h1.616v5.0167A1.6342,1.6342,0,0,0,907.216,21H914.4l-2.0488-2.3333Zm10.4-.9833V12.6667A1.6343,1.6343,0,0,0,916.784,11H909.6l2.0486,2.3333h4.3672v4.35H914.4L917.2,21l2.8-3.3167Z"/><path class="b" d="M875.984,18.6667v-4.35H877.6L874.8,11,872,14.3167h1.616v5.0167A1.6342,1.6342,0,0,0,875.216,21H882.4l-2.0488-2.3333Zm10.4-.9833V12.6667A1.6343,1.6343,0,0,0,884.784,11H877.6l2.0486,2.3333h4.3672v4.35H882.4L885.2,21l2.8-3.3167Z"/><path class="b" d="M843.984,18.6667V15H845.6l-2.8-3.3167L840,15h1.616v4.3333A1.6342,1.6342,0,0,0,843.216,21H851l-2.0488-2.3333ZM854.384,17V12.6667A1.6343,1.6343,0,0,0,852.784,11H845l2.0486,2.3333h4.9672V17H850.4l2.8,3.3167L856,17Z"/><path class="b" d="M811.984,18.6667V16H813.6l-2.8-3.3167L808,16h1.616v3.3333A1.6342,1.6342,0,0,0,811.216,21H820l-2.0488-2.3333ZM822.384,16V12.6667A1.6343,1.6343,0,0,0,820.784,11H812l2.0486,2.3333h5.9672V16H818.4l2.8,3.3167L824,16Z"/><path class="b" d="M779.984,18.6667v-1.35H781.6L778.8,14,776,17.3167h1.616v2.0167A1.6342,1.6342,0,0,0,779.216,21h10.8328L788,18.6667Zm10.4-3.9833V12.6667A1.6343,1.6343,0,0,0,788.784,11H778l2.0486,2.3333h7.9672v1.35H786.4L789.2,18l2.8-3.3167Z"/><path class="b" d="M756.016,18.6666h-8.032v-.35H749.6L746.8,15,744,18.3167h1.616v1.0167A1.6342,1.6342,0,0,0,747.216,21h9.568a1.6342,1.6342,0,0,0,1.6-1.6667V18h-2.368Z"/><path class="b" d="M747.9617,13.3334h8.0541V14H754.4l2.8,3.3167L760,14h-1.616V12.6666A1.6343,1.6343,0,0,0,756.784,11h-9.59a1.6342,1.6342,0,0,0-1.6,1.6667V14h2.368Z"/><path class="b" d="M725.2381,12.3541A2.8245,2.8245,0,0,0,723.0141,11h-8.1017a1.6342,1.6342,0,0,0-1.6,1.6667V16l2.368-1.6875v-.9791h7.5336l.4824.5208-1.3294,1.44,4.3086.0309V11Z"/><path class="b" d="M724.3077,18.6666H716.774l-.4824-.5208,1.3294-1.44-4.3086-.031V21l1.4375-1.3542A2.8247,2.8247,0,0,0,716.974,21h8.1016a1.6342,1.6342,0,0,0,1.6-1.6667V16l-2.368,2.049Z"/><path class="b" d="M683.7409,13.3h3.016l3.6754.0194v1.616l3.3167-2.8-3.3167-2.8v1.616l-3.6754.0152h-3.784a1.6342,1.6342,0,0,0-1.6,1.6667v5.3578l2.368-2.049Z"/><path class="b" d="M692.3125,16.04l.0041,2.6176h-3.016l-3.6754-.0194v-1.616l-3.3167,2.8,3.3167,2.8v-1.616l3.6754-.0152h3.784a1.6342,1.6342,0,0,0,1.6-1.6667l-.0041-5.3333Z"/><path class="b" d="M651.7043,13.3211h3.016l2.2911.0194v1.616l3.3167-2.8-3.3167-2.8v1.616l-2.2911.0152h-3.784a1.6342,1.6342,0,0,0-1.6,1.6667v7.1737l2.368-2.049Z"/><path class="b" d="M660.28,14.1563v4.5226h-3.016l-2.2953-.0194v-1.616l-3.3167,2.8,3.3167,2.8v-1.616l2.2953-.0152h3.784a1.6342,1.6342,0,0,0,1.6-1.6667V12.1072Z"/><path class="b" d="M619.7095,19.8719V13.3211h3.016l.2755.0194v1.616l3.3167-2.8-3.3167-2.8v1.616l-.2755.0152h-3.784a1.6342,1.6342,0,0,0-1.6,1.6667v9.2665Z"/><path class="b" d="M628.2435,12.1072V18.658h-3.016l-.2755-.0194v-1.616l-3.3167,2.8,3.3167,2.8v-1.616l.2755-.0152h3.784a1.6342,1.6342,0,0,0,1.6-1.6667V10.0582Z"/><path class="b" d="M587.7121,20.5841V13.3315h1.0107l.2755.0194v1.616l3.3167-2.8-3.3167-2.8v1.616l-.2755.0152h-1.7787a1.6342,1.6342,0,0,0-1.6,1.6667v9.9682Z"/><path class="b" d="M596.2487,11.4159v7.2525H595.238l-.2755-.0194v-1.616l-3.3167,2.8,3.3167,2.8V21.017l.2755-.0152h1.7787a1.6342,1.6342,0,0,0,1.6-1.6667V9.3669Z"/><path class="b" d="M553.34,14.655v9.0025l2.3692-2.049.0032-7.1418.5035-.4876,1.44,1.3294L557.6871,11h-4.3251l1.3542,1.4375C554.0771,13.0013,553.34,13.5139,553.34,14.655Z"/><path class="b" d="M566.6127,17.345V8.3424l-2.3692,2.049-.0032,7.1418-.5035.4876-1.44-1.3294L562.2658,21h4.3251l-1.3542-1.4375C565.8758,18.9987,566.6127,18.4861,566.6127,17.345Z"/><polygon class="b" points="534.384 17.011 534.384 8 532.016 10.049 532.016 17.011 530.4 17.011 533.2 20.328 536 17.011 534.384 17.011"/><polygon class="b" points="520 14.989 521.616 14.989 521.616 24 523.984 21.951 523.984 14.989 525.6 14.989 522.8 11.672 520 14.989"/></svg>